<?xml version="1.0" encoding="utf-8" standalone="no"?>
<!DOCTYPE svg PUBLIC "-//W3C//DTD SVG 1.1//EN"
  "http://www.w3.org/Graphics/SVG/1.1/DTD/svg11.dtd">
<svg xmlns:xlink="http://www.w3.org/1999/xlink" width="854.442954pt" height="422.230589pt" viewBox="0 0 854.442954 422.230589" xmlns="http://www.w3.org/2000/svg" version="1.1">
 <metadata>
  <rdf:RDF xmlns:dc="http://purl.org/dc/elements/1.1/" xmlns:cc="http://creativecommons.org/ns#" xmlns:rdf="http://www.w3.org/1999/02/22-rdf-syntax-ns#">
   <cc:Work>
    <dc:type rdf:resource="http://purl.org/dc/dcmitype/StillImage"/>
    <dc:date>2026-06-24T22:38:21.351504</dc:date>
    <dc:format>image/svg+xml</dc:format>
    <dc:creator>
     <cc:Agent>
      <dc:title>Matplotlib v3.11.0, https://matplotlib.org/</dc:title>
     </cc:Agent>
    </dc:creator>
   </cc:Work>
  </rdf:RDF>
 </metadata>
 <defs>
  <style type="text/css">*{stroke-linejoin: round; stroke-linecap: butt}</style>
 </defs>
 <g id="figure_1">
  <g id="patch_1">
   <path d="M 0 422.230589 
L 854.442954 422.230589 
L 854.442954 0 
L 0 0 
z
" style="fill: #ffffff"/>
  </g>
  <g id="axes_1">
   <g id="patch_2">
    <path d="M 54.248938 337.038933 
L 732.416938 337.038933 
L 732.416938 23.836719 
L 54.248938 23.836719 
z
" style="fill: #ffffff"/>
   </g>
   <g id="matplotlib.axis_1">
    <g id="xtick_1">
     <g id="line2d_1">
      <path d="M 101.647776 337.038933 
L 101.647776 23.836719 
" clip-path="url(#pe7a05f61f7)" style="fill: none; stroke: #cccccc; stroke-width: 0.8; stroke-linecap: round"/>
     </g>
     <g id="text_1">
      <!-- ADE-FCM -->
      <g style="fill: #262626" transform="translate(57.786114 376.360381) rotate(-30) scale(0.0968 -0.0968)">
       <defs>
        <path id="DejaVuSerif-24" d="M 1281 1691 
L 2994 1691 
L 2138 3909 
L 1281 1691 
z
M -38 0 
L -38 331 
L 372 331 
L 2034 4666 
L 2559 4666 
L 4225 331 
L 4684 331 
L 4684 0 
L 2988 0 
L 2988 331 
L 3506 331 
L 3116 1356 
L 1153 1356 
L 763 331 
L 1275 331 
L 1275 0 
L -38 0 
z
" transform="scale(0.015625)"/>
        <path id="DejaVuSerif-27" d="M 1581 331 
L 2163 331 
Q 3072 331 3558 850 
Q 4044 1369 4044 2338 
Q 4044 3306 3559 3818 
Q 3075 4331 2163 4331 
L 1581 4331 
L 1581 331 
z
M 353 0 
L 353 331 
L 947 331 
L 947 4331 
L 353 4331 
L 353 4666 
L 2209 4666 
Q 3416 4666 4089 4050 
Q 4763 3434 4763 2338 
Q 4763 1238 4088 619 
Q 3413 0 2209 0 
L 353 0 
z
" transform="scale(0.015625)"/>
        <path id="DejaVuSerif-28" d="M 353 0 
L 353 331 
L 947 331 
L 947 4331 
L 353 4331 
L 353 4666 
L 4109 4666 
L 4109 3628 
L 3725 3628 
L 3725 4281 
L 1581 4281 
L 1581 2719 
L 3109 2719 
L 3109 3303 
L 3494 3303 
L 3494 1753 
L 3109 1753 
L 3109 2338 
L 1581 2338 
L 1581 384 
L 3775 384 
L 3775 1038 
L 4159 1038 
L 4159 0 
L 353 0 
z
" transform="scale(0.015625)"/>
        <path id="DejaVuSerif-10" d="M 281 1959 
L 1881 1959 
L 1881 1472 
L 281 1472 
L 281 1959 
z
" transform="scale(0.015625)"/>
        <path id="DejaVuSerif-29" d="M 353 0 
L 353 331 
L 947 331 
L 947 4331 
L 353 4331 
L 353 4666 
L 4172 4666 
L 4172 3628 
L 3788 3628 
L 3788 4281 
L 1581 4281 
L 1581 2719 
L 3175 2719 
L 3175 3303 
L 3559 3303 
L 3559 1753 
L 3175 1753 
L 3175 2338 
L 1581 2338 
L 1581 331 
L 2328 331 
L 2328 0 
L 353 0 
z
" transform="scale(0.015625)"/>
        <path id="DejaVuSerif-26" d="M 4513 1234 
Q 4306 581 3820 245 
Q 3334 -91 2591 -91 
Q 2134 -91 1743 65 
Q 1353 222 1050 525 
Q 700 875 529 1320 
Q 359 1766 359 2328 
Q 359 3416 987 4083 
Q 1616 4750 2644 4750 
Q 3025 4750 3456 4650 
Q 3888 4550 4384 4347 
L 4384 3272 
L 4031 3272 
Q 3916 3859 3567 4137 
Q 3219 4416 2591 4416 
Q 1844 4416 1459 3886 
Q 1075 3356 1075 2328 
Q 1075 1303 1459 773 
Q 1844 244 2591 244 
Q 3113 244 3450 492 
Q 3788 741 3938 1234 
L 4513 1234 
z
" transform="scale(0.015625)"/>
        <path id="DejaVuSerif-30" d="M 353 0 
L 353 331 
L 947 331 
L 947 4331 
L 319 4331 
L 319 4666 
L 1678 4666 
L 3316 1344 
L 4953 4666 
L 6228 4666 
L 6228 4331 
L 5606 4331 
L 5606 331 
L 6203 331 
L 6203 0 
L 4378 0 
L 4378 331 
L 4972 331 
L 4972 3938 
L 3372 684 
L 2931 684 
L 1331 3938 
L 1331 331 
L 1925 331 
L 1925 0 
L 353 0 
z
" transform="scale(0.015625)"/>
       </defs>
       <use xlink:href="#DejaVuSerif-24"/>
       <use xlink:href="#DejaVuSerif-27" transform="translate(72.21875 0)"/>
       <use xlink:href="#DejaVuSerif-28" transform="translate(152.390625 0)"/>
       <use xlink:href="#DejaVuSerif-10" transform="translate(227.25 0)"/>
       <use xlink:href="#DejaVuSerif-29" transform="translate(261.046875 0)"/>
       <use xlink:href="#DejaVuSerif-26" transform="translate(330.4375 0)"/>
       <use xlink:href="#DejaVuSerif-30" transform="translate(406.953125 0)"/>
      </g>
     </g>
    </g>
    <g id="xtick_2">
     <g id="line2d_2">
      <path d="M 174.569067 337.038933 
L 174.569067 23.836719 
" clip-path="url(#pe7a05f61f7)" style="fill: none; stroke: #cccccc; stroke-width: 0.8; stroke-linecap: round"/>
     </g>
     <g id="text_2">
      <!-- Agglomerative -->
      <g style="fill: #262626" transform="translate(111.225806 387.608743) rotate(-30) scale(0.0968 -0.0968)">
       <defs>
        <path id="DejaVuSerif-4a" d="M 3359 2988 
L 3359 72 
Q 3359 -644 2965 -1033 
Q 2572 -1422 1844 -1422 
Q 1516 -1422 1216 -1362 
Q 916 -1303 641 -1184 
L 641 -488 
L 941 -488 
Q 997 -813 1206 -963 
Q 1416 -1113 1806 -1113 
Q 2313 -1113 2548 -827 
Q 2784 -541 2784 72 
L 2784 519 
Q 2616 206 2355 57 
Q 2094 -91 1709 -91 
Q 1097 -91 708 395 
Q 319 881 319 1663 
Q 319 2444 706 2928 
Q 1094 3413 1709 3413 
Q 2094 3413 2355 3264 
Q 2616 3116 2784 2803 
L 2784 3322 
L 3909 3322 
L 3909 2988 
L 3359 2988 
z
M 2784 1825 
Q 2784 2422 2554 2737 
Q 2325 3053 1888 3053 
Q 1444 3053 1217 2703 
Q 991 2353 991 1663 
Q 991 975 1217 622 
Q 1444 269 1888 269 
Q 2325 269 2554 583 
Q 2784 897 2784 1497 
L 2784 1825 
z
" transform="scale(0.015625)"/>
        <path id="DejaVuSerif-4f" d="M 1313 331 
L 1856 331 
L 1856 0 
L 184 0 
L 184 331 
L 738 331 
L 738 4531 
L 184 4531 
L 184 4863 
L 1313 4863 
L 1313 331 
z
" transform="scale(0.015625)"/>
        <path id="DejaVuSerif-52" d="M 1925 219 
Q 2388 219 2623 584 
Q 2859 950 2859 1663 
Q 2859 2375 2623 2739 
Q 2388 3103 1925 3103 
Q 1463 3103 1227 2739 
Q 991 2375 991 1663 
Q 991 950 1228 584 
Q 1466 219 1925 219 
z
M 1925 -91 
Q 1200 -91 759 389 
Q 319 869 319 1663 
Q 319 2456 758 2934 
Q 1197 3413 1925 3413 
Q 2653 3413 3092 2934 
Q 3531 2456 3531 1663 
Q 3531 869 3092 389 
Q 2653 -91 1925 -91 
z
" transform="scale(0.015625)"/>
        <path id="DejaVuSerif-50" d="M 3316 2675 
Q 3481 3041 3739 3227 
Q 3997 3413 4341 3413 
Q 4863 3413 5119 3089 
Q 5375 2766 5375 2113 
L 5375 331 
L 5894 331 
L 5894 0 
L 4300 0 
L 4300 331 
L 4800 331 
L 4800 2047 
Q 4800 2556 4650 2772 
Q 4500 2988 4153 2988 
Q 3769 2988 3567 2697 
Q 3366 2406 3366 1850 
L 3366 331 
L 3866 331 
L 3866 0 
L 2291 0 
L 2291 331 
L 2791 331 
L 2791 2069 
Q 2791 2566 2641 2777 
Q 2491 2988 2144 2988 
Q 1759 2988 1557 2697 
Q 1356 2406 1356 1850 
L 1356 331 
L 1856 331 
L 1856 0 
L 263 0 
L 263 331 
L 781 331 
L 781 2994 
L 231 2994 
L 231 3322 
L 1356 3322 
L 1356 2731 
Q 1516 3063 1762 3238 
Q 2009 3413 2322 3413 
Q 2709 3413 2968 3220 
Q 3228 3028 3316 2675 
z
" transform="scale(0.015625)"/>
        <path id="DejaVuSerif-48" d="M 3469 1600 
L 991 1600 
L 991 1575 
Q 991 903 1244 561 
Q 1497 219 1991 219 
Q 2369 219 2611 417 
Q 2853 616 2950 1006 
L 3413 1006 
Q 3275 459 2904 184 
Q 2534 -91 1931 -91 
Q 1203 -91 761 389 
Q 319 869 319 1663 
Q 319 2450 753 2931 
Q 1188 3413 1894 3413 
Q 2647 3413 3050 2948 
Q 3453 2484 3469 1600 
z
M 2791 1931 
Q 2772 2513 2545 2808 
Q 2319 3103 1894 3103 
Q 1497 3103 1269 2806 
Q 1041 2509 991 1931 
L 2791 1931 
z
" transform="scale(0.015625)"/>
        <path id="DejaVuSerif-55" d="M 3059 3328 
L 3059 2497 
L 2728 2497 
Q 2713 2744 2591 2866 
Q 2469 2988 2234 2988 
Q 1809 2988 1582 2694 
Q 1356 2400 1356 1850 
L 1356 331 
L 2022 331 
L 2022 0 
L 263 0 
L 263 331 
L 781 331 
L 781 2994 
L 231 2994 
L 231 3322 
L 1356 3322 
L 1356 2731 
Q 1525 3078 1790 3245 
Q 2056 3413 2438 3413 
Q 2578 3413 2733 3391 
Q 2888 3369 3059 3328 
z
" transform="scale(0.015625)"/>
        <path id="DejaVuSerif-44" d="M 2547 1044 
L 2547 1747 
L 1806 1747 
Q 1378 1747 1168 1562 
Q 959 1378 959 997 
Q 959 650 1171 447 
Q 1384 244 1747 244 
Q 2106 244 2326 466 
Q 2547 688 2547 1044 
z
M 3122 2075 
L 3122 331 
L 3634 331 
L 3634 0 
L 2547 0 
L 2547 359 
Q 2356 128 2106 18 
Q 1856 -91 1522 -91 
Q 969 -91 644 203 
Q 319 497 319 997 
Q 319 1513 691 1797 
Q 1063 2081 1741 2081 
L 2547 2081 
L 2547 2309 
Q 2547 2688 2317 2895 
Q 2088 3103 1672 3103 
Q 1328 3103 1125 2947 
Q 922 2791 872 2484 
L 575 2484 
L 575 3156 
Q 875 3284 1158 3348 
Q 1441 3413 1709 3413 
Q 2400 3413 2761 3070 
Q 3122 2728 3122 2075 
z
" transform="scale(0.015625)"/>
        <path id="DejaVuSerif-57" d="M 691 2988 
L 184 2988 
L 184 3322 
L 691 3322 
L 691 4353 
L 1269 4353 
L 1269 3322 
L 2350 3322 
L 2350 2988 
L 1269 2988 
L 1269 878 
Q 1269 456 1350 337 
Q 1431 219 1650 219 
Q 1875 219 1978 351 
Q 2081 484 2088 781 
L 2522 781 
Q 2497 328 2275 118 
Q 2053 -91 1600 -91 
Q 1103 -91 897 129 
Q 691 350 691 878 
L 691 2988 
z
" transform="scale(0.015625)"/>
        <path id="DejaVuSerif-4c" d="M 622 4353 
Q 622 4497 726 4603 
Q 831 4709 978 4709 
Q 1122 4709 1226 4603 
Q 1331 4497 1331 4353 
Q 1331 4206 1228 4103 
Q 1125 4000 978 4000 
Q 831 4000 726 4103 
Q 622 4206 622 4353 
z
M 1356 331 
L 1900 331 
L 1900 0 
L 231 0 
L 231 331 
L 781 331 
L 781 2988 
L 231 2988 
L 231 3322 
L 1356 3322 
L 1356 331 
z
" transform="scale(0.015625)"/>
        <path id="DejaVuSerif-59" d="M 1581 0 
L 359 2988 
L -19 2988 
L -19 3322 
L 1509 3322 
L 1509 2988 
L 978 2988 
L 1913 703 
L 2847 2988 
L 2350 2988 
L 2350 3322 
L 3597 3322 
L 3597 2988 
L 3225 2988 
L 2003 0 
L 1581 0 
z
" transform="scale(0.015625)"/>
       </defs>
       <use xlink:href="#DejaVuSerif-24"/>
       <use xlink:href="#DejaVuSerif-4a" transform="translate(72.21875 0)"/>
       <use xlink:href="#DejaVuSerif-4a" transform="translate(136.234375 0)"/>
       <use xlink:href="#DejaVuSerif-4f" transform="translate(200.25 0)"/>
       <use xlink:href="#DejaVuSerif-52" transform="translate(232.234375 0)"/>
       <use xlink:href="#DejaVuSerif-50" transform="translate(292.4375 0)"/>
       <use xlink:href="#DejaVuSerif-48" transform="translate(387.265625 0)"/>
       <use xlink:href="#DejaVuSerif-55" transform="translate(446.453125 0)"/>
       <use xlink:href="#DejaVuSerif-44" transform="translate(494.25 0)"/>
       <use xlink:href="#DejaVuSerif-57" transform="translate(553.875 0)"/>
       <use xlink:href="#DejaVuSerif-4c" transform="translate(594.0625 0)"/>
       <use xlink:href="#DejaVuSerif-59" transform="translate(626.046875 0)"/>
       <use xlink:href="#DejaVuSerif-48" transform="translate(682.546875 0)"/>
      </g>
     </g>
    </g>
    <g id="xtick_3">
     <g id="line2d_3">
      <path d="M 247.490357 337.038933 
L 247.490357 23.836719 
" clip-path="url(#pe7a05f61f7)" style="fill: none; stroke: #cccccc; stroke-width: 0.8; stroke-linecap: round"/>
     </g>
     <g id="text_3">
      <!-- DBSCAN -->
      <g style="fill: #262626" transform="translate(207.900159 373.89425) rotate(-30) scale(0.0968 -0.0968)">
       <defs>
        <path id="DejaVuSerif-25" d="M 1581 331 
L 2516 331 
Q 3078 331 3337 575 
Q 3597 819 3597 1350 
Q 3597 1878 3339 2120 
Q 3081 2363 2516 2363 
L 1581 2363 
L 1581 331 
z
M 1581 2694 
L 2375 2694 
Q 2888 2694 3123 2891 
Q 3359 3088 3359 3513 
Q 3359 3941 3123 4136 
Q 2888 4331 2375 4331 
L 1581 4331 
L 1581 2694 
z
M 353 0 
L 353 331 
L 947 331 
L 947 4331 
L 353 4331 
L 353 4666 
L 2656 4666 
Q 3363 4666 3720 4377 
Q 4078 4088 4078 3513 
Q 4078 3097 3829 2850 
Q 3581 2603 3103 2547 
Q 3697 2472 4005 2167 
Q 4313 1863 4313 1350 
Q 4313 656 3875 328 
Q 3438 0 2509 0 
L 353 0 
z
" transform="scale(0.015625)"/>
        <path id="DejaVuSerif-36" d="M 594 225 
L 594 1288 
L 953 1284 
Q 969 753 1261 498 
Q 1553 244 2150 244 
Q 2706 244 2998 464 
Q 3291 684 3291 1106 
Q 3291 1444 3114 1625 
Q 2938 1806 2369 1978 
L 1753 2163 
Q 1084 2366 811 2669 
Q 538 2972 538 3500 
Q 538 4094 959 4422 
Q 1381 4750 2144 4750 
Q 2469 4750 2856 4679 
Q 3244 4609 3681 4475 
L 3681 3481 
L 3328 3481 
Q 3275 3975 2998 4195 
Q 2722 4416 2156 4416 
Q 1663 4416 1405 4214 
Q 1147 4013 1147 3628 
Q 1147 3294 1340 3103 
Q 1534 2913 2163 2725 
L 2741 2553 
Q 3375 2363 3645 2067 
Q 3916 1772 3916 1275 
Q 3916 597 3481 253 
Q 3047 -91 2188 -91 
Q 1803 -91 1404 -12 
Q 1006 66 594 225 
z
" transform="scale(0.015625)"/>
        <path id="DejaVuSerif-31" d="M 313 0 
L 313 331 
L 941 331 
L 941 4331 
L 313 4331 
L 313 4666 
L 1509 4666 
L 4306 984 
L 4306 4331 
L 3681 4331 
L 3681 4666 
L 5319 4666 
L 5319 4331 
L 4691 4331 
L 4691 -91 
L 4313 -91 
L 1325 3841 
L 1325 331 
L 1953 331 
L 1953 0 
L 313 0 
z
" transform="scale(0.015625)"/>
       </defs>
       <use xlink:href="#DejaVuSerif-27"/>
       <use xlink:href="#DejaVuSerif-25" transform="translate(80.171875 0)"/>
       <use xlink:href="#DejaVuSerif-36" transform="translate(153.65625 0)"/>
       <use xlink:href="#DejaVuSerif-26" transform="translate(222.15625 0)"/>
       <use xlink:href="#DejaVuSerif-24" transform="translate(298.671875 0)"/>
       <use xlink:href="#DejaVuSerif-31" transform="translate(370.890625 0)"/>
      </g>
     </g>
    </g>
    <g id="xtick_4">
     <g id="line2d_4">
      <path d="M 320.411647 337.038933 
L 320.411647 23.836719 
" clip-path="url(#pe7a05f61f7)" style="fill: none; stroke: #cccccc; stroke-width: 0.8; stroke-linecap: round"/>
     </g>
     <g id="text_4">
      <!-- FCLM -->
      <g style="fill: #262626" transform="translate(292.866954 366.939775) rotate(-30) scale(0.0968 -0.0968)">
       <defs>
        <path id="DejaVuSerif-2f" d="M 353 0 
L 353 331 
L 947 331 
L 947 4331 
L 353 4331 
L 353 4666 
L 2175 4666 
L 2175 4331 
L 1581 4331 
L 1581 384 
L 3713 384 
L 3713 1166 
L 4097 1166 
L 4097 0 
L 353 0 
z
" transform="scale(0.015625)"/>
       </defs>
       <use xlink:href="#DejaVuSerif-29"/>
       <use xlink:href="#DejaVuSerif-26" transform="translate(69.390625 0)"/>
       <use xlink:href="#DejaVuSerif-2f" transform="translate(145.90625 0)"/>
       <use xlink:href="#DejaVuSerif-30" transform="translate(212.3125 0)"/>
      </g>
     </g>
    </g>
    <g id="xtick_5">
     <g id="line2d_5">
      <path d="M 393.332937 337.038933 
L 393.332937 23.836719 
" clip-path="url(#pe7a05f61f7)" style="fill: none; stroke: #cccccc; stroke-width: 0.8; stroke-linecap: round"/>
     </g>
     <g id="text_5">
      <!-- FCM -->
      <g style="fill: #262626" transform="translate(371.355163 363.725713) rotate(-30) scale(0.0968 -0.0968)">
       <use xlink:href="#DejaVuSerif-29"/>
       <use xlink:href="#DejaVuSerif-26" transform="translate(69.390625 0)"/>
       <use xlink:href="#DejaVuSerif-30" transform="translate(145.90625 0)"/>
      </g>
     </g>
    </g>
    <g id="xtick_6">
     <g id="line2d_6">
      <path d="M 466.254228 337.038933 
L 466.254228 23.836719 
" clip-path="url(#pe7a05f61f7)" style="fill: none; stroke: #cccccc; stroke-width: 0.8; stroke-linecap: round"/>
     </g>
     <g id="text_6">
      <!-- GaussianMixture -->
      <g style="fill: #262626" transform="translate(392.585314 393.569606) rotate(-30) scale(0.0968 -0.0968)">
       <defs>
        <path id="DejaVuSerif-2a" d="M 4097 3272 
Q 3988 3856 3641 4136 
Q 3294 4416 2675 4416 
Q 1869 4416 1472 3897 
Q 1075 3378 1075 2328 
Q 1075 1300 1484 772 
Q 1894 244 2688 244 
Q 3041 244 3362 331 
Q 3684 419 3975 594 
L 3975 1797 
L 3097 1797 
L 3097 2131 
L 4609 2131 
L 4609 391 
Q 4194 150 3714 29 
Q 3234 -91 2688 -91 
Q 1631 -91 995 570 
Q 359 1231 359 2328 
Q 359 3434 996 4092 
Q 1634 4750 2713 4750 
Q 3113 4750 3539 4658 
Q 3966 4566 4447 4378 
L 4447 3272 
L 4097 3272 
z
" transform="scale(0.015625)"/>
        <path id="DejaVuSerif-58" d="M 2266 3322 
L 3341 3322 
L 3341 331 
L 3884 331 
L 3884 0 
L 2766 0 
L 2766 588 
Q 2606 256 2353 82 
Q 2100 -91 1766 -91 
Q 1213 -91 952 223 
Q 691 538 691 1209 
L 691 2988 
L 172 2988 
L 172 3322 
L 1269 3322 
L 1269 1388 
Q 1269 781 1417 556 
Q 1566 331 1947 331 
Q 2347 331 2556 625 
Q 2766 919 2766 1478 
L 2766 2988 
L 2266 2988 
L 2266 3322 
z
" transform="scale(0.015625)"/>
        <path id="DejaVuSerif-56" d="M 359 184 
L 359 959 
L 691 959 
Q 703 588 923 403 
Q 1144 219 1575 219 
Q 1963 219 2166 364 
Q 2369 509 2369 788 
Q 2369 1006 2220 1140 
Q 2072 1275 1594 1428 
L 1178 1569 
Q 750 1706 558 1912 
Q 366 2119 366 2438 
Q 366 2894 700 3153 
Q 1034 3413 1625 3413 
Q 1888 3413 2178 3344 
Q 2469 3275 2778 3144 
L 2778 2419 
L 2447 2419 
Q 2434 2741 2221 2922 
Q 2009 3103 1644 3103 
Q 1281 3103 1095 2975 
Q 909 2847 909 2591 
Q 909 2381 1050 2254 
Q 1191 2128 1613 1997 
L 2069 1856 
Q 2541 1709 2748 1489 
Q 2956 1269 2956 922 
Q 2956 450 2595 179 
Q 2234 -91 1600 -91 
Q 1278 -91 972 -22 
Q 666 47 359 184 
z
" transform="scale(0.015625)"/>
        <path id="DejaVuSerif-51" d="M 263 0 
L 263 331 
L 781 331 
L 781 2988 
L 231 2988 
L 231 3322 
L 1356 3322 
L 1356 2731 
Q 1516 3069 1770 3241 
Q 2025 3413 2363 3413 
Q 2913 3413 3172 3097 
Q 3431 2781 3431 2113 
L 3431 331 
L 3944 331 
L 3944 0 
L 2356 0 
L 2356 331 
L 2853 331 
L 2853 1931 
Q 2853 2541 2703 2767 
Q 2553 2994 2175 2994 
Q 1775 2994 1565 2701 
Q 1356 2409 1356 1850 
L 1356 331 
L 1856 331 
L 1856 0 
L 263 0 
z
" transform="scale(0.015625)"/>
        <path id="DejaVuSerif-5b" d="M 1863 2028 
L 2559 2988 
L 2113 2988 
L 2113 3322 
L 3391 3322 
L 3391 2988 
L 2950 2988 
L 2059 1759 
L 3097 331 
L 3531 331 
L 3531 0 
L 1997 0 
L 1997 331 
L 2419 331 
L 1697 1325 
L 972 331 
L 1403 331 
L 1403 0 
L 141 0 
L 141 331 
L 581 331 
L 1497 1594 
L 488 2988 
L 78 2988 
L 78 3322 
L 1563 3322 
L 1563 2988 
L 1166 2988 
L 1863 2028 
z
" transform="scale(0.015625)"/>
       </defs>
       <use xlink:href="#DejaVuSerif-2a"/>
       <use xlink:href="#DejaVuSerif-44" transform="translate(79.890625 0)"/>
       <use xlink:href="#DejaVuSerif-58" transform="translate(139.515625 0)"/>
       <use xlink:href="#DejaVuSerif-56" transform="translate(203.921875 0)"/>
       <use xlink:href="#DejaVuSerif-56" transform="translate(255.234375 0)"/>
       <use xlink:href="#DejaVuSerif-4c" transform="translate(306.546875 0)"/>
       <use xlink:href="#DejaVuSerif-44" transform="translate(338.53125 0)"/>
       <use xlink:href="#DejaVuSerif-51" transform="translate(398.15625 0)"/>
       <use xlink:href="#DejaVuSerif-30" transform="translate(462.5625 0)"/>
       <use xlink:href="#DejaVuSerif-4c" transform="translate(564.953125 0)"/>
       <use xlink:href="#DejaVuSerif-5b" transform="translate(596.9375 0)"/>
       <use xlink:href="#DejaVuSerif-57" transform="translate(653.328125 0)"/>
       <use xlink:href="#DejaVuSerif-58" transform="translate(693.515625 0)"/>
       <use xlink:href="#DejaVuSerif-55" transform="translate(757.921875 0)"/>
       <use xlink:href="#DejaVuSerif-48" transform="translate(805.71875 0)"/>
      </g>
     </g>
    </g>
    <g id="xtick_7">
     <g id="line2d_7">
      <path d="M 539.175518 337.038933 
L 539.175518 23.836719 
" clip-path="url(#pe7a05f61f7)" style="fill: none; stroke: #cccccc; stroke-width: 0.8; stroke-linecap: round"/>
     </g>
     <g id="text_7">
      <!-- KMeans -->
      <g style="fill: #262626" transform="translate(503.505742 371.630794) rotate(-30) scale(0.0968 -0.0968)">
       <defs>
        <path id="DejaVuSerif-2e" d="M 353 0 
L 353 331 
L 947 331 
L 947 4331 
L 353 4331 
L 353 4666 
L 2175 4666 
L 2175 4331 
L 1581 4331 
L 1581 2566 
L 3591 4331 
L 3084 4331 
L 3084 4666 
L 4634 4666 
L 4634 4331 
L 4109 4331 
L 2106 2572 
L 4347 331 
L 4878 331 
L 4878 0 
L 3794 0 
L 1581 2216 
L 1581 331 
L 2175 331 
L 2175 0 
L 353 0 
z
" transform="scale(0.015625)"/>
       </defs>
       <use xlink:href="#DejaVuSerif-2e"/>
       <use xlink:href="#DejaVuSerif-30" transform="translate(74.703125 0)"/>
       <use xlink:href="#DejaVuSerif-48" transform="translate(177.09375 0)"/>
       <use xlink:href="#DejaVuSerif-44" transform="translate(236.28125 0)"/>
       <use xlink:href="#DejaVuSerif-51" transform="translate(295.90625 0)"/>
       <use xlink:href="#DejaVuSerif-56" transform="translate(360.3125 0)"/>
      </g>
     </g>
    </g>
    <g id="xtick_8">
     <g id="line2d_8">
      <path d="M 612.096808 337.038933 
L 612.096808 23.836719 
" clip-path="url(#pe7a05f61f7)" style="fill: none; stroke: #cccccc; stroke-width: 0.8; stroke-linecap: round"/>
     </g>
     <g id="text_8">
      <!-- MiniBatchKMeans -->
      <g style="fill: #262626" transform="translate(532.460156 397.015736) rotate(-30) scale(0.0968 -0.0968)">
       <defs>
        <path id="DejaVuSerif-46" d="M 3291 997 
Q 3169 466 2822 187 
Q 2475 -91 1925 -91 
Q 1200 -91 759 389 
Q 319 869 319 1663 
Q 319 2459 759 2936 
Q 1200 3413 1925 3413 
Q 2241 3413 2553 3339 
Q 2866 3266 3181 3116 
L 3181 2266 
L 2847 2266 
Q 2781 2703 2561 2903 
Q 2341 3103 1931 3103 
Q 1466 3103 1228 2742 
Q 991 2381 991 1663 
Q 991 944 1227 581 
Q 1463 219 1931 219 
Q 2303 219 2525 412 
Q 2747 606 2828 997 
L 3291 997 
z
" transform="scale(0.015625)"/>
        <path id="DejaVuSerif-4b" d="M 263 0 
L 263 331 
L 781 331 
L 781 4531 
L 231 4531 
L 231 4863 
L 1356 4863 
L 1356 2731 
Q 1516 3069 1770 3241 
Q 2025 3413 2363 3413 
Q 2913 3413 3172 3097 
Q 3431 2781 3431 2113 
L 3431 331 
L 3944 331 
L 3944 0 
L 2356 0 
L 2356 331 
L 2853 331 
L 2853 1931 
Q 2853 2541 2704 2764 
Q 2556 2988 2175 2988 
Q 1775 2988 1565 2697 
Q 1356 2406 1356 1850 
L 1356 331 
L 1856 331 
L 1856 0 
L 263 0 
z
" transform="scale(0.015625)"/>
       </defs>
       <use xlink:href="#DejaVuSerif-30"/>
       <use xlink:href="#DejaVuSerif-4c" transform="translate(102.390625 0)"/>
       <use xlink:href="#DejaVuSerif-51" transform="translate(134.375 0)"/>
       <use xlink:href="#DejaVuSerif-4c" transform="translate(198.78125 0)"/>
       <use xlink:href="#DejaVuSerif-25" transform="translate(230.765625 0)"/>
       <use xlink:href="#DejaVuSerif-44" transform="translate(304.25 0)"/>
       <use xlink:href="#DejaVuSerif-57" transform="translate(363.875 0)"/>
       <use xlink:href="#DejaVuSerif-46" transform="translate(404.0625 0)"/>
       <use xlink:href="#DejaVuSerif-4b" transform="translate(460.0625 0)"/>
       <use xlink:href="#DejaVuSerif-2e" transform="translate(524.46875 0)"/>
       <use xlink:href="#DejaVuSerif-30" transform="translate(599.171875 0)"/>
       <use xlink:href="#DejaVuSerif-48" transform="translate(701.5625 0)"/>
       <use xlink:href="#DejaVuSerif-44" transform="translate(760.75 0)"/>
       <use xlink:href="#DejaVuSerif-51" transform="translate(820.375 0)"/>
       <use xlink:href="#DejaVuSerif-56" transform="translate(884.78125 0)"/>
      </g>
     </g>
    </g>
    <g id="xtick_9">
     <g id="line2d_9">
      <path d="M 685.018099 337.038933 
L 685.018099 23.836719 
" clip-path="url(#pe7a05f61f7)" style="fill: none; stroke: #cccccc; stroke-width: 0.8; stroke-linecap: round"/>
     </g>
     <g id="text_9">
      <!-- Spectral -->
      <g style="fill: #262626" transform="translate(648.034529 372.389968) rotate(-30) scale(0.0968 -0.0968)">
       <defs>
        <path id="DejaVuSerif-53" d="M 1313 1825 
L 1313 1497 
Q 1313 897 1542 583 
Q 1772 269 2209 269 
Q 2650 269 2876 622 
Q 3103 975 3103 1663 
Q 3103 2353 2876 2703 
Q 2650 3053 2209 3053 
Q 1772 3053 1542 2737 
Q 1313 2422 1313 1825 
z
M 738 2988 
L 184 2988 
L 184 3322 
L 1313 3322 
L 1313 2803 
Q 1481 3116 1742 3264 
Q 2003 3413 2388 3413 
Q 3000 3413 3387 2928 
Q 3775 2444 3775 1663 
Q 3775 881 3387 395 
Q 3000 -91 2388 -91 
Q 2003 -91 1742 57 
Q 1481 206 1313 519 
L 1313 -997 
L 1856 -997 
L 1856 -1331 
L 184 -1331 
L 184 -997 
L 738 -997 
L 738 2988 
z
" transform="scale(0.015625)"/>
       </defs>
       <use xlink:href="#DejaVuSerif-36"/>
       <use xlink:href="#DejaVuSerif-53" transform="translate(68.5 0)"/>
       <use xlink:href="#DejaVuSerif-48" transform="translate(132.515625 0)"/>
       <use xlink:href="#DejaVuSerif-46" transform="translate(191.703125 0)"/>
       <use xlink:href="#DejaVuSerif-57" transform="translate(247.703125 0)"/>
       <use xlink:href="#DejaVuSerif-55" transform="translate(287.890625 0)"/>
       <use xlink:href="#DejaVuSerif-44" transform="translate(335.6875 0)"/>
       <use xlink:href="#DejaVuSerif-4f" transform="translate(395.3125 0)"/>
      </g>
     </g>
    </g>
    <g id="text_10">
     <!-- algorithm -->
     <g style="fill: #262626" transform="translate(363.631063 412.147776) scale(0.12 -0.12)">
      <use xlink:href="#DejaVuSerif-44"/>
      <use xlink:href="#DejaVuSerif-4f" transform="translate(59.625 0)"/>
      <use xlink:href="#DejaVuSerif-4a" transform="translate(91.609375 0)"/>
      <use xlink:href="#DejaVuSerif-52" transform="translate(155.625 0)"/>
      <use xlink:href="#DejaVuSerif-55" transform="translate(215.828125 0)"/>
      <use xlink:href="#DejaVuSerif-4c" transform="translate(263.625 0)"/>
      <use xlink:href="#DejaVuSerif-57" transform="translate(295.609375 0)"/>
      <use xlink:href="#DejaVuSerif-4b" transform="translate(335.796875 0)"/>
      <use xlink:href="#DejaVuSerif-50" transform="translate(400.203125 0)"/>
     </g>
    </g>
   </g>
   <g id="matplotlib.axis_2">
    <g id="ytick_1">
     <g id="line2d_10">
      <path d="M 54.248938 286.570513 
L 732.416938 286.570513 
" clip-path="url(#pe7a05f61f7)" style="fill: none; stroke: #cccccc; stroke-width: 0.8; stroke-linecap: round"/>
     </g>
     <g id="text_11">
      <!-- $\mathdefault{10^{-2}}$ -->
      <g style="fill: #262626" transform="translate(23.200938 291.120113) scale(0.0968 -0.0968)">
       <defs>
        <path id="DejaVuSerif-14" d="M 909 0 
L 909 331 
L 1722 331 
L 1722 4213 
L 781 3603 
L 781 4013 
L 1919 4750 
L 2350 4750 
L 2350 331 
L 3163 331 
L 3163 0 
L 909 0 
z
" transform="scale(0.015625)"/>
        <path id="DejaVuSerif-13" d="M 2034 219 
Q 2513 219 2750 744 
Q 2988 1269 2988 2328 
Q 2988 3391 2750 3916 
Q 2513 4441 2034 4441 
Q 1556 4441 1318 3916 
Q 1081 3391 1081 2328 
Q 1081 1269 1318 744 
Q 1556 219 2034 219 
z
M 2034 -91 
Q 1275 -91 848 546 
Q 422 1184 422 2328 
Q 422 3475 848 4112 
Q 1275 4750 2034 4750 
Q 2797 4750 3222 4112 
Q 3647 3475 3647 2328 
Q 3647 1184 3222 546 
Q 2797 -91 2034 -91 
z
" transform="scale(0.015625)"/>
        <path id="DejaVuSerif-8cf" d="M 678 2259 
L 4684 2259 
L 4684 1753 
L 678 1753 
L 678 2259 
z
" transform="scale(0.015625)"/>
        <path id="DejaVuSerif-15" d="M 819 3553 
L 469 3553 
L 469 4384 
Q 803 4563 1142 4656 
Q 1481 4750 1806 4750 
Q 2534 4750 2956 4397 
Q 3378 4044 3378 3438 
Q 3378 2753 2422 1800 
Q 2347 1728 2309 1691 
L 1131 513 
L 3078 513 
L 3078 1088 
L 3444 1088 
L 3444 0 
L 434 0 
L 434 341 
L 1850 1753 
Q 2319 2222 2519 2614 
Q 2719 3006 2719 3438 
Q 2719 3909 2473 4175 
Q 2228 4441 1797 4441 
Q 1350 4441 1106 4219 
Q 863 3997 819 3553 
z
" transform="scale(0.015625)"/>
       </defs>
       <use xlink:href="#DejaVuSerif-14" transform="translate(0 0.746875)"/>
       <use xlink:href="#DejaVuSerif-13" transform="translate(63.623047 0.746875)"/>
       <use xlink:href="#DejaVuSerif-8cf" transform="translate(128.203125 42.046875) scale(0.7)"/>
       <use xlink:href="#DejaVuSerif-15" transform="translate(186.855469 42.046875) scale(0.7)"/>
      </g>
     </g>
    </g>
    <g id="ytick_2">
     <g id="line2d_11">
      <path d="M 54.248938 234.744317 
L 732.416938 234.744317 
" clip-path="url(#pe7a05f61f7)" style="fill: none; stroke: #cccccc; stroke-width: 0.8; stroke-linecap: round"/>
     </g>
     <g id="text_12">
      <!-- $\mathdefault{10^{-1}}$ -->
      <g style="fill: #262626" transform="translate(23.200938 239.293917) scale(0.0968 -0.0968)">
       <use xlink:href="#DejaVuSerif-14" transform="translate(0 0.746875)"/>
       <use xlink:href="#DejaVuSerif-13" transform="translate(63.623047 0.746875)"/>
       <use xlink:href="#DejaVuSerif-8cf" transform="translate(128.203125 42.046875) scale(0.7)"/>
       <use xlink:href="#DejaVuSerif-14" transform="translate(186.855469 42.046875) scale(0.7)"/>
      </g>
     </g>
    </g>
    <g id="ytick_3">
     <g id="line2d_12">
      <path d="M 54.248938 182.918121 
L 732.416938 182.918121 
" clip-path="url(#pe7a05f61f7)" style="fill: none; stroke: #cccccc; stroke-width: 0.8; stroke-linecap: round"/>
     </g>
     <g id="text_13">
      <!-- $\mathdefault{10^{0}}$ -->
      <g style="fill: #262626" transform="translate(28.912138 187.467721) scale(0.0968 -0.0968)">
       <use xlink:href="#DejaVuSerif-14" transform="translate(0 0.746875)"/>
       <use xlink:href="#DejaVuSerif-13" transform="translate(63.623047 0.746875)"/>
       <use xlink:href="#DejaVuSerif-13" transform="translate(128.203125 42.046875) scale(0.7)"/>
      </g>
     </g>
    </g>
    <g id="ytick_4">
     <g id="line2d_13">
      <path d="M 54.248938 131.091925 
L 732.416938 131.091925 
" clip-path="url(#pe7a05f61f7)" style="fill: none; stroke: #cccccc; stroke-width: 0.8; stroke-linecap: round"/>
     </g>
     <g id="text_14">
      <!-- $\mathdefault{10^{1}}$ -->
      <g style="fill: #262626" transform="translate(28.912138 135.641525) scale(0.0968 -0.0968)">
       <use xlink:href="#DejaVuSerif-14" transform="translate(0 0.746875)"/>
       <use xlink:href="#DejaVuSerif-13" transform="translate(63.623047 0.746875)"/>
       <use xlink:href="#DejaVuSerif-14" transform="translate(128.203125 42.046875) scale(0.7)"/>
      </g>
     </g>
    </g>
    <g id="ytick_5">
     <g id="line2d_14">
      <path d="M 54.248938 79.265729 
L 732.416938 79.265729 
" clip-path="url(#pe7a05f61f7)" style="fill: none; stroke: #cccccc; stroke-width: 0.8; stroke-linecap: round"/>
     </g>
     <g id="text_15">
      <!-- $\mathdefault{10^{2}}$ -->
      <g style="fill: #262626" transform="translate(28.912138 83.815329) scale(0.0968 -0.0968)">
       <use xlink:href="#DejaVuSerif-14" transform="translate(0 0.746875)"/>
       <use xlink:href="#DejaVuSerif-13" transform="translate(63.623047 0.746875)"/>
       <use xlink:href="#DejaVuSerif-15" transform="translate(128.203125 42.046875) scale(0.7)"/>
      </g>
     </g>
    </g>
    <g id="ytick_6">
     <g id="line2d_15">
      <path d="M 54.248938 27.439533 
L 732.416938 27.439533 
" clip-path="url(#pe7a05f61f7)" style="fill: none; stroke: #cccccc; stroke-width: 0.8; stroke-linecap: round"/>
     </g>
     <g id="text_16">
      <!-- $\mathdefault{10^{3}}$ -->
      <g style="fill: #262626" transform="translate(28.912138 31.989133) scale(0.0968 -0.0968)">
       <defs>
        <path id="DejaVuSerif-16" d="M 622 4469 
Q 988 4606 1323 4678 
Q 1659 4750 1953 4750 
Q 2638 4750 3022 4454 
Q 3406 4159 3406 3634 
Q 3406 3213 3140 2930 
Q 2875 2647 2388 2547 
Q 2963 2466 3280 2130 
Q 3597 1794 3597 1259 
Q 3597 606 3158 257 
Q 2719 -91 1894 -91 
Q 1528 -91 1179 -12 
Q 831 66 488 225 
L 488 1131 
L 838 1131 
Q 869 681 1141 450 
Q 1413 219 1906 219 
Q 2384 219 2661 495 
Q 2938 772 2938 1253 
Q 2938 1803 2653 2086 
Q 2369 2369 1819 2369 
L 1522 2369 
L 1522 2688 
L 1678 2688 
Q 2225 2688 2498 2914 
Q 2772 3141 2772 3597 
Q 2772 4006 2547 4223 
Q 2322 4441 1900 4441 
Q 1478 4441 1245 4241 
Q 1013 4041 972 3647 
L 622 3647 
L 622 4469 
z
" transform="scale(0.015625)"/>
       </defs>
       <use xlink:href="#DejaVuSerif-14" transform="translate(0 0.746875)"/>
       <use xlink:href="#DejaVuSerif-13" transform="translate(63.623047 0.746875)"/>
       <use xlink:href="#DejaVuSerif-16" transform="translate(128.203125 42.046875) scale(0.7)"/>
      </g>
     </g>
    </g>
    <g id="ytick_7"/>
    <g id="ytick_8"/>
    <g id="ytick_9"/>
    <g id="ytick_10"/>
    <g id="ytick_11"/>
    <g id="ytick_12"/>
    <g id="ytick_13"/>
    <g id="ytick_14"/>
    <g id="ytick_15"/>
    <g id="ytick_16"/>
    <g id="ytick_17"/>
    <g id="ytick_18"/>
    <g id="ytick_19"/>
    <g id="ytick_20"/>
    <g id="ytick_21"/>
    <g id="ytick_22"/>
    <g id="ytick_23"/>
    <g id="ytick_24"/>
    <g id="ytick_25"/>
    <g id="ytick_26"/>
    <g id="ytick_27"/>
    <g id="ytick_28"/>
    <g id="ytick_29"/>
    <g id="ytick_30"/>
    <g id="ytick_31"/>
    <g id="ytick_32"/>
    <g id="ytick_33"/>
    <g id="ytick_34"/>
    <g id="ytick_35"/>
    <g id="ytick_36"/>
    <g id="ytick_37"/>
    <g id="ytick_38"/>
    <g id="ytick_39"/>
    <g id="ytick_40"/>
    <g id="ytick_41"/>
    <g id="ytick_42"/>
    <g id="ytick_43"/>
    <g id="ytick_44"/>
    <g id="ytick_45"/>
    <g id="ytick_46"/>
    <g id="ytick_47"/>
    <g id="ytick_48"/>
    <g id="ytick_49"/>
    <g id="ytick_50"/>
    <g id="ytick_51"/>
    <g id="ytick_52"/>
    <g id="ytick_53"/>
    <g id="ytick_54"/>
    <g id="text_17">
     <!-- Execution Time (s) -->
     <g style="fill: #262626" transform="translate(16.318125 237.520326) rotate(-90) scale(0.12 -0.12)">
      <defs>
       <path id="DejaVuSerif-3" transform="scale(0.015625)"/>
       <path id="DejaVuSerif-37" d="M 1222 0 
L 1222 331 
L 1819 331 
L 1819 4294 
L 447 4294 
L 447 3566 
L 63 3566 
L 63 4666 
L 4206 4666 
L 4206 3566 
L 3822 3566 
L 3822 4294 
L 2450 4294 
L 2450 331 
L 3047 331 
L 3047 0 
L 1222 0 
z
" transform="scale(0.015625)"/>
       <path id="DejaVuSerif-b" d="M 2041 -997 
Q 1281 -656 893 83 
Q 506 822 506 1931 
Q 506 3044 893 3783 
Q 1281 4522 2041 4863 
L 2041 4556 
Q 1559 4225 1350 3623 
Q 1141 3022 1141 1931 
Q 1141 844 1350 242 
Q 1559 -359 2041 -691 
L 2041 -997 
z
" transform="scale(0.015625)"/>
       <path id="DejaVuSerif-c" d="M 453 -997 
L 453 -691 
Q 934 -359 1145 242 
Q 1356 844 1356 1931 
Q 1356 3022 1145 3623 
Q 934 4225 453 4556 
L 453 4863 
Q 1216 4522 1603 3783 
Q 1991 3044 1991 1931 
Q 1991 822 1603 83 
Q 1216 -656 453 -997 
z
" transform="scale(0.015625)"/>
      </defs>
      <use xlink:href="#DejaVuSerif-28"/>
      <use xlink:href="#DejaVuSerif-5b" transform="translate(73 0)"/>
      <use xlink:href="#DejaVuSerif-48" transform="translate(129.390625 0)"/>
      <use xlink:href="#DejaVuSerif-46" transform="translate(188.578125 0)"/>
      <use xlink:href="#DejaVuSerif-58" transform="translate(244.578125 0)"/>
      <use xlink:href="#DejaVuSerif-57" transform="translate(308.984375 0)"/>
      <use xlink:href="#DejaVuSerif-4c" transform="translate(349.171875 0)"/>
      <use xlink:href="#DejaVuSerif-52" transform="translate(381.15625 0)"/>
      <use xlink:href="#DejaVuSerif-51" transform="translate(441.359375 0)"/>
      <use xlink:href="#DejaVuSerif-3" transform="translate(505.765625 0)"/>
      <use xlink:href="#DejaVuSerif-37" transform="translate(537.546875 0)"/>
      <use xlink:href="#DejaVuSerif-4c" transform="translate(604.25 0)"/>
      <use xlink:href="#DejaVuSerif-50" transform="translate(636.234375 0)"/>
      <use xlink:href="#DejaVuSerif-48" transform="translate(731.0625 0)"/>
      <use xlink:href="#DejaVuSerif-3" transform="translate(790.25 0)"/>
      <use xlink:href="#DejaVuSerif-b" transform="translate(822.03125 0)"/>
      <use xlink:href="#DejaVuSerif-56" transform="translate(861.046875 0)"/>
      <use xlink:href="#DejaVuSerif-c" transform="translate(912.359375 0)"/>
     </g>
    </g>
   </g>
   <g id="patch_3">
    <path d="M 72.47926 52009.114247 
L 87.063518 52009.114247 
L 87.063518 165.405342 
L 72.47926 165.405342 
z
" clip-path="url(#pe7a05f61f7)" style="fill: #4c72b0; stroke: #000000; stroke-width: 0.5; stroke-linejoin: miter"/>
   </g>
   <g id="patch_4">
    <path d="M 145.40055 52009.114247 
L 159.984808 52009.114247 
L 159.984808 291.554408 
L 145.40055 291.554408 
z
" clip-path="url(#pe7a05f61f7)" style="fill: #4c72b0; stroke: #000000; stroke-width: 0.5; stroke-linejoin: miter"/>
   </g>
   <g id="patch_5">
    <path d="M 218.321841 52009.114247 
L 232.906099 52009.114247 
L 232.906099 277.970123 
L 218.321841 277.970123 
z
" clip-path="url(#pe7a05f61f7)" style="fill: #4c72b0; stroke: #000000; stroke-width: 0.5; stroke-linejoin: miter"/>
   </g>
   <g id="patch_6">
    <path d="M 291.243131 52009.114247 
L 305.827389 52009.114247 
L 305.827389 300.76004 
L 291.243131 300.76004 
z
" clip-path="url(#pe7a05f61f7)" style="fill: #4c72b0; stroke: #000000; stroke-width: 0.5; stroke-linejoin: miter"/>
   </g>
   <g id="patch_7">
    <path d="M 364.164421 52009.114247 
L 378.748679 52009.114247 
L 378.748679 298.100153 
L 364.164421 298.100153 
z
" clip-path="url(#pe7a05f61f7)" style="fill: #4c72b0; stroke: #000000; stroke-width: 0.5; stroke-linejoin: miter"/>
   </g>
   <g id="patch_8">
    <path d="M 437.085712 52009.114247 
L 451.66997 52009.114247 
L 451.66997 260.503272 
L 437.085712 260.503272 
z
" clip-path="url(#pe7a05f61f7)" style="fill: #4c72b0; stroke: #000000; stroke-width: 0.5; stroke-linejoin: miter"/>
   </g>
   <g id="patch_9">
    <path d="M 510.007002 52009.114247 
L 524.59126 52009.114247 
L 524.59126 307.123528 
L 510.007002 307.123528 
z
" clip-path="url(#pe7a05f61f7)" style="fill: #4c72b0; stroke: #000000; stroke-width: 0.5; stroke-linejoin: miter"/>
   </g>
   <g id="patch_10">
    <path d="M 582.928292 52009.114247 
L 597.51255 52009.114247 
L 597.51255 254.36857 
L 582.928292 254.36857 
z
" clip-path="url(#pe7a05f61f7)" style="fill: #4c72b0; stroke: #000000; stroke-width: 0.5; stroke-linejoin: miter"/>
   </g>
   <g id="patch_11">
    <path d="M 655.849583 52009.114247 
L 670.433841 52009.114247 
L 670.433841 117.12452 
L 655.849583 117.12452 
z
" clip-path="url(#pe7a05f61f7)" style="fill: #4c72b0; stroke: #000000; stroke-width: 0.5; stroke-linejoin: miter"/>
   </g>
   <g id="patch_12">
    <path d="M 87.063518 52009.114247 
L 101.647776 52009.114247 
L 101.647776 156.679017 
L 87.063518 156.679017 
z
" clip-path="url(#pe7a05f61f7)" style="fill: #dd8452; stroke: #000000; stroke-width: 0.5; stroke-linejoin: miter"/>
   </g>
   <g id="patch_13">
    <path d="M 159.984808 52009.114247 
L 174.569067 52009.114247 
L 174.569067 227.606639 
L 159.984808 227.606639 
z
" clip-path="url(#pe7a05f61f7)" style="fill: #dd8452; stroke: #000000; stroke-width: 0.5; stroke-linejoin: miter"/>
   </g>
   <g id="patch_14">
    <path d="M 232.906099 52009.114247 
L 247.490357 52009.114247 
L 247.490357 274.732321 
L 232.906099 274.732321 
z
" clip-path="url(#pe7a05f61f7)" style="fill: #dd8452; stroke: #000000; stroke-width: 0.5; stroke-linejoin: miter"/>
   </g>
   <g id="patch_15">
    <path d="M 305.827389 52009.114247 
L 320.411647 52009.114247 
L 320.411647 229.697512 
L 305.827389 229.697512 
z
" clip-path="url(#pe7a05f61f7)" style="fill: #dd8452; stroke: #000000; stroke-width: 0.5; stroke-linejoin: miter"/>
   </g>
   <g id="patch_16">
    <path d="M 378.748679 52009.114247 
L 393.332937 52009.114247 
L 393.332937 251.553834 
L 378.748679 251.553834 
z
" clip-path="url(#pe7a05f61f7)" style="fill: #dd8452; stroke: #000000; stroke-width: 0.5; stroke-linejoin: miter"/>
   </g>
   <g id="patch_17">
    <path d="M 451.66997 52009.114247 
L 466.254228 52009.114247 
L 466.254228 202.633119 
L 451.66997 202.633119 
z
" clip-path="url(#pe7a05f61f7)" style="fill: #dd8452; stroke: #000000; stroke-width: 0.5; stroke-linejoin: miter"/>
   </g>
   <g id="patch_18">
    <path d="M 524.59126 52009.114247 
L 539.175518 52009.114247 
L 539.175518 298.0304 
L 524.59126 298.0304 
z
" clip-path="url(#pe7a05f61f7)" style="fill: #dd8452; stroke: #000000; stroke-width: 0.5; stroke-linejoin: miter"/>
   </g>
   <g id="patch_19">
    <path d="M 597.51255 52009.114247 
L 612.096808 52009.114247 
L 612.096808 270.557467 
L 597.51255 270.557467 
z
" clip-path="url(#pe7a05f61f7)" style="fill: #dd8452; stroke: #000000; stroke-width: 0.5; stroke-linejoin: miter"/>
   </g>
   <g id="patch_20">
    <path d="M 670.433841 52009.114247 
L 685.018099 52009.114247 
L 685.018099 38.073183 
L 670.433841 38.073183 
z
" clip-path="url(#pe7a05f61f7)" style="fill: #dd8452; stroke: #000000; stroke-width: 0.5; stroke-linejoin: miter"/>
   </g>
   <g id="patch_21">
    <path d="M 101.647776 52009.114247 
L 116.232034 52009.114247 
L 116.232034 182.543217 
L 101.647776 182.543217 
z
" clip-path="url(#pe7a05f61f7)" style="fill: #55a868; stroke: #000000; stroke-width: 0.5; stroke-linejoin: miter"/>
   </g>
   <g id="patch_22">
    <path d="M 174.569067 52009.114247 
L 189.153325 52009.114247 
L 189.153325 322.700708 
L 174.569067 322.700708 
z
" clip-path="url(#pe7a05f61f7)" style="fill: #55a868; stroke: #000000; stroke-width: 0.5; stroke-linejoin: miter"/>
   </g>
   <g id="patch_23">
    <path d="M 247.490357 52009.114247 
L 262.074615 52009.114247 
L 262.074615 314.000732 
L 247.490357 314.000732 
z
" clip-path="url(#pe7a05f61f7)" style="fill: #55a868; stroke: #000000; stroke-width: 0.5; stroke-linejoin: miter"/>
   </g>
   <g id="patch_24">
    <path d="M 320.411647 52009.114247 
L 334.995905 52009.114247 
L 334.995905 308.237944 
L 320.411647 308.237944 
z
" clip-path="url(#pe7a05f61f7)" style="fill: #55a868; stroke: #000000; stroke-width: 0.5; stroke-linejoin: miter"/>
   </g>
   <g id="patch_25">
    <path d="M 393.332937 52009.114247 
L 407.917196 52009.114247 
L 407.917196 310.129412 
L 393.332937 310.129412 
z
" clip-path="url(#pe7a05f61f7)" style="fill: #55a868; stroke: #000000; stroke-width: 0.5; stroke-linejoin: miter"/>
   </g>
   <g id="patch_26">
    <path d="M 466.254228 52009.114247 
L 480.838486 52009.114247 
L 480.838486 268.421943 
L 466.254228 268.421943 
z
" clip-path="url(#pe7a05f61f7)" style="fill: #55a868; stroke: #000000; stroke-width: 0.5; stroke-linejoin: miter"/>
   </g>
   <g id="patch_27">
    <path d="M 539.175518 52009.114247 
L 553.759776 52009.114247 
L 553.759776 172.361594 
L 539.175518 172.361594 
z
" clip-path="url(#pe7a05f61f7)" style="fill: #55a868; stroke: #000000; stroke-width: 0.5; stroke-linejoin: miter"/>
   </g>
   <g id="patch_28">
    <path d="M 612.096808 52009.114247 
L 626.681067 52009.114247 
L 626.681067 269.372848 
L 612.096808 269.372848 
z
" clip-path="url(#pe7a05f61f7)" style="fill: #55a868; stroke: #000000; stroke-width: 0.5; stroke-linejoin: miter"/>
   </g>
   <g id="patch_29">
    <path d="M 685.018099 52009.114247 
L 699.602357 52009.114247 
L 699.602357 260.126225 
L 685.018099 260.126225 
z
" clip-path="url(#pe7a05f61f7)" style="fill: #55a868; stroke: #000000; stroke-width: 0.5; stroke-linejoin: miter"/>
   </g>
   <g id="patch_30">
    <path d="M 116.232034 52009.114247 
L 130.816292 52009.114247 
L 130.816292 181.58289 
L 116.232034 181.58289 
z
" clip-path="url(#pe7a05f61f7)" style="fill: #c44e52; stroke: #000000; stroke-width: 0.5; stroke-linejoin: miter"/>
   </g>
   <g id="patch_31">
    <path d="M 189.153325 52009.114247 
L 203.737583 52009.114247 
L 203.737583 322.751531 
L 189.153325 322.751531 
z
" clip-path="url(#pe7a05f61f7)" style="fill: #c44e52; stroke: #000000; stroke-width: 0.5; stroke-linejoin: miter"/>
   </g>
   <g id="patch_32">
    <path d="M 262.074615 52009.114247 
L 276.658873 52009.114247 
L 276.658873 310.981393 
L 262.074615 310.981393 
z
" clip-path="url(#pe7a05f61f7)" style="fill: #c44e52; stroke: #000000; stroke-width: 0.5; stroke-linejoin: miter"/>
   </g>
   <g id="patch_33">
    <path d="M 334.995905 52009.114247 
L 349.580163 52009.114247 
L 349.580163 307.197203 
L 334.995905 307.197203 
z
" clip-path="url(#pe7a05f61f7)" style="fill: #c44e52; stroke: #000000; stroke-width: 0.5; stroke-linejoin: miter"/>
   </g>
   <g id="patch_34">
    <path d="M 407.917196 52009.114247 
L 422.501454 52009.114247 
L 422.501454 301.098235 
L 407.917196 301.098235 
z
" clip-path="url(#pe7a05f61f7)" style="fill: #c44e52; stroke: #000000; stroke-width: 0.5; stroke-linejoin: miter"/>
   </g>
   <g id="patch_35">
    <path d="M 480.838486 52009.114247 
L 495.422744 52009.114247 
L 495.422744 269.453473 
L 480.838486 269.453473 
z
" clip-path="url(#pe7a05f61f7)" style="fill: #c44e52; stroke: #000000; stroke-width: 0.5; stroke-linejoin: miter"/>
   </g>
   <g id="patch_36">
    <path d="M 553.759776 52009.114247 
L 568.344034 52009.114247 
L 568.344034 322.802469 
L 553.759776 322.802469 
z
" clip-path="url(#pe7a05f61f7)" style="fill: #c44e52; stroke: #000000; stroke-width: 0.5; stroke-linejoin: miter"/>
   </g>
   <g id="patch_37">
    <path d="M 626.681067 52009.114247 
L 641.265325 52009.114247 
L 641.265325 255.255912 
L 626.681067 255.255912 
z
" clip-path="url(#pe7a05f61f7)" style="fill: #c44e52; stroke: #000000; stroke-width: 0.5; stroke-linejoin: miter"/>
   </g>
   <g id="patch_38">
    <path d="M 699.602357 52009.114247 
L 714.186615 52009.114247 
L 714.186615 260.085655 
L 699.602357 260.085655 
z
" clip-path="url(#pe7a05f61f7)" style="fill: #c44e52; stroke: #000000; stroke-width: 0.5; stroke-linejoin: miter"/>
   </g>
   <g id="patch_39">
    <path d="M 54.248938 337.038933 
L 54.248938 23.836719 
" style="fill: none; stroke: #cccccc; stroke-linejoin: miter; stroke-linecap: square"/>
   </g>
   <g id="patch_40">
    <path d="M 732.416938 337.038933 
L 732.416938 23.836719 
" style="fill: none; stroke: #cccccc; stroke-linejoin: miter; stroke-linecap: square"/>
   </g>
   <g id="patch_41">
    <path d="M 54.248938 337.038933 
L 732.416937 337.038933 
" style="fill: none; stroke: #cccccc; stroke-linejoin: miter; stroke-linecap: square"/>
   </g>
   <g id="patch_42">
    <path d="M 54.248938 23.836719 
L 732.416937 23.836719 
" style="fill: none; stroke: #cccccc; stroke-linejoin: miter; stroke-linecap: square"/>
   </g>
   <g id="text_18">
    <!-- Execution Time Comparison -->
    <g style="fill: #262626" transform="translate(293.028406 17.836719) scale(0.14 -0.14)">
     <use xlink:href="#DejaVuSerif-28"/>
     <use xlink:href="#DejaVuSerif-5b" transform="translate(73 0)"/>
     <use xlink:href="#DejaVuSerif-48" transform="translate(129.390625 0)"/>
     <use xlink:href="#DejaVuSerif-46" transform="translate(188.578125 0)"/>
     <use xlink:href="#DejaVuSerif-58" transform="translate(244.578125 0)"/>
     <use xlink:href="#DejaVuSerif-57" transform="translate(308.984375 0)"/>
     <use xlink:href="#DejaVuSerif-4c" transform="translate(349.171875 0)"/>
     <use xlink:href="#DejaVuSerif-52" transform="translate(381.15625 0)"/>
     <use xlink:href="#DejaVuSerif-51" transform="translate(441.359375 0)"/>
     <use xlink:href="#DejaVuSerif-3" transform="translate(505.765625 0)"/>
     <use xlink:href="#DejaVuSerif-37" transform="translate(537.546875 0)"/>
     <use xlink:href="#DejaVuSerif-4c" transform="translate(604.25 0)"/>
     <use xlink:href="#DejaVuSerif-50" transform="translate(636.234375 0)"/>
     <use xlink:href="#DejaVuSerif-48" transform="translate(731.0625 0)"/>
     <use xlink:href="#DejaVuSerif-3" transform="translate(790.25 0)"/>
     <use xlink:href="#DejaVuSerif-26" transform="translate(822.03125 0)"/>
     <use xlink:href="#DejaVuSerif-52" transform="translate(898.546875 0)"/>
     <use xlink:href="#DejaVuSerif-50" transform="translate(958.75 0)"/>
     <use xlink:href="#DejaVuSerif-53" transform="translate(1053.578125 0)"/>
     <use xlink:href="#DejaVuSerif-44" transform="translate(1117.59375 0)"/>
     <use xlink:href="#DejaVuSerif-55" transform="translate(1177.21875 0)"/>
     <use xlink:href="#DejaVuSerif-4c" transform="translate(1225.015625 0)"/>
     <use xlink:href="#DejaVuSerif-56" transform="translate(1257 0)"/>
     <use xlink:href="#DejaVuSerif-52" transform="translate(1308.3125 0)"/>
     <use xlink:href="#DejaVuSerif-51" transform="translate(1368.515625 0)"/>
    </g>
   </g>
   <g id="legend_1">
    <g id="patch_43">
     <path d="M 752.280297 85.039531 
L 845.442954 85.039531 
Q 847.242954 85.039531 847.242954 83.239531 
L 847.242954 30.136719 
Q 847.242954 28.336719 845.442954 28.336719 
L 752.280297 28.336719 
Q 750.480298 28.336719 750.480298 30.136719 
L 750.480298 83.239531 
Q 750.480298 85.039531 752.280297 85.039531 
z
" style="fill: #ffffff; opacity: 0.8; stroke: #cccccc; stroke-width: 0.8; stroke-linejoin: miter"/>
    </g>
    <g id="patch_44">
     <path d="M 754.080298 38.775312 
L 772.080298 38.775312 
L 772.080298 32.475312 
L 754.080298 32.475312 
z
" style="fill: #4c72b0; stroke: #000000; stroke-width: 0.5; stroke-linejoin: miter"/>
    </g>
    <g id="text_19">
     <!-- breast_cancer -->
     <g style="fill: #262626" transform="translate(779.280298 38.775312) scale(0.09 -0.09)">
      <defs>
       <path id="DejaVuSerif-45" d="M 738 331 
L 738 4531 
L 184 4531 
L 184 4863 
L 1313 4863 
L 1313 2803 
Q 1481 3116 1742 3264 
Q 2003 3413 2388 3413 
Q 3000 3413 3387 2928 
Q 3775 2444 3775 1663 
Q 3775 881 3387 395 
Q 3000 -91 2388 -91 
Q 2003 -91 1742 57 
Q 1481 206 1313 519 
L 1313 0 
L 184 0 
L 184 331 
L 738 331 
z
M 1313 1497 
Q 1313 897 1542 583 
Q 1772 269 2209 269 
Q 2650 269 2876 622 
Q 3103 975 3103 1663 
Q 3103 2353 2876 2703 
Q 2650 3053 2209 3053 
Q 1772 3053 1542 2737 
Q 1313 2422 1313 1825 
L 1313 1497 
z
" transform="scale(0.015625)"/>
       <path id="DejaVuSerif-42" d="M 3200 -1259 
L 3200 -1509 
L 0 -1509 
L 0 -1259 
L 3200 -1259 
z
" transform="scale(0.015625)"/>
      </defs>
      <use xlink:href="#DejaVuSerif-45"/>
      <use xlink:href="#DejaVuSerif-55" transform="translate(64.015625 0)"/>
      <use xlink:href="#DejaVuSerif-48" transform="translate(111.8125 0)"/>
      <use xlink:href="#DejaVuSerif-44" transform="translate(171 0)"/>
      <use xlink:href="#DejaVuSerif-56" transform="translate(230.625 0)"/>
      <use xlink:href="#DejaVuSerif-57" transform="translate(281.9375 0)"/>
      <use xlink:href="#DejaVuSerif-42" transform="translate(322.125 0)"/>
      <use xlink:href="#DejaVuSerif-46" transform="translate(372.125 0)"/>
      <use xlink:href="#DejaVuSerif-44" transform="translate(428.125 0)"/>
      <use xlink:href="#DejaVuSerif-51" transform="translate(487.75 0)"/>
      <use xlink:href="#DejaVuSerif-46" transform="translate(552.15625 0)"/>
      <use xlink:href="#DejaVuSerif-48" transform="translate(608.15625 0)"/>
      <use xlink:href="#DejaVuSerif-55" transform="translate(667.34375 0)"/>
     </g>
    </g>
    <g id="patch_45">
     <path d="M 754.080298 52.276016 
L 772.080298 52.276016 
L 772.080298 45.976016 
L 754.080298 45.976016 
z
" style="fill: #dd8452; stroke: #000000; stroke-width: 0.5; stroke-linejoin: miter"/>
    </g>
    <g id="text_20">
     <!-- digits -->
     <g style="fill: #262626" transform="translate(779.280298 52.276016) scale(0.09 -0.09)">
      <defs>
       <path id="DejaVuSerif-47" d="M 3359 331 
L 3909 331 
L 3909 0 
L 2784 0 
L 2784 519 
Q 2616 206 2355 57 
Q 2094 -91 1709 -91 
Q 1097 -91 708 395 
Q 319 881 319 1663 
Q 319 2444 706 2928 
Q 1094 3413 1709 3413 
Q 2094 3413 2355 3264 
Q 2616 3116 2784 2803 
L 2784 4531 
L 2241 4531 
L 2241 4863 
L 3359 4863 
L 3359 331 
z
M 2784 1497 
L 2784 1825 
Q 2784 2422 2554 2737 
Q 2325 3053 1888 3053 
Q 1444 3053 1217 2703 
Q 991 2353 991 1663 
Q 991 975 1217 622 
Q 1444 269 1888 269 
Q 2325 269 2554 583 
Q 2784 897 2784 1497 
z
" transform="scale(0.015625)"/>
      </defs>
      <use xlink:href="#DejaVuSerif-47"/>
      <use xlink:href="#DejaVuSerif-4c" transform="translate(64.015625 0)"/>
      <use xlink:href="#DejaVuSerif-4a" transform="translate(96 0)"/>
      <use xlink:href="#DejaVuSerif-4c" transform="translate(160.015625 0)"/>
      <use xlink:href="#DejaVuSerif-57" transform="translate(192 0)"/>
      <use xlink:href="#DejaVuSerif-56" transform="translate(232.1875 0)"/>
     </g>
    </g>
    <g id="patch_46">
     <path d="M 754.080298 65.776719 
L 772.080298 65.776719 
L 772.080298 59.476719 
L 754.080298 59.476719 
z
" style="fill: #55a868; stroke: #000000; stroke-width: 0.5; stroke-linejoin: miter"/>
    </g>
    <g id="text_21">
     <!-- iris -->
     <g style="fill: #262626" transform="translate(779.280298 65.776719) scale(0.09 -0.09)">
      <use xlink:href="#DejaVuSerif-4c"/>
      <use xlink:href="#DejaVuSerif-55" transform="translate(31.984375 0)"/>
      <use xlink:href="#DejaVuSerif-4c" transform="translate(79.78125 0)"/>
      <use xlink:href="#DejaVuSerif-56" transform="translate(111.765625 0)"/>
     </g>
    </g>
    <g id="patch_47">
     <path d="M 754.080298 79.277422 
L 772.080298 79.277422 
L 772.080298 72.977422 
L 754.080298 72.977422 
z
" style="fill: #c44e52; stroke: #000000; stroke-width: 0.5; stroke-linejoin: miter"/>
    </g>
    <g id="text_22">
     <!-- wine -->
     <g style="fill: #262626" transform="translate(779.280298 79.277422) scale(0.09 -0.09)">
      <defs>
       <path id="DejaVuSerif-5a" d="M 3072 3322 
L 3922 728 
L 4672 2988 
L 4191 2988 
L 4191 3322 
L 5394 3322 
L 5394 2988 
L 5025 2988 
L 4038 0 
L 3559 0 
L 2741 2484 
L 1919 0 
L 1459 0 
L 475 2988 
L 103 2988 
L 103 3322 
L 1606 3322 
L 1606 2988 
L 1069 2988 
L 1813 728 
L 2669 3322 
L 3072 3322 
z
" transform="scale(0.015625)"/>
      </defs>
      <use xlink:href="#DejaVuSerif-5a"/>
      <use xlink:href="#DejaVuSerif-4c" transform="translate(85.59375 0)"/>
      <use xlink:href="#DejaVuSerif-51" transform="translate(117.578125 0)"/>
      <use xlink:href="#DejaVuSerif-48" transform="translate(181.984375 0)"/>
     </g>
    </g>
   </g>
  </g>
 </g>
 <defs>
  <clipPath id="pe7a05f61f7">
   <rect x="54.248938" y="23.836719" width="678.168" height="313.202214"/>
  </clipPath>
 </defs>
</svg>
