<?xml version="1.0" encoding="utf-8" standalone="no"?>
<!DOCTYPE svg PUBLIC "-//W3C//DTD SVG 1.1//EN"
  "http://www.w3.org/Graphics/SVG/1.1/DTD/svg11.dtd">
<svg xmlns:xlink="http://www.w3.org/1999/xlink" width="690.467906pt" height="545.420212pt" viewBox="0 0 690.467906 545.420212" xmlns="http://www.w3.org/2000/svg" version="1.1">
 <metadata>
  <rdf:RDF xmlns:dc="http://purl.org/dc/elements/1.1/" xmlns:cc="http://creativecommons.org/ns#" xmlns:rdf="http://www.w3.org/1999/02/22-rdf-syntax-ns#">
   <cc:Work>
    <dc:type rdf:resource="http://purl.org/dc/dcmitype/StillImage"/>
    <dc:date>2026-06-24T22:38:20.426985</dc:date>
    <dc:format>image/svg+xml</dc:format>
    <dc:creator>
     <cc:Agent>
      <dc:title>Matplotlib v3.11.0, https://matplotlib.org/</dc:title>
     </cc:Agent>
    </dc:creator>
   </cc:Work>
  </rdf:RDF>
 </metadata>
 <defs>
  <style type="text/css">*{stroke-linejoin: round; stroke-linecap: butt}</style>
 </defs>
 <g id="figure_1">
  <g id="patch_1">
   <path d="M 0 545.420212 
L 690.467906 545.420212 
L 690.467906 0 
L 0 0 
z
" style="fill: #ffffff"/>
  </g>
  <g id="axes_1">
   <g id="patch_2">
    <path d="M 544.883906 300.080212 
C 544.883906 268.807954 538.723953 237.839779 526.756578 208.94798 
C 514.789203 180.056181 497.247141 153.80263 475.134315 131.689804 
C 453.021489 109.576978 426.767938 92.034916 397.876139 80.067541 
C 368.984339 68.100165 338.016165 61.940212 306.743906 61.940212 
C 275.471648 61.940212 244.503473 68.100165 215.611674 80.067541 
C 186.719874 92.034916 160.466323 109.576978 138.353497 131.689804 
C 116.240671 153.80263 98.69861 180.056181 86.731234 208.94798 
C 74.763859 237.839779 68.603906 268.807954 68.603906 300.080212 
C 68.603906 331.352471 74.763859 362.320646 86.731234 391.212445 
C 98.69861 420.104244 116.240671 446.357795 138.353497 468.470621 
C 160.466323 490.583447 186.719874 508.125509 215.611674 520.092884 
C 244.503473 532.06026 275.471648 538.220212 306.743906 538.220212 
C 338.016165 538.220212 368.984339 532.06026 397.876139 520.092884 
C 426.767938 508.125509 453.021489 490.583447 475.134315 468.470621 
C 497.247141 446.357795 514.789203 420.104244 526.756578 391.212445 
C 538.723953 362.320646 544.883906 331.352471 544.883906 300.080212 
M 306.743906 300.080212 
C 306.743906 300.080212 306.743906 300.080212 306.743906 300.080212 
C 306.743906 300.080212 306.743906 300.080212 306.743906 300.080212 
C 306.743906 300.080212 306.743906 300.080212 306.743906 300.080212 
C 306.743906 300.080212 306.743906 300.080212 306.743906 300.080212 
C 306.743906 300.080212 306.743906 300.080212 306.743906 300.080212 
C 306.743906 300.080212 306.743906 300.080212 306.743906 300.080212 
C 306.743906 300.080212 306.743906 300.080212 306.743906 300.080212 
C 306.743906 300.080212 306.743906 300.080212 306.743906 300.080212 
C 306.743906 300.080212 306.743906 300.080212 306.743906 300.080212 
C 306.743906 300.080212 306.743906 300.080212 306.743906 300.080212 
C 306.743906 300.080212 306.743906 300.080212 306.743906 300.080212 
C 306.743906 300.080212 306.743906 300.080212 306.743906 300.080212 
C 306.743906 300.080212 306.743906 300.080212 306.743906 300.080212 
C 306.743906 300.080212 306.743906 300.080212 306.743906 300.080212 
C 306.743906 300.080212 306.743906 300.080212 306.743906 300.080212 
C 306.743906 300.080212 306.743906 300.080212 306.743906 300.080212 
z
" style="fill: #ffffff"/>
   </g>
   <g id="matplotlib.axis_1">
    <g id="xtick_1">
     <g id="line2d_1">
      <path d="M 306.743906 300.080212 
L 544.883906 300.080212 
" clip-path="url(#p06e167c173)" style="fill: none; stroke: #cccccc; stroke-width: 0.8; stroke-linecap: round"/>
     </g>
     <g id="text_1">
      <!-- Silhouette -->
      <g style="fill: #262626" transform="translate(534.172188 302.678259) scale(0.1 -0.1)">
       <defs>
        <path id="DejaVuSerif-36" d="M 594 225 
L 594 1288 
L 953 1284 
Q 969 753 1261 498 
Q 1553 244 2150 244 
Q 2706 244 2998 464 
Q 3291 684 3291 1106 
Q 3291 1444 3114 1625 
Q 2938 1806 2369 1978 
L 1753 2163 
Q 1084 2366 811 2669 
Q 538 2972 538 3500 
Q 538 4094 959 4422 
Q 1381 4750 2144 4750 
Q 2469 4750 2856 4679 
Q 3244 4609 3681 4475 
L 3681 3481 
L 3328 3481 
Q 3275 3975 2998 4195 
Q 2722 4416 2156 4416 
Q 1663 4416 1405 4214 
Q 1147 4013 1147 3628 
Q 1147 3294 1340 3103 
Q 1534 2913 2163 2725 
L 2741 2553 
Q 3375 2363 3645 2067 
Q 3916 1772 3916 1275 
Q 3916 597 3481 253 
Q 3047 -91 2188 -91 
Q 1803 -91 1404 -12 
Q 1006 66 594 225 
z
" transform="scale(0.015625)"/>
        <path id="DejaVuSerif-4c" d="M 622 4353 
Q 622 4497 726 4603 
Q 831 4709 978 4709 
Q 1122 4709 1226 4603 
Q 1331 4497 1331 4353 
Q 1331 4206 1228 4103 
Q 1125 4000 978 4000 
Q 831 4000 726 4103 
Q 622 4206 622 4353 
z
M 1356 331 
L 1900 331 
L 1900 0 
L 231 0 
L 231 331 
L 781 331 
L 781 2988 
L 231 2988 
L 231 3322 
L 1356 3322 
L 1356 331 
z
" transform="scale(0.015625)"/>
        <path id="DejaVuSerif-4f" d="M 1313 331 
L 1856 331 
L 1856 0 
L 184 0 
L 184 331 
L 738 331 
L 738 4531 
L 184 4531 
L 184 4863 
L 1313 4863 
L 1313 331 
z
" transform="scale(0.015625)"/>
        <path id="DejaVuSerif-4b" d="M 263 0 
L 263 331 
L 781 331 
L 781 4531 
L 231 4531 
L 231 4863 
L 1356 4863 
L 1356 2731 
Q 1516 3069 1770 3241 
Q 2025 3413 2363 3413 
Q 2913 3413 3172 3097 
Q 3431 2781 3431 2113 
L 3431 331 
L 3944 331 
L 3944 0 
L 2356 0 
L 2356 331 
L 2853 331 
L 2853 1931 
Q 2853 2541 2704 2764 
Q 2556 2988 2175 2988 
Q 1775 2988 1565 2697 
Q 1356 2406 1356 1850 
L 1356 331 
L 1856 331 
L 1856 0 
L 263 0 
z
" transform="scale(0.015625)"/>
        <path id="DejaVuSerif-52" d="M 1925 219 
Q 2388 219 2623 584 
Q 2859 950 2859 1663 
Q 2859 2375 2623 2739 
Q 2388 3103 1925 3103 
Q 1463 3103 1227 2739 
Q 991 2375 991 1663 
Q 991 950 1228 584 
Q 1466 219 1925 219 
z
M 1925 -91 
Q 1200 -91 759 389 
Q 319 869 319 1663 
Q 319 2456 758 2934 
Q 1197 3413 1925 3413 
Q 2653 3413 3092 2934 
Q 3531 2456 3531 1663 
Q 3531 869 3092 389 
Q 2653 -91 1925 -91 
z
" transform="scale(0.015625)"/>
        <path id="DejaVuSerif-58" d="M 2266 3322 
L 3341 3322 
L 3341 331 
L 3884 331 
L 3884 0 
L 2766 0 
L 2766 588 
Q 2606 256 2353 82 
Q 2100 -91 1766 -91 
Q 1213 -91 952 223 
Q 691 538 691 1209 
L 691 2988 
L 172 2988 
L 172 3322 
L 1269 3322 
L 1269 1388 
Q 1269 781 1417 556 
Q 1566 331 1947 331 
Q 2347 331 2556 625 
Q 2766 919 2766 1478 
L 2766 2988 
L 2266 2988 
L 2266 3322 
z
" transform="scale(0.015625)"/>
        <path id="DejaVuSerif-48" d="M 3469 1600 
L 991 1600 
L 991 1575 
Q 991 903 1244 561 
Q 1497 219 1991 219 
Q 2369 219 2611 417 
Q 2853 616 2950 1006 
L 3413 1006 
Q 3275 459 2904 184 
Q 2534 -91 1931 -91 
Q 1203 -91 761 389 
Q 319 869 319 1663 
Q 319 2450 753 2931 
Q 1188 3413 1894 3413 
Q 2647 3413 3050 2948 
Q 3453 2484 3469 1600 
z
M 2791 1931 
Q 2772 2513 2545 2808 
Q 2319 3103 1894 3103 
Q 1497 3103 1269 2806 
Q 1041 2509 991 1931 
L 2791 1931 
z
" transform="scale(0.015625)"/>
        <path id="DejaVuSerif-57" d="M 691 2988 
L 184 2988 
L 184 3322 
L 691 3322 
L 691 4353 
L 1269 4353 
L 1269 3322 
L 2350 3322 
L 2350 2988 
L 1269 2988 
L 1269 878 
Q 1269 456 1350 337 
Q 1431 219 1650 219 
Q 1875 219 1978 351 
Q 2081 484 2088 781 
L 2522 781 
Q 2497 328 2275 118 
Q 2053 -91 1600 -91 
Q 1103 -91 897 129 
Q 691 350 691 878 
L 691 2988 
z
" transform="scale(0.015625)"/>
       </defs>
       <use xlink:href="#DejaVuSerif-36"/>
       <use xlink:href="#DejaVuSerif-4c" transform="translate(68.5 0)"/>
       <use xlink:href="#DejaVuSerif-4f" transform="translate(100.484375 0)"/>
       <use xlink:href="#DejaVuSerif-4b" transform="translate(132.46875 0)"/>
       <use xlink:href="#DejaVuSerif-52" transform="translate(196.875 0)"/>
       <use xlink:href="#DejaVuSerif-58" transform="translate(257.078125 0)"/>
       <use xlink:href="#DejaVuSerif-48" transform="translate(321.484375 0)"/>
       <use xlink:href="#DejaVuSerif-57" transform="translate(380.671875 0)"/>
       <use xlink:href="#DejaVuSerif-57" transform="translate(420.859375 0)"/>
       <use xlink:href="#DejaVuSerif-48" transform="translate(461.046875 0)"/>
      </g>
     </g>
    </g>
    <g id="xtick_2">
     <g id="line2d_2">
      <path d="M 306.743906 300.080212 
L 425.813906 93.844923 
" clip-path="url(#p06e167c173)" style="fill: none; stroke: #cccccc; stroke-width: 0.8; stroke-linecap: round"/>
     </g>
     <g id="text_2">
      <!-- Ari -->
      <g style="fill: #262626" transform="translate(425.863906 83.19239) scale(0.1 -0.1)">
       <defs>
        <path id="DejaVuSerif-24" d="M 1281 1691 
L 2994 1691 
L 2138 3909 
L 1281 1691 
z
M -38 0 
L -38 331 
L 372 331 
L 2034 4666 
L 2559 4666 
L 4225 331 
L 4684 331 
L 4684 0 
L 2988 0 
L 2988 331 
L 3506 331 
L 3116 1356 
L 1153 1356 
L 763 331 
L 1275 331 
L 1275 0 
L -38 0 
z
" transform="scale(0.015625)"/>
        <path id="DejaVuSerif-55" d="M 3059 3328 
L 3059 2497 
L 2728 2497 
Q 2713 2744 2591 2866 
Q 2469 2988 2234 2988 
Q 1809 2988 1582 2694 
Q 1356 2400 1356 1850 
L 1356 331 
L 2022 331 
L 2022 0 
L 263 0 
L 263 331 
L 781 331 
L 781 2994 
L 231 2994 
L 231 3322 
L 1356 3322 
L 1356 2731 
Q 1525 3078 1790 3245 
Q 2056 3413 2438 3413 
Q 2578 3413 2733 3391 
Q 2888 3369 3059 3328 
z
" transform="scale(0.015625)"/>
       </defs>
       <use xlink:href="#DejaVuSerif-24"/>
       <use xlink:href="#DejaVuSerif-55" transform="translate(72.21875 0)"/>
       <use xlink:href="#DejaVuSerif-4c" transform="translate(120.015625 0)"/>
      </g>
     </g>
    </g>
    <g id="xtick_3">
     <g id="line2d_3">
      <path d="M 306.743906 300.080212 
L 187.673906 93.844923 
" clip-path="url(#p06e167c173)" style="fill: none; stroke: #cccccc; stroke-width: 0.8; stroke-linecap: round"/>
     </g>
     <g id="text_3">
      <!-- Nmi -->
      <g style="fill: #262626" transform="translate(169.308281 83.19239) scale(0.1 -0.1)">
       <defs>
        <path id="DejaVuSerif-31" d="M 313 0 
L 313 331 
L 941 331 
L 941 4331 
L 313 4331 
L 313 4666 
L 1509 4666 
L 4306 984 
L 4306 4331 
L 3681 4331 
L 3681 4666 
L 5319 4666 
L 5319 4331 
L 4691 4331 
L 4691 -91 
L 4313 -91 
L 1325 3841 
L 1325 331 
L 1953 331 
L 1953 0 
L 313 0 
z
" transform="scale(0.015625)"/>
        <path id="DejaVuSerif-50" d="M 3316 2675 
Q 3481 3041 3739 3227 
Q 3997 3413 4341 3413 
Q 4863 3413 5119 3089 
Q 5375 2766 5375 2113 
L 5375 331 
L 5894 331 
L 5894 0 
L 4300 0 
L 4300 331 
L 4800 331 
L 4800 2047 
Q 4800 2556 4650 2772 
Q 4500 2988 4153 2988 
Q 3769 2988 3567 2697 
Q 3366 2406 3366 1850 
L 3366 331 
L 3866 331 
L 3866 0 
L 2291 0 
L 2291 331 
L 2791 331 
L 2791 2069 
Q 2791 2566 2641 2777 
Q 2491 2988 2144 2988 
Q 1759 2988 1557 2697 
Q 1356 2406 1356 1850 
L 1356 331 
L 1856 331 
L 1856 0 
L 263 0 
L 263 331 
L 781 331 
L 781 2994 
L 231 2994 
L 231 3322 
L 1356 3322 
L 1356 2731 
Q 1516 3063 1762 3238 
Q 2009 3413 2322 3413 
Q 2709 3413 2968 3220 
Q 3228 3028 3316 2675 
z
" transform="scale(0.015625)"/>
       </defs>
       <use xlink:href="#DejaVuSerif-31"/>
       <use xlink:href="#DejaVuSerif-50" transform="translate(87.5 0)"/>
       <use xlink:href="#DejaVuSerif-4c" transform="translate(182.328125 0)"/>
      </g>
     </g>
    </g>
    <g id="xtick_4">
     <g id="line2d_4">
      <path d="M 306.743906 300.080212 
L 68.603906 300.080212 
" clip-path="url(#p06e167c173)" style="fill: none; stroke: #cccccc; stroke-width: 0.8; stroke-linecap: round"/>
     </g>
     <g id="text_4">
      <!-- Calinski Harabasz -->
      <g style="fill: #262626" transform="translate(7.2 302.678259) scale(0.1 -0.1)">
       <defs>
        <path id="DejaVuSerif-26" d="M 4513 1234 
Q 4306 581 3820 245 
Q 3334 -91 2591 -91 
Q 2134 -91 1743 65 
Q 1353 222 1050 525 
Q 700 875 529 1320 
Q 359 1766 359 2328 
Q 359 3416 987 4083 
Q 1616 4750 2644 4750 
Q 3025 4750 3456 4650 
Q 3888 4550 4384 4347 
L 4384 3272 
L 4031 3272 
Q 3916 3859 3567 4137 
Q 3219 4416 2591 4416 
Q 1844 4416 1459 3886 
Q 1075 3356 1075 2328 
Q 1075 1303 1459 773 
Q 1844 244 2591 244 
Q 3113 244 3450 492 
Q 3788 741 3938 1234 
L 4513 1234 
z
" transform="scale(0.015625)"/>
        <path id="DejaVuSerif-44" d="M 2547 1044 
L 2547 1747 
L 1806 1747 
Q 1378 1747 1168 1562 
Q 959 1378 959 997 
Q 959 650 1171 447 
Q 1384 244 1747 244 
Q 2106 244 2326 466 
Q 2547 688 2547 1044 
z
M 3122 2075 
L 3122 331 
L 3634 331 
L 3634 0 
L 2547 0 
L 2547 359 
Q 2356 128 2106 18 
Q 1856 -91 1522 -91 
Q 969 -91 644 203 
Q 319 497 319 997 
Q 319 1513 691 1797 
Q 1063 2081 1741 2081 
L 2547 2081 
L 2547 2309 
Q 2547 2688 2317 2895 
Q 2088 3103 1672 3103 
Q 1328 3103 1125 2947 
Q 922 2791 872 2484 
L 575 2484 
L 575 3156 
Q 875 3284 1158 3348 
Q 1441 3413 1709 3413 
Q 2400 3413 2761 3070 
Q 3122 2728 3122 2075 
z
" transform="scale(0.015625)"/>
        <path id="DejaVuSerif-51" d="M 263 0 
L 263 331 
L 781 331 
L 781 2988 
L 231 2988 
L 231 3322 
L 1356 3322 
L 1356 2731 
Q 1516 3069 1770 3241 
Q 2025 3413 2363 3413 
Q 2913 3413 3172 3097 
Q 3431 2781 3431 2113 
L 3431 331 
L 3944 331 
L 3944 0 
L 2356 0 
L 2356 331 
L 2853 331 
L 2853 1931 
Q 2853 2541 2703 2767 
Q 2553 2994 2175 2994 
Q 1775 2994 1565 2701 
Q 1356 2409 1356 1850 
L 1356 331 
L 1856 331 
L 1856 0 
L 263 0 
z
" transform="scale(0.015625)"/>
        <path id="DejaVuSerif-56" d="M 359 184 
L 359 959 
L 691 959 
Q 703 588 923 403 
Q 1144 219 1575 219 
Q 1963 219 2166 364 
Q 2369 509 2369 788 
Q 2369 1006 2220 1140 
Q 2072 1275 1594 1428 
L 1178 1569 
Q 750 1706 558 1912 
Q 366 2119 366 2438 
Q 366 2894 700 3153 
Q 1034 3413 1625 3413 
Q 1888 3413 2178 3344 
Q 2469 3275 2778 3144 
L 2778 2419 
L 2447 2419 
Q 2434 2741 2221 2922 
Q 2009 3103 1644 3103 
Q 1281 3103 1095 2975 
Q 909 2847 909 2591 
Q 909 2381 1050 2254 
Q 1191 2128 1613 1997 
L 2069 1856 
Q 2541 1709 2748 1489 
Q 2956 1269 2956 922 
Q 2956 450 2595 179 
Q 2234 -91 1600 -91 
Q 1278 -91 972 -22 
Q 666 47 359 184 
z
" transform="scale(0.015625)"/>
        <path id="DejaVuSerif-4e" d="M 1831 0 
L 219 0 
L 219 331 
L 738 331 
L 738 4531 
L 184 4531 
L 184 4863 
L 1313 4863 
L 1313 1697 
L 2713 2988 
L 2234 2988 
L 2234 3322 
L 3738 3322 
L 3738 2988 
L 3169 2988 
L 2181 2075 
L 3444 331 
L 3922 331 
L 3922 0 
L 2284 0 
L 2284 331 
L 2759 331 
L 1766 1697 
L 1313 1275 
L 1313 331 
L 1831 331 
L 1831 0 
z
" transform="scale(0.015625)"/>
        <path id="DejaVuSerif-3" transform="scale(0.015625)"/>
        <path id="DejaVuSerif-2b" d="M 353 0 
L 353 331 
L 947 331 
L 947 4331 
L 353 4331 
L 353 4666 
L 2175 4666 
L 2175 4331 
L 1581 4331 
L 1581 2719 
L 4000 2719 
L 4000 4331 
L 3406 4331 
L 3406 4666 
L 5228 4666 
L 5228 4331 
L 4634 4331 
L 4634 331 
L 5228 331 
L 5228 0 
L 3406 0 
L 3406 331 
L 4000 331 
L 4000 2338 
L 1581 2338 
L 1581 331 
L 2175 331 
L 2175 0 
L 353 0 
z
" transform="scale(0.015625)"/>
        <path id="DejaVuSerif-45" d="M 738 331 
L 738 4531 
L 184 4531 
L 184 4863 
L 1313 4863 
L 1313 2803 
Q 1481 3116 1742 3264 
Q 2003 3413 2388 3413 
Q 3000 3413 3387 2928 
Q 3775 2444 3775 1663 
Q 3775 881 3387 395 
Q 3000 -91 2388 -91 
Q 2003 -91 1742 57 
Q 1481 206 1313 519 
L 1313 0 
L 184 0 
L 184 331 
L 738 331 
z
M 1313 1497 
Q 1313 897 1542 583 
Q 1772 269 2209 269 
Q 2650 269 2876 622 
Q 3103 975 3103 1663 
Q 3103 2353 2876 2703 
Q 2650 3053 2209 3053 
Q 1772 3053 1542 2737 
Q 1313 2422 1313 1825 
L 1313 1497 
z
" transform="scale(0.015625)"/>
        <path id="DejaVuSerif-5d" d="M 256 0 
L 256 269 
L 2338 2988 
L 691 2988 
L 691 2413 
L 359 2413 
L 359 3322 
L 3078 3322 
L 3078 3053 
L 997 331 
L 2803 331 
L 2803 934 
L 3138 934 
L 3138 0 
L 256 0 
z
" transform="scale(0.015625)"/>
       </defs>
       <use xlink:href="#DejaVuSerif-26"/>
       <use xlink:href="#DejaVuSerif-44" transform="translate(76.515625 0)"/>
       <use xlink:href="#DejaVuSerif-4f" transform="translate(136.140625 0)"/>
       <use xlink:href="#DejaVuSerif-4c" transform="translate(168.125 0)"/>
       <use xlink:href="#DejaVuSerif-51" transform="translate(200.109375 0)"/>
       <use xlink:href="#DejaVuSerif-56" transform="translate(264.515625 0)"/>
       <use xlink:href="#DejaVuSerif-4e" transform="translate(315.828125 0)"/>
       <use xlink:href="#DejaVuSerif-4c" transform="translate(376.421875 0)"/>
       <use xlink:href="#DejaVuSerif-3" transform="translate(408.40625 0)"/>
       <use xlink:href="#DejaVuSerif-2b" transform="translate(440.1875 0)"/>
       <use xlink:href="#DejaVuSerif-44" transform="translate(527.390625 0)"/>
       <use xlink:href="#DejaVuSerif-55" transform="translate(587.015625 0)"/>
       <use xlink:href="#DejaVuSerif-44" transform="translate(634.8125 0)"/>
       <use xlink:href="#DejaVuSerif-45" transform="translate(694.4375 0)"/>
       <use xlink:href="#DejaVuSerif-44" transform="translate(758.453125 0)"/>
       <use xlink:href="#DejaVuSerif-56" transform="translate(818.078125 0)"/>
       <use xlink:href="#DejaVuSerif-5d" transform="translate(869.390625 0)"/>
      </g>
     </g>
    </g>
    <g id="xtick_5">
     <g id="line2d_5">
      <path d="M 306.743906 300.080212 
L 187.673906 506.315502 
" clip-path="url(#p06e167c173)" style="fill: none; stroke: #cccccc; stroke-width: 0.8; stroke-linecap: round"/>
     </g>
     <g id="text_5">
      <!-- Davies Bouldin -->
      <g style="fill: #262626" transform="translate(141.971562 522.163738) scale(0.1 -0.1)">
       <defs>
        <path id="DejaVuSerif-27" d="M 1581 331 
L 2163 331 
Q 3072 331 3558 850 
Q 4044 1369 4044 2338 
Q 4044 3306 3559 3818 
Q 3075 4331 2163 4331 
L 1581 4331 
L 1581 331 
z
M 353 0 
L 353 331 
L 947 331 
L 947 4331 
L 353 4331 
L 353 4666 
L 2209 4666 
Q 3416 4666 4089 4050 
Q 4763 3434 4763 2338 
Q 4763 1238 4088 619 
Q 3413 0 2209 0 
L 353 0 
z
" transform="scale(0.015625)"/>
        <path id="DejaVuSerif-59" d="M 1581 0 
L 359 2988 
L -19 2988 
L -19 3322 
L 1509 3322 
L 1509 2988 
L 978 2988 
L 1913 703 
L 2847 2988 
L 2350 2988 
L 2350 3322 
L 3597 3322 
L 3597 2988 
L 3225 2988 
L 2003 0 
L 1581 0 
z
" transform="scale(0.015625)"/>
        <path id="DejaVuSerif-25" d="M 1581 331 
L 2516 331 
Q 3078 331 3337 575 
Q 3597 819 3597 1350 
Q 3597 1878 3339 2120 
Q 3081 2363 2516 2363 
L 1581 2363 
L 1581 331 
z
M 1581 2694 
L 2375 2694 
Q 2888 2694 3123 2891 
Q 3359 3088 3359 3513 
Q 3359 3941 3123 4136 
Q 2888 4331 2375 4331 
L 1581 4331 
L 1581 2694 
z
M 353 0 
L 353 331 
L 947 331 
L 947 4331 
L 353 4331 
L 353 4666 
L 2656 4666 
Q 3363 4666 3720 4377 
Q 4078 4088 4078 3513 
Q 4078 3097 3829 2850 
Q 3581 2603 3103 2547 
Q 3697 2472 4005 2167 
Q 4313 1863 4313 1350 
Q 4313 656 3875 328 
Q 3438 0 2509 0 
L 353 0 
z
" transform="scale(0.015625)"/>
        <path id="DejaVuSerif-47" d="M 3359 331 
L 3909 331 
L 3909 0 
L 2784 0 
L 2784 519 
Q 2616 206 2355 57 
Q 2094 -91 1709 -91 
Q 1097 -91 708 395 
Q 319 881 319 1663 
Q 319 2444 706 2928 
Q 1094 3413 1709 3413 
Q 2094 3413 2355 3264 
Q 2616 3116 2784 2803 
L 2784 4531 
L 2241 4531 
L 2241 4863 
L 3359 4863 
L 3359 331 
z
M 2784 1497 
L 2784 1825 
Q 2784 2422 2554 2737 
Q 2325 3053 1888 3053 
Q 1444 3053 1217 2703 
Q 991 2353 991 1663 
Q 991 975 1217 622 
Q 1444 269 1888 269 
Q 2325 269 2554 583 
Q 2784 897 2784 1497 
z
" transform="scale(0.015625)"/>
       </defs>
       <use xlink:href="#DejaVuSerif-27"/>
       <use xlink:href="#DejaVuSerif-44" transform="translate(80.171875 0)"/>
       <use xlink:href="#DejaVuSerif-59" transform="translate(139.796875 0)"/>
       <use xlink:href="#DejaVuSerif-4c" transform="translate(196.296875 0)"/>
       <use xlink:href="#DejaVuSerif-48" transform="translate(228.28125 0)"/>
       <use xlink:href="#DejaVuSerif-56" transform="translate(287.46875 0)"/>
       <use xlink:href="#DejaVuSerif-3" transform="translate(338.78125 0)"/>
       <use xlink:href="#DejaVuSerif-25" transform="translate(370.5625 0)"/>
       <use xlink:href="#DejaVuSerif-52" transform="translate(444.046875 0)"/>
       <use xlink:href="#DejaVuSerif-58" transform="translate(504.25 0)"/>
       <use xlink:href="#DejaVuSerif-4f" transform="translate(568.65625 0)"/>
       <use xlink:href="#DejaVuSerif-47" transform="translate(600.640625 0)"/>
       <use xlink:href="#DejaVuSerif-4c" transform="translate(664.65625 0)"/>
       <use xlink:href="#DejaVuSerif-51" transform="translate(696.640625 0)"/>
      </g>
     </g>
    </g>
    <g id="xtick_6">
     <g id="line2d_6">
      <path d="M 306.743906 300.080212 
L 425.813906 506.315502 
" clip-path="url(#p06e167c173)" style="fill: none; stroke: #cccccc; stroke-width: 0.8; stroke-linecap: round"/>
     </g>
     <g id="text_6">
      <!-- Accuracy -->
      <g style="fill: #262626" transform="translate(410.036562 522.163347) scale(0.1 -0.1)">
       <defs>
        <path id="DejaVuSerif-46" d="M 3291 997 
Q 3169 466 2822 187 
Q 2475 -91 1925 -91 
Q 1200 -91 759 389 
Q 319 869 319 1663 
Q 319 2459 759 2936 
Q 1200 3413 1925 3413 
Q 2241 3413 2553 3339 
Q 2866 3266 3181 3116 
L 3181 2266 
L 2847 2266 
Q 2781 2703 2561 2903 
Q 2341 3103 1931 3103 
Q 1466 3103 1228 2742 
Q 991 2381 991 1663 
Q 991 944 1227 581 
Q 1463 219 1931 219 
Q 2303 219 2525 412 
Q 2747 606 2828 997 
L 3291 997 
z
" transform="scale(0.015625)"/>
        <path id="DejaVuSerif-5c" d="M 1381 -609 
L 1600 -56 
L 359 2988 
L -19 2988 
L -19 3322 
L 1509 3322 
L 1509 2988 
L 978 2988 
L 1913 703 
L 2847 2988 
L 2350 2988 
L 2350 3322 
L 3597 3322 
L 3597 2988 
L 3225 2988 
L 1703 -750 
Q 1547 -1138 1356 -1280 
Q 1166 -1422 819 -1422 
Q 672 -1422 517 -1397 
Q 363 -1372 206 -1325 
L 206 -691 
L 500 -691 
Q 519 -903 608 -995 
Q 697 -1088 884 -1088 
Q 1056 -1088 1161 -992 
Q 1266 -897 1381 -609 
z
" transform="scale(0.015625)"/>
       </defs>
       <use xlink:href="#DejaVuSerif-24"/>
       <use xlink:href="#DejaVuSerif-46" transform="translate(72.21875 0)"/>
       <use xlink:href="#DejaVuSerif-46" transform="translate(128.21875 0)"/>
       <use xlink:href="#DejaVuSerif-58" transform="translate(184.21875 0)"/>
       <use xlink:href="#DejaVuSerif-55" transform="translate(248.625 0)"/>
       <use xlink:href="#DejaVuSerif-44" transform="translate(296.421875 0)"/>
       <use xlink:href="#DejaVuSerif-46" transform="translate(356.046875 0)"/>
       <use xlink:href="#DejaVuSerif-5c" transform="translate(412.046875 0)"/>
      </g>
     </g>
    </g>
   </g>
   <g id="matplotlib.axis_2">
    <g id="ytick_1">
     <g id="line2d_7">
      <path d="M 350.042088 300.080212 
C 350.042088 294.394347 348.922097 288.76377 346.74621 283.510716 
C 344.570324 278.257661 341.380858 273.484288 337.360344 269.463775 
C 333.33983 265.443261 328.566458 262.253795 323.313403 260.077909 
C 318.060349 257.902022 312.429771 256.782031 306.743906 256.782031 
C 301.058041 256.782031 295.427464 257.902022 290.174409 260.077909 
C 284.921355 262.253795 280.147982 265.443261 276.127468 269.463775 
C 272.106954 273.484288 268.917489 278.257661 266.741602 283.510716 
C 264.565716 288.76377 263.445724 294.394347 263.445724 300.080212 
C 263.445724 305.766078 264.565716 311.396655 266.741602 316.649709 
C 268.917489 321.902764 272.106954 326.676137 276.127468 330.69665 
C 280.147982 334.717164 284.921355 337.90663 290.174409 340.082516 
C 295.427464 342.258403 301.058041 343.378394 306.743906 343.378394 
C 312.429771 343.378394 318.060349 342.258403 323.313403 340.082516 
C 328.566458 337.90663 333.33983 334.717164 337.360344 330.69665 
C 341.380858 326.676137 344.570324 321.902764 346.74621 316.649709 
C 348.922097 311.396655 350.042088 305.766078 350.042088 300.080212 
" clip-path="url(#p06e167c173)" style="fill: none; stroke: #cccccc; stroke-width: 0.8; stroke-linecap: round"/>
     </g>
     <g id="text_7">
      <!-- 0.2 -->
      <g style="fill: #262626" transform="translate(346.74621 281.185247) scale(0.0968 -0.0968)">
       <defs>
        <path id="DejaVuSerif-13" d="M 2034 219 
Q 2513 219 2750 744 
Q 2988 1269 2988 2328 
Q 2988 3391 2750 3916 
Q 2513 4441 2034 4441 
Q 1556 4441 1318 3916 
Q 1081 3391 1081 2328 
Q 1081 1269 1318 744 
Q 1556 219 2034 219 
z
M 2034 -91 
Q 1275 -91 848 546 
Q 422 1184 422 2328 
Q 422 3475 848 4112 
Q 1275 4750 2034 4750 
Q 2797 4750 3222 4112 
Q 3647 3475 3647 2328 
Q 3647 1184 3222 546 
Q 2797 -91 2034 -91 
z
" transform="scale(0.015625)"/>
        <path id="DejaVuSerif-11" d="M 603 325 
Q 603 500 722 622 
Q 841 744 1019 744 
Q 1191 744 1312 622 
Q 1434 500 1434 325 
Q 1434 153 1312 31 
Q 1191 -91 1019 -91 
Q 841 -91 722 29 
Q 603 150 603 325 
z
" transform="scale(0.015625)"/>
        <path id="DejaVuSerif-15" d="M 819 3553 
L 469 3553 
L 469 4384 
Q 803 4563 1142 4656 
Q 1481 4750 1806 4750 
Q 2534 4750 2956 4397 
Q 3378 4044 3378 3438 
Q 3378 2753 2422 1800 
Q 2347 1728 2309 1691 
L 1131 513 
L 3078 513 
L 3078 1088 
L 3444 1088 
L 3444 0 
L 434 0 
L 434 341 
L 1850 1753 
Q 2319 2222 2519 2614 
Q 2719 3006 2719 3438 
Q 2719 3909 2473 4175 
Q 2228 4441 1797 4441 
Q 1350 4441 1106 4219 
Q 863 3997 819 3553 
z
" transform="scale(0.015625)"/>
       </defs>
       <use xlink:href="#DejaVuSerif-13"/>
       <use xlink:href="#DejaVuSerif-11" transform="translate(63.625 0)"/>
       <use xlink:href="#DejaVuSerif-15" transform="translate(95.40625 0)"/>
      </g>
     </g>
    </g>
    <g id="ytick_2">
     <g id="line2d_8">
      <path d="M 393.34027 300.080212 
C 393.34027 288.708482 391.100287 277.447328 386.748514 266.941219 
C 382.396741 256.43511 376.01781 246.888364 367.976782 238.847337 
C 359.935755 230.806309 350.389009 224.427377 339.8829 220.075605 
C 329.376791 215.723832 318.115637 213.483849 306.743906 213.483849 
C 295.372176 213.483849 284.111021 215.723832 273.604913 220.075605 
C 263.098804 224.427377 253.552058 230.806309 245.51103 238.847337 
C 237.470003 246.888364 231.091071 256.43511 226.739298 266.941219 
C 222.387526 277.447328 220.147543 288.708482 220.147543 300.080212 
C 220.147543 311.451943 222.387526 322.713097 226.739298 333.219206 
C 231.091071 343.725315 237.470003 353.272061 245.51103 361.313088 
C 253.552058 369.354116 263.098804 375.733048 273.604913 380.08482 
C 284.111021 384.436593 295.372176 386.676576 306.743906 386.676576 
C 318.115637 386.676576 329.376791 384.436593 339.8829 380.08482 
C 350.389009 375.733048 359.935755 369.354116 367.976782 361.313088 
C 376.01781 353.272061 382.396741 343.725315 386.748514 333.219206 
C 391.100287 322.713097 393.34027 311.451943 393.34027 300.080212 
" clip-path="url(#p06e167c173)" style="fill: none; stroke: #cccccc; stroke-width: 0.8; stroke-linecap: round"/>
     </g>
     <g id="text_8">
      <!-- 0.4 -->
      <g style="fill: #262626" transform="translate(386.748514 264.61575) scale(0.0968 -0.0968)">
       <defs>
        <path id="DejaVuSerif-17" d="M 2234 1581 
L 2234 4063 
L 641 1581 
L 2234 1581 
z
M 3609 0 
L 1484 0 
L 1484 331 
L 2234 331 
L 2234 1247 
L 197 1247 
L 197 1588 
L 2241 4750 
L 2859 4750 
L 2859 1581 
L 3750 1581 
L 3750 1247 
L 2859 1247 
L 2859 331 
L 3609 331 
L 3609 0 
z
" transform="scale(0.015625)"/>
       </defs>
       <use xlink:href="#DejaVuSerif-13"/>
       <use xlink:href="#DejaVuSerif-11" transform="translate(63.625 0)"/>
       <use xlink:href="#DejaVuSerif-17" transform="translate(95.40625 0)"/>
      </g>
     </g>
    </g>
    <g id="ytick_3">
     <g id="line2d_9">
      <path d="M 436.638452 300.080212 
C 436.638452 283.022617 433.278477 266.130885 426.750818 250.371722 
C 420.223159 234.612559 410.654762 220.29244 398.59322 208.230899 
C 386.531679 196.169357 372.21156 186.60096 356.452397 180.073301 
C 340.693233 173.545641 323.801502 170.185667 306.743906 170.185667 
C 289.686311 170.185667 272.794579 173.545641 257.035416 180.073301 
C 241.276252 186.60096 226.956134 196.169357 214.894592 208.230899 
C 202.833051 220.29244 193.264653 234.612559 186.736994 250.371722 
C 180.209335 266.130885 176.849361 283.022617 176.849361 300.080212 
C 176.849361 317.137808 180.209335 334.02954 186.736994 349.788703 
C 193.264653 365.547866 202.833051 379.867985 214.894592 391.929526 
C 226.956134 403.991068 241.276252 413.559465 257.035416 420.087124 
C 272.794579 426.614784 289.686311 429.974758 306.743906 429.974758 
C 323.801502 429.974758 340.693233 426.614784 356.452397 420.087124 
C 372.21156 413.559465 386.531679 403.991068 398.59322 391.929526 
C 410.654762 379.867985 420.223159 365.547866 426.750818 349.788703 
C 433.278477 334.02954 436.638452 317.137808 436.638452 300.080212 
" clip-path="url(#p06e167c173)" style="fill: none; stroke: #cccccc; stroke-width: 0.8; stroke-linecap: round"/>
     </g>
     <g id="text_9">
      <!-- 0.6 -->
      <g style="fill: #262626" transform="translate(426.750818 248.046253) scale(0.0968 -0.0968)">
       <defs>
        <path id="DejaVuSerif-19" d="M 2094 219 
Q 2534 219 2771 542 
Q 3009 866 3009 1472 
Q 3009 2078 2771 2401 
Q 2534 2725 2094 2725 
Q 1647 2725 1412 2412 
Q 1178 2100 1178 1509 
Q 1178 888 1415 553 
Q 1653 219 2094 219 
z
M 1075 2569 
Q 1288 2803 1556 2918 
Q 1825 3034 2163 3034 
Q 2859 3034 3264 2615 
Q 3669 2197 3669 1472 
Q 3669 763 3233 336 
Q 2797 -91 2069 -91 
Q 1278 -91 853 498 
Q 428 1088 428 2181 
Q 428 3406 931 4078 
Q 1434 4750 2350 4750 
Q 2597 4750 2869 4703 
Q 3141 4656 3425 4563 
L 3425 3794 
L 3072 3794 
Q 3034 4109 2831 4275 
Q 2628 4441 2284 4441 
Q 1678 4441 1381 3981 
Q 1084 3522 1075 2569 
z
" transform="scale(0.015625)"/>
       </defs>
       <use xlink:href="#DejaVuSerif-13"/>
       <use xlink:href="#DejaVuSerif-11" transform="translate(63.625 0)"/>
       <use xlink:href="#DejaVuSerif-19" transform="translate(95.40625 0)"/>
      </g>
     </g>
    </g>
    <g id="ytick_4">
     <g id="line2d_10">
      <path d="M 479.936634 300.080212 
C 479.936634 277.336752 475.456668 254.814443 466.753122 233.802225 
C 458.049577 212.790007 445.291713 193.696516 429.209658 177.614461 
C 413.127603 161.532405 394.034111 148.774542 373.021894 140.070997 
C 352.009676 131.367451 329.487367 126.887485 306.743906 126.887485 
C 284.000446 126.887485 261.478137 131.367451 240.465919 140.070997 
C 219.453701 148.774542 200.36021 161.532405 184.278154 177.614461 
C 168.196099 193.696516 155.438236 212.790007 146.73469 233.802225 
C 138.031145 254.814443 133.551179 277.336752 133.551179 300.080212 
C 133.551179 322.823673 138.031145 345.345982 146.73469 366.3582 
C 155.438236 387.370418 168.196099 406.463909 184.278154 422.545964 
C 200.36021 438.62802 219.453701 451.385883 240.465919 460.089428 
C 261.478137 468.792974 284.000446 473.27294 306.743906 473.27294 
C 329.487367 473.27294 352.009676 468.792974 373.021894 460.089428 
C 394.034111 451.385883 413.127603 438.62802 429.209658 422.545964 
C 445.291713 406.463909 458.049577 387.370418 466.753122 366.3582 
C 475.456668 345.345982 479.936634 322.823673 479.936634 300.080212 
" clip-path="url(#p06e167c173)" style="fill: none; stroke: #cccccc; stroke-width: 0.8; stroke-linecap: round"/>
     </g>
     <g id="text_10">
      <!-- 0.8 -->
      <g style="fill: #262626" transform="translate(466.753122 231.476756) scale(0.0968 -0.0968)">
       <defs>
        <path id="DejaVuSerif-1b" d="M 2981 1275 
Q 2981 1775 2732 2051 
Q 2484 2328 2034 2328 
Q 1584 2328 1336 2051 
Q 1088 1775 1088 1275 
Q 1088 772 1336 495 
Q 1584 219 2034 219 
Q 2484 219 2732 495 
Q 2981 772 2981 1275 
z
M 2853 3541 
Q 2853 3966 2637 4203 
Q 2422 4441 2034 4441 
Q 1650 4441 1433 4203 
Q 1216 3966 1216 3541 
Q 1216 3113 1433 2875 
Q 1650 2638 2034 2638 
Q 2422 2638 2637 2875 
Q 2853 3113 2853 3541 
z
M 2516 2484 
Q 3047 2413 3344 2092 
Q 3641 1772 3641 1275 
Q 3641 619 3225 264 
Q 2809 -91 2034 -91 
Q 1263 -91 845 264 
Q 428 619 428 1275 
Q 428 1772 725 2092 
Q 1022 2413 1556 2484 
Q 1084 2569 832 2842 
Q 581 3116 581 3541 
Q 581 4103 968 4426 
Q 1356 4750 2034 4750 
Q 2713 4750 3100 4426 
Q 3488 4103 3488 3541 
Q 3488 3116 3236 2842 
Q 2984 2569 2516 2484 
z
" transform="scale(0.015625)"/>
       </defs>
       <use xlink:href="#DejaVuSerif-13"/>
       <use xlink:href="#DejaVuSerif-11" transform="translate(63.625 0)"/>
       <use xlink:href="#DejaVuSerif-1b" transform="translate(95.40625 0)"/>
      </g>
     </g>
    </g>
    <g id="ytick_5">
     <g id="line2d_11">
      <path d="M 523.234815 300.080212 
C 523.234815 271.650887 517.634858 243.498 506.755426 217.232728 
C 495.875994 190.967456 479.928665 167.100592 459.826096 146.998023 
C 439.723527 126.895454 415.856663 110.948125 389.59139 100.068693 
C 363.326118 89.189261 335.173232 83.589303 306.743906 83.589303 
C 278.314581 83.589303 250.161694 89.189261 223.896422 100.068693 
C 197.63115 110.948125 173.764285 126.895454 153.661716 146.998023 
C 133.559147 167.100592 117.611818 190.967456 106.732386 217.232728 
C 95.852954 243.498 90.252997 271.650887 90.252997 300.080212 
C 90.252997 328.509538 95.852954 356.662425 106.732386 382.927697 
C 117.611818 409.192969 133.559147 433.059833 153.661716 453.162402 
C 173.764285 473.264971 197.63115 489.2123 223.896422 500.091732 
C 250.161694 510.971164 278.314581 516.571122 306.743906 516.571122 
C 335.173232 516.571122 363.326118 510.971164 389.59139 500.091732 
C 415.856663 489.2123 439.723527 473.264971 459.826096 453.162402 
C 479.928665 433.059833 495.875994 409.192969 506.755426 382.927697 
C 517.634858 356.662425 523.234815 328.509538 523.234815 300.080212 
" clip-path="url(#p06e167c173)" style="fill: none; stroke: #cccccc; stroke-width: 0.8; stroke-linecap: round"/>
     </g>
     <g id="text_11">
      <!-- 1.0 -->
      <g style="fill: #262626" transform="translate(506.755426 214.90726) scale(0.0968 -0.0968)">
       <defs>
        <path id="DejaVuSerif-14" d="M 909 0 
L 909 331 
L 1722 331 
L 1722 4213 
L 781 3603 
L 781 4013 
L 1919 4750 
L 2350 4750 
L 2350 331 
L 3163 331 
L 3163 0 
L 909 0 
z
" transform="scale(0.015625)"/>
       </defs>
       <use xlink:href="#DejaVuSerif-14"/>
       <use xlink:href="#DejaVuSerif-11" transform="translate(63.625 0)"/>
       <use xlink:href="#DejaVuSerif-13" transform="translate(95.40625 0)"/>
      </g>
     </g>
    </g>
   </g>
   <g id="patch_3">
    <path d="M 503.171144 300.080212 
L 363.40336 201.943159 
L 243.362705 190.300751 
L 90.440581 300.080212 
L 198.498452 487.566839 
L 306.743906 300.080212 
z
" clip-path="url(#p06e167c173)" style="fill: #f77189; opacity: 0.08; stroke: #f77189; stroke-width: 0.8; stroke-linejoin: miter"/>
   </g>
   <g id="patch_4">
    <path d="M 523.234815 300.080212 
L 381.706795 170.24068 
L 225.318468 159.047217 
L 109.90056 300.080212 
L 198.498452 487.566839 
L 401.559653 464.305903 
z
" clip-path="url(#p06e167c173)" style="fill: #d58c32; opacity: 0.08; stroke: #d58c32; stroke-width: 0.8; stroke-linejoin: miter"/>
   </g>
   <g id="patch_5">
    <path d="M 318.951415 300.080212 
L 306.743906 300.080212 
L 306.743906 300.080212 
L 293.617096 300.080212 
M 332.535092 344.751857 
L 332.535092 344.751857 
L 318.951415 300.080212 
" clip-path="url(#p06e167c173)" style="fill: #a4a031; opacity: 0.08; stroke: #a4a031; stroke-width: 0.8; stroke-linejoin: miter"/>
   </g>
   <g id="patch_6">
    <path d="M 488.195921 300.080212 
L 357.674344 211.866107 
L 251.07019 203.650507 
L 96.935333 300.080212 
L 198.498452 487.566839 
L 330.514302 341.251746 
z
" clip-path="url(#p06e167c173)" style="fill: #50b131; opacity: 0.08; stroke: #50b131; stroke-width: 0.8; stroke-linejoin: miter"/>
   </g>
   <g id="patch_7">
    <path d="M 496.019445 300.080212 
L 360.199533 207.49235 
L 247.172059 196.898746 
L 92.817976 300.080212 
L 198.498452 487.566839 
L 332.151438 344.087348 
z
" clip-path="url(#p06e167c173)" style="fill: #34ae91; opacity: 0.08; stroke: #34ae91; stroke-width: 0.8; stroke-linejoin: miter"/>
   </g>
   <g id="patch_8">
    <path d="M 449.1057 300.080212 
L 414.989361 112.593586 
L 198.498452 112.593586 
L 196.445692 300.080212 
L 198.498452 487.566839 
L 390.19812 444.62715 
z
" clip-path="url(#p06e167c173)" style="fill: #37abb5; opacity: 0.08; stroke: #37abb5; stroke-width: 0.8; stroke-linejoin: miter"/>
   </g>
   <g id="patch_9">
    <path d="M 522.783294 300.080212 
L 386.685205 161.617821 
L 223.732853 156.300851 
L 92.303356 300.080212 
L 198.498452 487.566839 
L 391.049061 446.101024 
z
" clip-path="url(#p06e167c173)" style="fill: #3ba3ec; opacity: 0.08; stroke: #3ba3ec; stroke-width: 0.8; stroke-linejoin: miter"/>
   </g>
   <g id="patch_10">
    <path d="M 518.207794 300.080212 
L 386.135976 162.569114 
L 223.301038 155.552926 
L 90.252997 300.080212 
L 198.498452 487.566839 
L 414.989361 487.566839 
z
" clip-path="url(#p06e167c173)" style="fill: #bb83f4; opacity: 0.08; stroke: #bb83f4; stroke-width: 0.8; stroke-linejoin: miter"/>
   </g>
   <g id="patch_11">
    <path d="M 306.743906 300.080212 
L 313.346241 288.644634 
L 303.351251 294.203961 
L 306.743906 300.080212 
M 353.781674 381.552017 
L 353.781674 381.552017 
L 306.743906 300.080212 
" clip-path="url(#p06e167c173)" style="fill: #f564d4; opacity: 0.08; stroke: #f564d4; stroke-width: 0.8; stroke-linejoin: miter"/>
   </g>
   <g id="line2d_12">
    <path d="M 503.171144 300.080212 
L 363.40336 201.943159 
L 243.362705 190.300751 
L 90.440581 300.080212 
L 198.498452 487.566839 
L 306.743906 300.080212 
L 503.171144 300.080212 
" clip-path="url(#p06e167c173)" style="fill: none; stroke: #f77189; stroke-opacity: 0.8; stroke-width: 2; stroke-linecap: round"/>
    <defs>
     <path id="m76d72b68ba" d="M 0 2.4 
C 0.636487 2.4 1.246992 2.147121 1.697056 1.697056 
C 2.147121 1.246992 2.4 0.636487 2.4 0 
C 2.4 -0.636487 2.147121 -1.246992 1.697056 -1.697056 
C 1.246992 -2.147121 0.636487 -2.4 0 -2.4 
C -0.636487 -2.4 -1.246992 -2.147121 -1.697056 -1.697056 
C -2.147121 -1.246992 -2.4 -0.636487 -2.4 0 
C -2.4 0.636487 -2.147121 1.246992 -1.697056 1.697056 
C -1.246992 2.147121 -0.636487 2.4 0 2.4 
z
" style="stroke: #f77189; stroke-opacity: 0.8"/>
    </defs>
    <g clip-path="url(#p06e167c173)">
     <use xlink:href="#m76d72b68ba" x="503.171144" y="300.080212" style="fill: #f77189; fill-opacity: 0.8; stroke: #f77189; stroke-opacity: 0.8"/>
     <use xlink:href="#m76d72b68ba" x="363.40336" y="201.943159" style="fill: #f77189; fill-opacity: 0.8; stroke: #f77189; stroke-opacity: 0.8"/>
     <use xlink:href="#m76d72b68ba" x="243.362705" y="190.300751" style="fill: #f77189; fill-opacity: 0.8; stroke: #f77189; stroke-opacity: 0.8"/>
     <use xlink:href="#m76d72b68ba" x="90.440581" y="300.080212" style="fill: #f77189; fill-opacity: 0.8; stroke: #f77189; stroke-opacity: 0.8"/>
     <use xlink:href="#m76d72b68ba" x="198.498452" y="487.566839" style="fill: #f77189; fill-opacity: 0.8; stroke: #f77189; stroke-opacity: 0.8"/>
     <use xlink:href="#m76d72b68ba" x="306.743906" y="300.080212" style="fill: #f77189; fill-opacity: 0.8; stroke: #f77189; stroke-opacity: 0.8"/>
     <use xlink:href="#m76d72b68ba" x="503.171144" y="300.080212" style="fill: #f77189; fill-opacity: 0.8; stroke: #f77189; stroke-opacity: 0.8"/>
    </g>
   </g>
   <g id="line2d_13">
    <path d="M 523.234815 300.080212 
L 381.706795 170.24068 
L 225.318468 159.047217 
L 109.90056 300.080212 
L 198.498452 487.566839 
L 401.559653 464.305903 
L 523.234815 300.080212 
" clip-path="url(#p06e167c173)" style="fill: none; stroke: #d58c32; stroke-opacity: 0.8; stroke-width: 2; stroke-linecap: round"/>
    <defs>
     <path id="mb6c473a6d6" d="M 0 2.4 
C 0.636487 2.4 1.246992 2.147121 1.697056 1.697056 
C 2.147121 1.246992 2.4 0.636487 2.4 0 
C 2.4 -0.636487 2.147121 -1.246992 1.697056 -1.697056 
C 1.246992 -2.147121 0.636487 -2.4 0 -2.4 
C -0.636487 -2.4 -1.246992 -2.147121 -1.697056 -1.697056 
C -2.147121 -1.246992 -2.4 -0.636487 -2.4 0 
C -2.4 0.636487 -2.147121 1.246992 -1.697056 1.697056 
C -1.246992 2.147121 -0.636487 2.4 0 2.4 
z
" style="stroke: #d58c32; stroke-opacity: 0.8"/>
    </defs>
    <g clip-path="url(#p06e167c173)">
     <use xlink:href="#mb6c473a6d6" x="523.234815" y="300.080212" style="fill: #d58c32; fill-opacity: 0.8; stroke: #d58c32; stroke-opacity: 0.8"/>
     <use xlink:href="#mb6c473a6d6" x="381.706795" y="170.24068" style="fill: #d58c32; fill-opacity: 0.8; stroke: #d58c32; stroke-opacity: 0.8"/>
     <use xlink:href="#mb6c473a6d6" x="225.318468" y="159.047217" style="fill: #d58c32; fill-opacity: 0.8; stroke: #d58c32; stroke-opacity: 0.8"/>
     <use xlink:href="#mb6c473a6d6" x="109.90056" y="300.080212" style="fill: #d58c32; fill-opacity: 0.8; stroke: #d58c32; stroke-opacity: 0.8"/>
     <use xlink:href="#mb6c473a6d6" x="198.498452" y="487.566839" style="fill: #d58c32; fill-opacity: 0.8; stroke: #d58c32; stroke-opacity: 0.8"/>
     <use xlink:href="#mb6c473a6d6" x="401.559653" y="464.305903" style="fill: #d58c32; fill-opacity: 0.8; stroke: #d58c32; stroke-opacity: 0.8"/>
     <use xlink:href="#mb6c473a6d6" x="523.234815" y="300.080212" style="fill: #d58c32; fill-opacity: 0.8; stroke: #d58c32; stroke-opacity: 0.8"/>
    </g>
   </g>
   <g id="line2d_14">
    <path d="M 318.951415 300.080212 
L 306.743906 300.080212 
L 306.743906 300.080212 
L 293.617096 300.080212 
M 332.535092 344.751857 
L 318.951415 300.080212 
" clip-path="url(#p06e167c173)" style="fill: none; stroke: #a4a031; stroke-opacity: 0.8; stroke-width: 2; stroke-linecap: round"/>
    <defs>
     <path id="m3523ed0b75" d="M 0 2.4 
C 0.636487 2.4 1.246992 2.147121 1.697056 1.697056 
C 2.147121 1.246992 2.4 0.636487 2.4 0 
C 2.4 -0.636487 2.147121 -1.246992 1.697056 -1.697056 
C 1.246992 -2.147121 0.636487 -2.4 0 -2.4 
C -0.636487 -2.4 -1.246992 -2.147121 -1.697056 -1.697056 
C -2.147121 -1.246992 -2.4 -0.636487 -2.4 0 
C -2.4 0.636487 -2.147121 1.246992 -1.697056 1.697056 
C -1.246992 2.147121 -0.636487 2.4 0 2.4 
z
" style="stroke: #a4a031; stroke-opacity: 0.8"/>
    </defs>
    <g clip-path="url(#p06e167c173)">
     <use xlink:href="#m3523ed0b75" x="318.951415" y="300.080212" style="fill: #a4a031; fill-opacity: 0.8; stroke: #a4a031; stroke-opacity: 0.8"/>
     <use xlink:href="#m3523ed0b75" x="306.743906" y="300.080212" style="fill: #a4a031; fill-opacity: 0.8; stroke: #a4a031; stroke-opacity: 0.8"/>
     <use xlink:href="#m3523ed0b75" x="306.743906" y="300.080212" style="fill: #a4a031; fill-opacity: 0.8; stroke: #a4a031; stroke-opacity: 0.8"/>
     <use xlink:href="#m3523ed0b75" x="293.617096" y="300.080212" style="fill: #a4a031; fill-opacity: 0.8; stroke: #a4a031; stroke-opacity: 0.8"/>
     <use xlink:href="#m3523ed0b75" x="332.535092" y="344.751857" style="fill: #a4a031; fill-opacity: 0.8; stroke: #a4a031; stroke-opacity: 0.8"/>
     <use xlink:href="#m3523ed0b75" x="318.951415" y="300.080212" style="fill: #a4a031; fill-opacity: 0.8; stroke: #a4a031; stroke-opacity: 0.8"/>
    </g>
   </g>
   <g id="line2d_15">
    <path d="M 488.195921 300.080212 
L 357.674344 211.866107 
L 251.07019 203.650507 
L 96.935333 300.080212 
L 198.498452 487.566839 
L 330.514302 341.251746 
L 488.195921 300.080212 
" clip-path="url(#p06e167c173)" style="fill: none; stroke: #50b131; stroke-opacity: 0.8; stroke-width: 2; stroke-linecap: round"/>
    <defs>
     <path id="me0b258f8cc" d="M 0 2.4 
C 0.636487 2.4 1.246992 2.147121 1.697056 1.697056 
C 2.147121 1.246992 2.4 0.636487 2.4 0 
C 2.4 -0.636487 2.147121 -1.246992 1.697056 -1.697056 
C 1.246992 -2.147121 0.636487 -2.4 0 -2.4 
C -0.636487 -2.4 -1.246992 -2.147121 -1.697056 -1.697056 
C -2.147121 -1.246992 -2.4 -0.636487 -2.4 0 
C -2.4 0.636487 -2.147121 1.246992 -1.697056 1.697056 
C -1.246992 2.147121 -0.636487 2.4 0 2.4 
z
" style="stroke: #50b131; stroke-opacity: 0.8"/>
    </defs>
    <g clip-path="url(#p06e167c173)">
     <use xlink:href="#me0b258f8cc" x="488.195921" y="300.080212" style="fill: #50b131; fill-opacity: 0.8; stroke: #50b131; stroke-opacity: 0.8"/>
     <use xlink:href="#me0b258f8cc" x="357.674344" y="211.866107" style="fill: #50b131; fill-opacity: 0.8; stroke: #50b131; stroke-opacity: 0.8"/>
     <use xlink:href="#me0b258f8cc" x="251.07019" y="203.650507" style="fill: #50b131; fill-opacity: 0.8; stroke: #50b131; stroke-opacity: 0.8"/>
     <use xlink:href="#me0b258f8cc" x="96.935333" y="300.080212" style="fill: #50b131; fill-opacity: 0.8; stroke: #50b131; stroke-opacity: 0.8"/>
     <use xlink:href="#me0b258f8cc" x="198.498452" y="487.566839" style="fill: #50b131; fill-opacity: 0.8; stroke: #50b131; stroke-opacity: 0.8"/>
     <use xlink:href="#me0b258f8cc" x="330.514302" y="341.251746" style="fill: #50b131; fill-opacity: 0.8; stroke: #50b131; stroke-opacity: 0.8"/>
     <use xlink:href="#me0b258f8cc" x="488.195921" y="300.080212" style="fill: #50b131; fill-opacity: 0.8; stroke: #50b131; stroke-opacity: 0.8"/>
    </g>
   </g>
   <g id="line2d_16">
    <path d="M 496.019445 300.080212 
L 360.199533 207.49235 
L 247.172059 196.898746 
L 92.817976 300.080212 
L 198.498452 487.566839 
L 332.151438 344.087348 
L 496.019445 300.080212 
" clip-path="url(#p06e167c173)" style="fill: none; stroke: #34ae91; stroke-opacity: 0.8; stroke-width: 2; stroke-linecap: round"/>
    <defs>
     <path id="me64e7d8864" d="M 0 2.4 
C 0.636487 2.4 1.246992 2.147121 1.697056 1.697056 
C 2.147121 1.246992 2.4 0.636487 2.4 0 
C 2.4 -0.636487 2.147121 -1.246992 1.697056 -1.697056 
C 1.246992 -2.147121 0.636487 -2.4 0 -2.4 
C -0.636487 -2.4 -1.246992 -2.147121 -1.697056 -1.697056 
C -2.147121 -1.246992 -2.4 -0.636487 -2.4 0 
C -2.4 0.636487 -2.147121 1.246992 -1.697056 1.697056 
C -1.246992 2.147121 -0.636487 2.4 0 2.4 
z
" style="stroke: #34ae91; stroke-opacity: 0.8"/>
    </defs>
    <g clip-path="url(#p06e167c173)">
     <use xlink:href="#me64e7d8864" x="496.019445" y="300.080212" style="fill: #34ae91; fill-opacity: 0.8; stroke: #34ae91; stroke-opacity: 0.8"/>
     <use xlink:href="#me64e7d8864" x="360.199533" y="207.49235" style="fill: #34ae91; fill-opacity: 0.8; stroke: #34ae91; stroke-opacity: 0.8"/>
     <use xlink:href="#me64e7d8864" x="247.172059" y="196.898746" style="fill: #34ae91; fill-opacity: 0.8; stroke: #34ae91; stroke-opacity: 0.8"/>
     <use xlink:href="#me64e7d8864" x="92.817976" y="300.080212" style="fill: #34ae91; fill-opacity: 0.8; stroke: #34ae91; stroke-opacity: 0.8"/>
     <use xlink:href="#me64e7d8864" x="198.498452" y="487.566839" style="fill: #34ae91; fill-opacity: 0.8; stroke: #34ae91; stroke-opacity: 0.8"/>
     <use xlink:href="#me64e7d8864" x="332.151438" y="344.087348" style="fill: #34ae91; fill-opacity: 0.8; stroke: #34ae91; stroke-opacity: 0.8"/>
     <use xlink:href="#me64e7d8864" x="496.019445" y="300.080212" style="fill: #34ae91; fill-opacity: 0.8; stroke: #34ae91; stroke-opacity: 0.8"/>
    </g>
   </g>
   <g id="line2d_17">
    <path d="M 449.1057 300.080212 
L 414.989361 112.593586 
L 198.498452 112.593586 
L 196.445692 300.080212 
L 198.498452 487.566839 
L 390.19812 444.62715 
L 449.1057 300.080212 
" clip-path="url(#p06e167c173)" style="fill: none; stroke: #37abb5; stroke-opacity: 0.8; stroke-width: 2; stroke-linecap: round"/>
    <defs>
     <path id="m5842050428" d="M 0 2.4 
C 0.636487 2.4 1.246992 2.147121 1.697056 1.697056 
C 2.147121 1.246992 2.4 0.636487 2.4 0 
C 2.4 -0.636487 2.147121 -1.246992 1.697056 -1.697056 
C 1.246992 -2.147121 0.636487 -2.4 0 -2.4 
C -0.636487 -2.4 -1.246992 -2.147121 -1.697056 -1.697056 
C -2.147121 -1.246992 -2.4 -0.636487 -2.4 0 
C -2.4 0.636487 -2.147121 1.246992 -1.697056 1.697056 
C -1.246992 2.147121 -0.636487 2.4 0 2.4 
z
" style="stroke: #37abb5; stroke-opacity: 0.8"/>
    </defs>
    <g clip-path="url(#p06e167c173)">
     <use xlink:href="#m5842050428" x="449.1057" y="300.080212" style="fill: #37abb5; fill-opacity: 0.8; stroke: #37abb5; stroke-opacity: 0.8"/>
     <use xlink:href="#m5842050428" x="414.989361" y="112.593586" style="fill: #37abb5; fill-opacity: 0.8; stroke: #37abb5; stroke-opacity: 0.8"/>
     <use xlink:href="#m5842050428" x="198.498452" y="112.593586" style="fill: #37abb5; fill-opacity: 0.8; stroke: #37abb5; stroke-opacity: 0.8"/>
     <use xlink:href="#m5842050428" x="196.445692" y="300.080212" style="fill: #37abb5; fill-opacity: 0.8; stroke: #37abb5; stroke-opacity: 0.8"/>
     <use xlink:href="#m5842050428" x="198.498452" y="487.566839" style="fill: #37abb5; fill-opacity: 0.8; stroke: #37abb5; stroke-opacity: 0.8"/>
     <use xlink:href="#m5842050428" x="390.19812" y="444.62715" style="fill: #37abb5; fill-opacity: 0.8; stroke: #37abb5; stroke-opacity: 0.8"/>
     <use xlink:href="#m5842050428" x="449.1057" y="300.080212" style="fill: #37abb5; fill-opacity: 0.8; stroke: #37abb5; stroke-opacity: 0.8"/>
    </g>
   </g>
   <g id="line2d_18">
    <path d="M 522.783294 300.080212 
L 386.685205 161.617821 
L 223.732853 156.300851 
L 92.303356 300.080212 
L 198.498452 487.566839 
L 391.049061 446.101024 
L 522.783294 300.080212 
" clip-path="url(#p06e167c173)" style="fill: none; stroke: #3ba3ec; stroke-opacity: 0.8; stroke-width: 2; stroke-linecap: round"/>
    <defs>
     <path id="m7c5b8f2810" d="M 0 2.4 
C 0.636487 2.4 1.246992 2.147121 1.697056 1.697056 
C 2.147121 1.246992 2.4 0.636487 2.4 0 
C 2.4 -0.636487 2.147121 -1.246992 1.697056 -1.697056 
C 1.246992 -2.147121 0.636487 -2.4 0 -2.4 
C -0.636487 -2.4 -1.246992 -2.147121 -1.697056 -1.697056 
C -2.147121 -1.246992 -2.4 -0.636487 -2.4 0 
C -2.4 0.636487 -2.147121 1.246992 -1.697056 1.697056 
C -1.246992 2.147121 -0.636487 2.4 0 2.4 
z
" style="stroke: #3ba3ec; stroke-opacity: 0.8"/>
    </defs>
    <g clip-path="url(#p06e167c173)">
     <use xlink:href="#m7c5b8f2810" x="522.783294" y="300.080212" style="fill: #3ba3ec; fill-opacity: 0.8; stroke: #3ba3ec; stroke-opacity: 0.8"/>
     <use xlink:href="#m7c5b8f2810" x="386.685205" y="161.617821" style="fill: #3ba3ec; fill-opacity: 0.8; stroke: #3ba3ec; stroke-opacity: 0.8"/>
     <use xlink:href="#m7c5b8f2810" x="223.732853" y="156.300851" style="fill: #3ba3ec; fill-opacity: 0.8; stroke: #3ba3ec; stroke-opacity: 0.8"/>
     <use xlink:href="#m7c5b8f2810" x="92.303356" y="300.080212" style="fill: #3ba3ec; fill-opacity: 0.8; stroke: #3ba3ec; stroke-opacity: 0.8"/>
     <use xlink:href="#m7c5b8f2810" x="198.498452" y="487.566839" style="fill: #3ba3ec; fill-opacity: 0.8; stroke: #3ba3ec; stroke-opacity: 0.8"/>
     <use xlink:href="#m7c5b8f2810" x="391.049061" y="446.101024" style="fill: #3ba3ec; fill-opacity: 0.8; stroke: #3ba3ec; stroke-opacity: 0.8"/>
     <use xlink:href="#m7c5b8f2810" x="522.783294" y="300.080212" style="fill: #3ba3ec; fill-opacity: 0.8; stroke: #3ba3ec; stroke-opacity: 0.8"/>
    </g>
   </g>
   <g id="line2d_19">
    <path d="M 518.207794 300.080212 
L 386.135976 162.569114 
L 223.301038 155.552926 
L 90.252997 300.080212 
L 198.498452 487.566839 
L 414.989361 487.566839 
L 518.207794 300.080212 
" clip-path="url(#p06e167c173)" style="fill: none; stroke: #bb83f4; stroke-opacity: 0.8; stroke-width: 2; stroke-linecap: round"/>
    <defs>
     <path id="m3ab482eef4" d="M 0 2.4 
C 0.636487 2.4 1.246992 2.147121 1.697056 1.697056 
C 2.147121 1.246992 2.4 0.636487 2.4 0 
C 2.4 -0.636487 2.147121 -1.246992 1.697056 -1.697056 
C 1.246992 -2.147121 0.636487 -2.4 0 -2.4 
C -0.636487 -2.4 -1.246992 -2.147121 -1.697056 -1.697056 
C -2.147121 -1.246992 -2.4 -0.636487 -2.4 0 
C -2.4 0.636487 -2.147121 1.246992 -1.697056 1.697056 
C -1.246992 2.147121 -0.636487 2.4 0 2.4 
z
" style="stroke: #bb83f4; stroke-opacity: 0.8"/>
    </defs>
    <g clip-path="url(#p06e167c173)">
     <use xlink:href="#m3ab482eef4" x="518.207794" y="300.080212" style="fill: #bb83f4; fill-opacity: 0.8; stroke: #bb83f4; stroke-opacity: 0.8"/>
     <use xlink:href="#m3ab482eef4" x="386.135976" y="162.569114" style="fill: #bb83f4; fill-opacity: 0.8; stroke: #bb83f4; stroke-opacity: 0.8"/>
     <use xlink:href="#m3ab482eef4" x="223.301038" y="155.552926" style="fill: #bb83f4; fill-opacity: 0.8; stroke: #bb83f4; stroke-opacity: 0.8"/>
     <use xlink:href="#m3ab482eef4" x="90.252997" y="300.080212" style="fill: #bb83f4; fill-opacity: 0.8; stroke: #bb83f4; stroke-opacity: 0.8"/>
     <use xlink:href="#m3ab482eef4" x="198.498452" y="487.566839" style="fill: #bb83f4; fill-opacity: 0.8; stroke: #bb83f4; stroke-opacity: 0.8"/>
     <use xlink:href="#m3ab482eef4" x="414.989361" y="487.566839" style="fill: #bb83f4; fill-opacity: 0.8; stroke: #bb83f4; stroke-opacity: 0.8"/>
     <use xlink:href="#m3ab482eef4" x="518.207794" y="300.080212" style="fill: #bb83f4; fill-opacity: 0.8; stroke: #bb83f4; stroke-opacity: 0.8"/>
    </g>
   </g>
   <g id="line2d_20">
    <path d="M 306.743906 300.080212 
L 313.346241 288.644634 
L 303.351251 294.203961 
L 306.743906 300.080212 
M 353.781674 381.552017 
L 306.743906 300.080212 
" clip-path="url(#p06e167c173)" style="fill: none; stroke: #f564d4; stroke-opacity: 0.8; stroke-width: 2; stroke-linecap: round"/>
    <defs>
     <path id="mddcc2cd2fd" d="M 0 2.4 
C 0.636487 2.4 1.246992 2.147121 1.697056 1.697056 
C 2.147121 1.246992 2.4 0.636487 2.4 0 
C 2.4 -0.636487 2.147121 -1.246992 1.697056 -1.697056 
C 1.246992 -2.147121 0.636487 -2.4 0 -2.4 
C -0.636487 -2.4 -1.246992 -2.147121 -1.697056 -1.697056 
C -2.147121 -1.246992 -2.4 -0.636487 -2.4 0 
C -2.4 0.636487 -2.147121 1.246992 -1.697056 1.697056 
C -1.246992 2.147121 -0.636487 2.4 0 2.4 
z
" style="stroke: #f564d4; stroke-opacity: 0.8"/>
    </defs>
    <g clip-path="url(#p06e167c173)">
     <use xlink:href="#mddcc2cd2fd" x="306.743906" y="300.080212" style="fill: #f564d4; fill-opacity: 0.8; stroke: #f564d4; stroke-opacity: 0.8"/>
     <use xlink:href="#mddcc2cd2fd" x="313.346241" y="288.644634" style="fill: #f564d4; fill-opacity: 0.8; stroke: #f564d4; stroke-opacity: 0.8"/>
     <use xlink:href="#mddcc2cd2fd" x="303.351251" y="294.203961" style="fill: #f564d4; fill-opacity: 0.8; stroke: #f564d4; stroke-opacity: 0.8"/>
     <use xlink:href="#mddcc2cd2fd" x="306.743906" y="300.080212" style="fill: #f564d4; fill-opacity: 0.8; stroke: #f564d4; stroke-opacity: 0.8"/>
     <use xlink:href="#mddcc2cd2fd" x="353.781674" y="381.552017" style="fill: #f564d4; fill-opacity: 0.8; stroke: #f564d4; stroke-opacity: 0.8"/>
     <use xlink:href="#mddcc2cd2fd" x="306.743906" y="300.080212" style="fill: #f564d4; fill-opacity: 0.8; stroke: #f564d4; stroke-opacity: 0.8"/>
    </g>
   </g>
   <g id="patch_12">
    <path d="M 544.883906 300.080212 
C 544.883906 268.807954 538.723953 237.839779 526.756578 208.94798 
C 514.789203 180.056181 497.247141 153.80263 475.134315 131.689804 
C 453.021489 109.576978 426.767938 92.034916 397.876139 80.067541 
C 368.984339 68.100165 338.016165 61.940212 306.743906 61.940212 
C 275.471648 61.940212 244.503473 68.100165 215.611674 80.067541 
C 186.719874 92.034916 160.466323 109.576978 138.353497 131.689804 
C 116.240671 153.80263 98.69861 180.056181 86.731234 208.94798 
C 74.763859 237.839779 68.603906 268.807954 68.603906 300.080212 
C 68.603906 331.352471 74.763859 362.320646 86.731234 391.212445 
C 98.69861 420.104244 116.240671 446.357795 138.353497 468.470621 
C 160.466323 490.583447 186.719874 508.125509 215.611674 520.092884 
C 244.503473 532.06026 275.471648 538.220212 306.743906 538.220212 
C 338.016165 538.220212 368.984339 532.06026 397.876139 520.092884 
C 426.767938 508.125509 453.021489 490.583447 475.134315 468.470621 
C 497.247141 446.357795 514.789203 420.104244 526.756578 391.212445 
C 538.723953 362.320646 544.883906 331.352471 544.883906 300.080212 
" style="fill: none; stroke: #cccccc; stroke-linejoin: miter; stroke-linecap: square"/>
   </g>
   <g id="text_12">
    <!-- Algorithm Comparison Radar Chart -->
    <g style="fill: #262626" transform="translate(166.828125 17.837812) scale(0.14 -0.14)">
     <defs>
      <path id="DejaVuSerif-Bold-24" d="M -50 0 
L -50 378 
L 331 378 
L 2088 4666 
L 2834 4666 
L 4594 378 
L 5038 378 
L 5038 0 
L 2853 0 
L 2853 378 
L 3309 378 
L 2925 1331 
L 1172 1331 
L 781 378 
L 1338 378 
L 1338 0 
L -50 0 
z
M 1325 1709 
L 2772 1709 
L 2053 3494 
L 1325 1709 
z
" transform="scale(0.015625)"/>
      <path id="DejaVuSerif-Bold-4f" d="M 1797 378 
L 2272 378 
L 2272 0 
L 219 0 
L 219 378 
L 691 378 
L 691 4488 
L 219 4488 
L 219 4863 
L 1797 4863 
L 1797 378 
z
" transform="scale(0.015625)"/>
      <path id="DejaVuSerif-Bold-4a" d="M 3853 2944 
L 3853 44 
Q 3853 -656 3354 -1039 
Q 2856 -1422 1947 -1422 
Q 1616 -1422 1275 -1370 
Q 934 -1319 575 -1216 
L 575 -422 
L 928 -422 
Q 975 -750 1192 -909 
Q 1409 -1069 1813 -1069 
Q 2325 -1069 2536 -823 
Q 2747 -578 2747 44 
L 2747 422 
Q 2606 163 2367 36 
Q 2128 -91 1778 -91 
Q 1072 -91 667 378 
Q 263 847 263 1663 
Q 263 2481 667 2947 
Q 1072 3413 1778 3413 
Q 2128 3413 2367 3286 
Q 2606 3159 2747 2900 
L 2747 3322 
L 4325 3322 
L 4325 2944 
L 3853 2944 
z
M 2747 1825 
Q 2747 2406 2597 2665 
Q 2447 2925 2119 2925 
Q 1775 2925 1636 2651 
Q 1497 2378 1497 1663 
Q 1497 947 1637 672 
Q 1778 397 2119 397 
Q 2447 397 2597 656 
Q 2747 916 2747 1497 
L 2747 1825 
z
" transform="scale(0.015625)"/>
      <path id="DejaVuSerif-Bold-52" d="M 2138 263 
Q 2488 263 2630 563 
Q 2772 863 2772 1663 
Q 2772 2463 2631 2761 
Q 2491 3059 2138 3059 
Q 1784 3059 1640 2757 
Q 1497 2456 1497 1663 
Q 1497 869 1640 566 
Q 1784 263 2138 263 
z
M 2138 -91 
Q 1259 -91 761 376 
Q 263 844 263 1663 
Q 263 2484 761 2948 
Q 1259 3413 2138 3413 
Q 3019 3413 3516 2948 
Q 4013 2484 4013 1663 
Q 4013 844 3514 376 
Q 3016 -91 2138 -91 
z
" transform="scale(0.015625)"/>
      <path id="DejaVuSerif-Bold-55" d="M 3438 3359 
L 3438 2369 
L 3084 2369 
Q 3066 2634 2941 2764 
Q 2816 2894 2578 2894 
Q 2216 2894 2006 2575 
Q 1797 2256 1797 1691 
L 1797 378 
L 2400 378 
L 2400 0 
L 219 0 
L 219 378 
L 691 378 
L 691 2944 
L 184 2944 
L 184 3322 
L 1797 3322 
L 1797 2731 
Q 1959 3078 2226 3245 
Q 2494 3413 2881 3413 
Q 2978 3413 3117 3398 
Q 3256 3384 3438 3359 
z
" transform="scale(0.015625)"/>
      <path id="DejaVuSerif-Bold-4c" d="M 588 4263 
Q 588 4516 763 4689 
Q 938 4863 1191 4863 
Q 1438 4863 1611 4689 
Q 1784 4516 1784 4263 
Q 1784 4016 1611 3842 
Q 1438 3669 1191 3669 
Q 938 3669 763 3841 
Q 588 4013 588 4263 
z
M 1797 378 
L 2272 378 
L 2272 0 
L 219 0 
L 219 378 
L 691 378 
L 691 2944 
L 219 2944 
L 219 3322 
L 1797 3322 
L 1797 378 
z
" transform="scale(0.015625)"/>
      <path id="DejaVuSerif-Bold-57" d="M 634 2944 
L 153 2944 
L 153 3322 
L 634 3322 
L 634 4353 
L 1741 4353 
L 1741 3322 
L 2663 3322 
L 2663 2944 
L 1741 2944 
L 1741 909 
Q 1741 475 1809 369 
Q 1878 263 2059 263 
Q 2259 263 2356 397 
Q 2453 531 2459 813 
L 2925 813 
Q 2897 313 2651 111 
Q 2406 -91 1806 -91 
Q 1122 -91 878 123 
Q 634 338 634 909 
L 634 2944 
z
" transform="scale(0.015625)"/>
      <path id="DejaVuSerif-Bold-4b" d="M 219 0 
L 219 378 
L 691 378 
L 691 4488 
L 197 4488 
L 197 4863 
L 1797 4863 
L 1797 2853 
Q 1997 3150 2253 3281 
Q 2509 3413 2900 3413 
Q 3459 3413 3745 3083 
Q 4031 2753 4031 2113 
L 4031 378 
L 4506 378 
L 4506 0 
L 2522 0 
L 2522 378 
L 2925 378 
L 2925 2144 
Q 2925 2566 2817 2730 
Q 2709 2894 2444 2894 
Q 2109 2894 1953 2648 
Q 1797 2403 1797 1869 
L 1797 378 
L 2203 378 
L 2203 0 
L 219 0 
z
" transform="scale(0.015625)"/>
      <path id="DejaVuSerif-Bold-50" d="M 3884 2778 
Q 4116 3109 4384 3261 
Q 4653 3413 5013 3413 
Q 5584 3413 5867 3089 
Q 6150 2766 6150 2113 
L 6150 378 
L 6625 378 
L 6625 0 
L 4647 0 
L 4647 378 
L 5044 378 
L 5044 1947 
Q 5044 2569 4948 2731 
Q 4853 2894 4594 2894 
Q 4300 2894 4137 2667 
Q 3975 2441 3975 2022 
L 3975 378 
L 4372 378 
L 4372 0 
L 2472 0 
L 2472 378 
L 2869 378 
L 2869 1947 
Q 2869 2569 2772 2731 
Q 2675 2894 2419 2894 
Q 2122 2894 1959 2667 
Q 1797 2441 1797 2022 
L 1797 378 
L 2194 378 
L 2194 0 
L 219 0 
L 219 378 
L 691 378 
L 691 2944 
L 219 2944 
L 219 3322 
L 1797 3322 
L 1797 2853 
Q 1991 3144 2241 3278 
Q 2491 3413 2834 3413 
Q 3241 3413 3494 3258 
Q 3747 3103 3884 2778 
z
" transform="scale(0.015625)"/>
      <path id="DejaVuSerif-Bold-3" transform="scale(0.015625)"/>
      <path id="DejaVuSerif-Bold-26" d="M 4769 1331 
Q 4584 609 4106 259 
Q 3628 -91 2822 -91 
Q 1641 -91 955 561 
Q 269 1213 269 2328 
Q 269 3447 955 4098 
Q 1641 4750 2822 4750 
Q 3238 4750 3688 4650 
Q 4138 4550 4641 4347 
L 4641 3200 
L 4244 3200 
Q 4122 3788 3800 4080 
Q 3478 4372 2950 4372 
Q 2269 4372 1937 3870 
Q 1606 3369 1606 2328 
Q 1606 1288 1937 788 
Q 2269 288 2956 288 
Q 3422 288 3717 547 
Q 4013 806 4147 1331 
L 4769 1331 
z
" transform="scale(0.015625)"/>
      <path id="DejaVuSerif-Bold-53" d="M 1728 1825 
L 1728 1497 
Q 1728 916 1876 656 
Q 2025 397 2356 397 
Q 2697 397 2836 672 
Q 2975 947 2975 1663 
Q 2975 2378 2836 2651 
Q 2697 2925 2356 2925 
Q 2025 2925 1876 2665 
Q 1728 2406 1728 1825 
z
M 622 2944 
L 147 2944 
L 147 3322 
L 1728 3322 
L 1728 2900 
Q 1869 3159 2106 3286 
Q 2344 3413 2694 3413 
Q 3403 3413 3811 2945 
Q 4219 2478 4219 1663 
Q 4219 847 3811 378 
Q 3403 -91 2694 -91 
Q 2344 -91 2106 36 
Q 1869 163 1728 422 
L 1728 -953 
L 2241 -953 
L 2241 -1331 
L 147 -1331 
L 147 -953 
L 622 -953 
L 622 2944 
z
" transform="scale(0.015625)"/>
      <path id="DejaVuSerif-Bold-44" d="M 3525 2041 
L 3525 378 
L 4000 378 
L 4000 0 
L 2419 0 
L 2419 422 
Q 2200 159 1931 34 
Q 1663 -91 1319 -91 
Q 809 -91 536 182 
Q 263 456 263 966 
Q 263 1525 655 1803 
Q 1047 2081 1838 2081 
L 2419 2081 
L 2419 2278 
Q 2419 2681 2228 2873 
Q 2038 3066 1638 3066 
Q 1306 3066 1126 2930 
Q 947 2794 872 2484 
L 519 2484 
L 519 3200 
Q 816 3306 1134 3359 
Q 1453 3413 1806 3413 
Q 2697 3413 3111 3081 
Q 3525 2750 3525 2041 
z
M 2419 1044 
L 2419 1709 
L 2003 1709 
Q 1694 1709 1528 1540 
Q 1363 1372 1363 1056 
Q 1363 741 1483 584 
Q 1603 428 1850 428 
Q 2106 428 2262 597 
Q 2419 766 2419 1044 
z
" transform="scale(0.015625)"/>
      <path id="DejaVuSerif-Bold-56" d="M 300 97 
L 300 1025 
L 653 1025 
Q 697 653 931 458 
Q 1166 263 1569 263 
Q 1906 263 2086 380 
Q 2266 497 2266 716 
Q 2266 916 2152 1025 
Q 2038 1134 1709 1216 
L 1253 1331 
Q 738 1459 506 1698 
Q 275 1938 275 2344 
Q 275 2884 650 3148 
Q 1025 3413 1806 3413 
Q 2100 3413 2433 3364 
Q 2766 3316 3169 3213 
L 3169 2375 
L 2816 2375 
Q 2788 2716 2573 2887 
Q 2359 3059 1959 3059 
Q 1622 3059 1448 2951 
Q 1275 2844 1275 2638 
Q 1275 2469 1375 2372 
Q 1475 2275 1734 2209 
L 2188 2094 
Q 2841 1928 3091 1684 
Q 3341 1441 3341 1006 
Q 3341 444 2939 176 
Q 2538 -91 1691 -91 
Q 1381 -91 1034 -44 
Q 688 3 300 97 
z
" transform="scale(0.015625)"/>
      <path id="DejaVuSerif-Bold-51" d="M 219 0 
L 219 378 
L 691 378 
L 691 2944 
L 219 2944 
L 219 3322 
L 1797 3322 
L 1797 2853 
Q 1997 3150 2253 3281 
Q 2509 3413 2900 3413 
Q 3459 3413 3745 3083 
Q 4031 2753 4031 2113 
L 4031 378 
L 4506 378 
L 4506 0 
L 2522 0 
L 2522 378 
L 2925 378 
L 2925 2144 
Q 2925 2566 2817 2730 
Q 2709 2894 2444 2894 
Q 2109 2894 1953 2648 
Q 1797 2403 1797 1869 
L 1797 378 
L 2203 378 
L 2203 0 
L 219 0 
z
" transform="scale(0.015625)"/>
      <path id="DejaVuSerif-Bold-35" d="M 3397 2278 
Q 3675 2238 3865 2094 
Q 4056 1950 4197 1678 
L 4878 378 
L 5356 378 
L 5356 0 
L 3822 0 
L 3078 1409 
Q 2863 1847 2711 1967 
Q 2559 2088 2291 2088 
L 2100 2088 
L 2100 378 
L 2700 378 
L 2700 0 
L 300 0 
L 300 378 
L 897 378 
L 897 4288 
L 300 4288 
L 300 4666 
L 2963 4666 
Q 3775 4666 4217 4339 
Q 4659 4013 4659 3413 
Q 4659 2925 4345 2642 
Q 4031 2359 3397 2278 
z
M 2100 2463 
L 2509 2463 
Q 2947 2463 3183 2700 
Q 3419 2938 3419 3378 
Q 3419 3819 3183 4053 
Q 2947 4288 2509 4288 
L 2100 4288 
L 2100 2463 
z
" transform="scale(0.015625)"/>
      <path id="DejaVuSerif-Bold-47" d="M 2747 1497 
L 2747 1825 
Q 2747 2406 2597 2665 
Q 2447 2925 2119 2925 
Q 1775 2925 1636 2651 
Q 1497 2378 1497 1663 
Q 1497 947 1637 672 
Q 1778 397 2119 397 
Q 2447 397 2597 656 
Q 2747 916 2747 1497 
z
M 3853 378 
L 4325 378 
L 4325 0 
L 2747 0 
L 2747 422 
Q 2606 163 2367 36 
Q 2128 -91 1778 -91 
Q 1072 -91 667 378 
Q 263 847 263 1663 
Q 263 2481 667 2947 
Q 1072 3413 1778 3413 
Q 2128 3413 2367 3286 
Q 2606 3159 2747 2900 
L 2747 4488 
L 2272 4488 
L 2272 4863 
L 3853 4863 
L 3853 378 
z
" transform="scale(0.015625)"/>
     </defs>
     <use xlink:href="#DejaVuSerif-Bold-24"/>
     <use xlink:href="#DejaVuSerif-Bold-4f" transform="translate(77.59375 0)"/>
     <use xlink:href="#DejaVuSerif-Bold-4a" transform="translate(115.578125 0)"/>
     <use xlink:href="#DejaVuSerif-Bold-52" transform="translate(185.5 0)"/>
     <use xlink:href="#DejaVuSerif-Bold-55" transform="translate(252.203125 0)"/>
     <use xlink:href="#DejaVuSerif-Bold-4c" transform="translate(304.890625 0)"/>
     <use xlink:href="#DejaVuSerif-Bold-57" transform="translate(342.875 0)"/>
     <use xlink:href="#DejaVuSerif-Bold-4b" transform="translate(389.0625 0)"/>
     <use xlink:href="#DejaVuSerif-Bold-50" transform="translate(461.765625 0)"/>
     <use xlink:href="#DejaVuSerif-Bold-3" transform="translate(567.578125 0)"/>
     <use xlink:href="#DejaVuSerif-Bold-26" transform="translate(602.390625 0)"/>
     <use xlink:href="#DejaVuSerif-Bold-52" transform="translate(681.984375 0)"/>
     <use xlink:href="#DejaVuSerif-Bold-50" transform="translate(748.6875 0)"/>
     <use xlink:href="#DejaVuSerif-Bold-53" transform="translate(854.5 0)"/>
     <use xlink:href="#DejaVuSerif-Bold-44" transform="translate(924.421875 0)"/>
     <use xlink:href="#DejaVuSerif-Bold-55" transform="translate(989.21875 0)"/>
     <use xlink:href="#DejaVuSerif-Bold-4c" transform="translate(1041.90625 0)"/>
     <use xlink:href="#DejaVuSerif-Bold-56" transform="translate(1079.890625 0)"/>
     <use xlink:href="#DejaVuSerif-Bold-52" transform="translate(1136.1875 0)"/>
     <use xlink:href="#DejaVuSerif-Bold-51" transform="translate(1202.890625 0)"/>
     <use xlink:href="#DejaVuSerif-Bold-3" transform="translate(1275.59375 0)"/>
     <use xlink:href="#DejaVuSerif-Bold-35" transform="translate(1310.40625 0)"/>
     <use xlink:href="#DejaVuSerif-Bold-44" transform="translate(1395.8125 0)"/>
     <use xlink:href="#DejaVuSerif-Bold-47" transform="translate(1460.609375 0)"/>
     <use xlink:href="#DejaVuSerif-Bold-44" transform="translate(1530.53125 0)"/>
     <use xlink:href="#DejaVuSerif-Bold-55" transform="translate(1595.328125 0)"/>
     <use xlink:href="#DejaVuSerif-Bold-3" transform="translate(1648.015625 0)"/>
     <use xlink:href="#DejaVuSerif-Bold-26" transform="translate(1682.828125 0)"/>
     <use xlink:href="#DejaVuSerif-Bold-4b" transform="translate(1762.421875 0)"/>
     <use xlink:href="#DejaVuSerif-Bold-44" transform="translate(1835.125 0)"/>
     <use xlink:href="#DejaVuSerif-Bold-55" transform="translate(1899.921875 0)"/>
     <use xlink:href="#DejaVuSerif-Bold-57" transform="translate(1952.609375 0)"/>
    </g>
   </g>
   <g id="legend_1">
    <g id="patch_13">
     <path d="M 568.419469 143.018541 
L 681.467906 143.018541 
Q 683.267906 143.018541 683.267906 141.218541 
L 683.267906 20.612212 
Q 683.267906 18.812212 681.467906 18.812212 
L 568.419469 18.812212 
Q 566.619469 18.812212 566.619469 20.612212 
L 566.619469 141.218541 
Q 566.619469 143.018541 568.419469 143.018541 
z
" style="fill: #ffffff; opacity: 0.8; stroke: #cccccc; stroke-width: 0.8; stroke-linejoin: miter"/>
    </g>
    <g id="line2d_21">
     <path d="M 570.219469 26.100806 
L 579.219469 26.100806 
L 588.219469 26.100806 
" style="fill: none; stroke: #f77189; stroke-opacity: 0.8; stroke-width: 2; stroke-linecap: round"/>
     <g>
      <use xlink:href="#m76d72b68ba" x="579.219469" y="26.100806" style="fill: #f77189; fill-opacity: 0.8; stroke: #f77189; stroke-opacity: 0.8"/>
     </g>
    </g>
    <g id="text_13">
     <!-- ADE-FCM -->
     <g style="fill: #262626" transform="translate(595.419469 29.250806) scale(0.09 -0.09)">
      <defs>
       <path id="DejaVuSerif-28" d="M 353 0 
L 353 331 
L 947 331 
L 947 4331 
L 353 4331 
L 353 4666 
L 4109 4666 
L 4109 3628 
L 3725 3628 
L 3725 4281 
L 1581 4281 
L 1581 2719 
L 3109 2719 
L 3109 3303 
L 3494 3303 
L 3494 1753 
L 3109 1753 
L 3109 2338 
L 1581 2338 
L 1581 384 
L 3775 384 
L 3775 1038 
L 4159 1038 
L 4159 0 
L 353 0 
z
" transform="scale(0.015625)"/>
       <path id="DejaVuSerif-10" d="M 281 1959 
L 1881 1959 
L 1881 1472 
L 281 1472 
L 281 1959 
z
" transform="scale(0.015625)"/>
       <path id="DejaVuSerif-29" d="M 353 0 
L 353 331 
L 947 331 
L 947 4331 
L 353 4331 
L 353 4666 
L 4172 4666 
L 4172 3628 
L 3788 3628 
L 3788 4281 
L 1581 4281 
L 1581 2719 
L 3175 2719 
L 3175 3303 
L 3559 3303 
L 3559 1753 
L 3175 1753 
L 3175 2338 
L 1581 2338 
L 1581 331 
L 2328 331 
L 2328 0 
L 353 0 
z
" transform="scale(0.015625)"/>
       <path id="DejaVuSerif-30" d="M 353 0 
L 353 331 
L 947 331 
L 947 4331 
L 319 4331 
L 319 4666 
L 1678 4666 
L 3316 1344 
L 4953 4666 
L 6228 4666 
L 6228 4331 
L 5606 4331 
L 5606 331 
L 6203 331 
L 6203 0 
L 4378 0 
L 4378 331 
L 4972 331 
L 4972 3938 
L 3372 684 
L 2931 684 
L 1331 3938 
L 1331 331 
L 1925 331 
L 1925 0 
L 353 0 
z
" transform="scale(0.015625)"/>
      </defs>
      <use xlink:href="#DejaVuSerif-24"/>
      <use xlink:href="#DejaVuSerif-27" transform="translate(72.21875 0)"/>
      <use xlink:href="#DejaVuSerif-28" transform="translate(152.390625 0)"/>
      <use xlink:href="#DejaVuSerif-10" transform="translate(227.25 0)"/>
      <use xlink:href="#DejaVuSerif-29" transform="translate(261.046875 0)"/>
      <use xlink:href="#DejaVuSerif-26" transform="translate(330.4375 0)"/>
      <use xlink:href="#DejaVuSerif-30" transform="translate(406.953125 0)"/>
     </g>
    </g>
    <g id="line2d_22">
     <path d="M 570.219469 39.601509 
L 579.219469 39.601509 
L 588.219469 39.601509 
" style="fill: none; stroke: #d58c32; stroke-opacity: 0.8; stroke-width: 2; stroke-linecap: round"/>
     <g>
      <use xlink:href="#mb6c473a6d6" x="579.219469" y="39.601509" style="fill: #d58c32; fill-opacity: 0.8; stroke: #d58c32; stroke-opacity: 0.8"/>
     </g>
    </g>
    <g id="text_14">
     <!-- Agglomerative -->
     <g style="fill: #262626" transform="translate(595.419469 42.751509) scale(0.09 -0.09)">
      <defs>
       <path id="DejaVuSerif-4a" d="M 3359 2988 
L 3359 72 
Q 3359 -644 2965 -1033 
Q 2572 -1422 1844 -1422 
Q 1516 -1422 1216 -1362 
Q 916 -1303 641 -1184 
L 641 -488 
L 941 -488 
Q 997 -813 1206 -963 
Q 1416 -1113 1806 -1113 
Q 2313 -1113 2548 -827 
Q 2784 -541 2784 72 
L 2784 519 
Q 2616 206 2355 57 
Q 2094 -91 1709 -91 
Q 1097 -91 708 395 
Q 319 881 319 1663 
Q 319 2444 706 2928 
Q 1094 3413 1709 3413 
Q 2094 3413 2355 3264 
Q 2616 3116 2784 2803 
L 2784 3322 
L 3909 3322 
L 3909 2988 
L 3359 2988 
z
M 2784 1825 
Q 2784 2422 2554 2737 
Q 2325 3053 1888 3053 
Q 1444 3053 1217 2703 
Q 991 2353 991 1663 
Q 991 975 1217 622 
Q 1444 269 1888 269 
Q 2325 269 2554 583 
Q 2784 897 2784 1497 
L 2784 1825 
z
" transform="scale(0.015625)"/>
      </defs>
      <use xlink:href="#DejaVuSerif-24"/>
      <use xlink:href="#DejaVuSerif-4a" transform="translate(72.21875 0)"/>
      <use xlink:href="#DejaVuSerif-4a" transform="translate(136.234375 0)"/>
      <use xlink:href="#DejaVuSerif-4f" transform="translate(200.25 0)"/>
      <use xlink:href="#DejaVuSerif-52" transform="translate(232.234375 0)"/>
      <use xlink:href="#DejaVuSerif-50" transform="translate(292.4375 0)"/>
      <use xlink:href="#DejaVuSerif-48" transform="translate(387.265625 0)"/>
      <use xlink:href="#DejaVuSerif-55" transform="translate(446.453125 0)"/>
      <use xlink:href="#DejaVuSerif-44" transform="translate(494.25 0)"/>
      <use xlink:href="#DejaVuSerif-57" transform="translate(553.875 0)"/>
      <use xlink:href="#DejaVuSerif-4c" transform="translate(594.0625 0)"/>
      <use xlink:href="#DejaVuSerif-59" transform="translate(626.046875 0)"/>
      <use xlink:href="#DejaVuSerif-48" transform="translate(682.546875 0)"/>
     </g>
    </g>
    <g id="line2d_23">
     <path d="M 570.219469 53.102212 
L 579.219469 53.102212 
L 588.219469 53.102212 
" style="fill: none; stroke: #a4a031; stroke-opacity: 0.8; stroke-width: 2; stroke-linecap: round"/>
     <g>
      <use xlink:href="#m3523ed0b75" x="579.219469" y="53.102212" style="fill: #a4a031; fill-opacity: 0.8; stroke: #a4a031; stroke-opacity: 0.8"/>
     </g>
    </g>
    <g id="text_15">
     <!-- DBSCAN -->
     <g style="fill: #262626" transform="translate(595.419469 56.252212) scale(0.09 -0.09)">
      <use xlink:href="#DejaVuSerif-27"/>
      <use xlink:href="#DejaVuSerif-25" transform="translate(80.171875 0)"/>
      <use xlink:href="#DejaVuSerif-36" transform="translate(153.65625 0)"/>
      <use xlink:href="#DejaVuSerif-26" transform="translate(222.15625 0)"/>
      <use xlink:href="#DejaVuSerif-24" transform="translate(298.671875 0)"/>
      <use xlink:href="#DejaVuSerif-31" transform="translate(370.890625 0)"/>
     </g>
    </g>
    <g id="line2d_24">
     <path d="M 570.219469 66.602916 
L 579.219469 66.602916 
L 588.219469 66.602916 
" style="fill: none; stroke: #50b131; stroke-opacity: 0.8; stroke-width: 2; stroke-linecap: round"/>
     <g>
      <use xlink:href="#me0b258f8cc" x="579.219469" y="66.602916" style="fill: #50b131; fill-opacity: 0.8; stroke: #50b131; stroke-opacity: 0.8"/>
     </g>
    </g>
    <g id="text_16">
     <!-- FCLM -->
     <g style="fill: #262626" transform="translate(595.419469 69.752916) scale(0.09 -0.09)">
      <defs>
       <path id="DejaVuSerif-2f" d="M 353 0 
L 353 331 
L 947 331 
L 947 4331 
L 353 4331 
L 353 4666 
L 2175 4666 
L 2175 4331 
L 1581 4331 
L 1581 384 
L 3713 384 
L 3713 1166 
L 4097 1166 
L 4097 0 
L 353 0 
z
" transform="scale(0.015625)"/>
      </defs>
      <use xlink:href="#DejaVuSerif-29"/>
      <use xlink:href="#DejaVuSerif-26" transform="translate(69.390625 0)"/>
      <use xlink:href="#DejaVuSerif-2f" transform="translate(145.90625 0)"/>
      <use xlink:href="#DejaVuSerif-30" transform="translate(212.3125 0)"/>
     </g>
    </g>
    <g id="line2d_25">
     <path d="M 570.219469 80.103619 
L 579.219469 80.103619 
L 588.219469 80.103619 
" style="fill: none; stroke: #34ae91; stroke-opacity: 0.8; stroke-width: 2; stroke-linecap: round"/>
     <g>
      <use xlink:href="#me64e7d8864" x="579.219469" y="80.103619" style="fill: #34ae91; fill-opacity: 0.8; stroke: #34ae91; stroke-opacity: 0.8"/>
     </g>
    </g>
    <g id="text_17">
     <!-- FCM -->
     <g style="fill: #262626" transform="translate(595.419469 83.253619) scale(0.09 -0.09)">
      <use xlink:href="#DejaVuSerif-29"/>
      <use xlink:href="#DejaVuSerif-26" transform="translate(69.390625 0)"/>
      <use xlink:href="#DejaVuSerif-30" transform="translate(145.90625 0)"/>
     </g>
    </g>
    <g id="line2d_26">
     <path d="M 570.219469 93.604322 
L 579.219469 93.604322 
L 588.219469 93.604322 
" style="fill: none; stroke: #37abb5; stroke-opacity: 0.8; stroke-width: 2; stroke-linecap: round"/>
     <g>
      <use xlink:href="#m5842050428" x="579.219469" y="93.604322" style="fill: #37abb5; fill-opacity: 0.8; stroke: #37abb5; stroke-opacity: 0.8"/>
     </g>
    </g>
    <g id="text_18">
     <!-- GaussianMixture -->
     <g style="fill: #262626" transform="translate(595.419469 96.754322) scale(0.09 -0.09)">
      <defs>
       <path id="DejaVuSerif-2a" d="M 4097 3272 
Q 3988 3856 3641 4136 
Q 3294 4416 2675 4416 
Q 1869 4416 1472 3897 
Q 1075 3378 1075 2328 
Q 1075 1300 1484 772 
Q 1894 244 2688 244 
Q 3041 244 3362 331 
Q 3684 419 3975 594 
L 3975 1797 
L 3097 1797 
L 3097 2131 
L 4609 2131 
L 4609 391 
Q 4194 150 3714 29 
Q 3234 -91 2688 -91 
Q 1631 -91 995 570 
Q 359 1231 359 2328 
Q 359 3434 996 4092 
Q 1634 4750 2713 4750 
Q 3113 4750 3539 4658 
Q 3966 4566 4447 4378 
L 4447 3272 
L 4097 3272 
z
" transform="scale(0.015625)"/>
       <path id="DejaVuSerif-5b" d="M 1863 2028 
L 2559 2988 
L 2113 2988 
L 2113 3322 
L 3391 3322 
L 3391 2988 
L 2950 2988 
L 2059 1759 
L 3097 331 
L 3531 331 
L 3531 0 
L 1997 0 
L 1997 331 
L 2419 331 
L 1697 1325 
L 972 331 
L 1403 331 
L 1403 0 
L 141 0 
L 141 331 
L 581 331 
L 1497 1594 
L 488 2988 
L 78 2988 
L 78 3322 
L 1563 3322 
L 1563 2988 
L 1166 2988 
L 1863 2028 
z
" transform="scale(0.015625)"/>
      </defs>
      <use xlink:href="#DejaVuSerif-2a"/>
      <use xlink:href="#DejaVuSerif-44" transform="translate(79.890625 0)"/>
      <use xlink:href="#DejaVuSerif-58" transform="translate(139.515625 0)"/>
      <use xlink:href="#DejaVuSerif-56" transform="translate(203.921875 0)"/>
      <use xlink:href="#DejaVuSerif-56" transform="translate(255.234375 0)"/>
      <use xlink:href="#DejaVuSerif-4c" transform="translate(306.546875 0)"/>
      <use xlink:href="#DejaVuSerif-44" transform="translate(338.53125 0)"/>
      <use xlink:href="#DejaVuSerif-51" transform="translate(398.15625 0)"/>
      <use xlink:href="#DejaVuSerif-30" transform="translate(462.5625 0)"/>
      <use xlink:href="#DejaVuSerif-4c" transform="translate(564.953125 0)"/>
      <use xlink:href="#DejaVuSerif-5b" transform="translate(596.9375 0)"/>
      <use xlink:href="#DejaVuSerif-57" transform="translate(653.328125 0)"/>
      <use xlink:href="#DejaVuSerif-58" transform="translate(693.515625 0)"/>
      <use xlink:href="#DejaVuSerif-55" transform="translate(757.921875 0)"/>
      <use xlink:href="#DejaVuSerif-48" transform="translate(805.71875 0)"/>
     </g>
    </g>
    <g id="line2d_27">
     <path d="M 570.219469 107.105025 
L 579.219469 107.105025 
L 588.219469 107.105025 
" style="fill: none; stroke: #3ba3ec; stroke-opacity: 0.8; stroke-width: 2; stroke-linecap: round"/>
     <g>
      <use xlink:href="#m7c5b8f2810" x="579.219469" y="107.105025" style="fill: #3ba3ec; fill-opacity: 0.8; stroke: #3ba3ec; stroke-opacity: 0.8"/>
     </g>
    </g>
    <g id="text_19">
     <!-- KMeans -->
     <g style="fill: #262626" transform="translate(595.419469 110.255025) scale(0.09 -0.09)">
      <defs>
       <path id="DejaVuSerif-2e" d="M 353 0 
L 353 331 
L 947 331 
L 947 4331 
L 353 4331 
L 353 4666 
L 2175 4666 
L 2175 4331 
L 1581 4331 
L 1581 2566 
L 3591 4331 
L 3084 4331 
L 3084 4666 
L 4634 4666 
L 4634 4331 
L 4109 4331 
L 2106 2572 
L 4347 331 
L 4878 331 
L 4878 0 
L 3794 0 
L 1581 2216 
L 1581 331 
L 2175 331 
L 2175 0 
L 353 0 
z
" transform="scale(0.015625)"/>
      </defs>
      <use xlink:href="#DejaVuSerif-2e"/>
      <use xlink:href="#DejaVuSerif-30" transform="translate(74.703125 0)"/>
      <use xlink:href="#DejaVuSerif-48" transform="translate(177.09375 0)"/>
      <use xlink:href="#DejaVuSerif-44" transform="translate(236.28125 0)"/>
      <use xlink:href="#DejaVuSerif-51" transform="translate(295.90625 0)"/>
      <use xlink:href="#DejaVuSerif-56" transform="translate(360.3125 0)"/>
     </g>
    </g>
    <g id="line2d_28">
     <path d="M 570.219469 120.605728 
L 579.219469 120.605728 
L 588.219469 120.605728 
" style="fill: none; stroke: #bb83f4; stroke-opacity: 0.8; stroke-width: 2; stroke-linecap: round"/>
     <g>
      <use xlink:href="#m3ab482eef4" x="579.219469" y="120.605728" style="fill: #bb83f4; fill-opacity: 0.8; stroke: #bb83f4; stroke-opacity: 0.8"/>
     </g>
    </g>
    <g id="text_20">
     <!-- MiniBatchKMeans -->
     <g style="fill: #262626" transform="translate(595.419469 123.755728) scale(0.09 -0.09)">
      <use xlink:href="#DejaVuSerif-30"/>
      <use xlink:href="#DejaVuSerif-4c" transform="translate(102.390625 0)"/>
      <use xlink:href="#DejaVuSerif-51" transform="translate(134.375 0)"/>
      <use xlink:href="#DejaVuSerif-4c" transform="translate(198.78125 0)"/>
      <use xlink:href="#DejaVuSerif-25" transform="translate(230.765625 0)"/>
      <use xlink:href="#DejaVuSerif-44" transform="translate(304.25 0)"/>
      <use xlink:href="#DejaVuSerif-57" transform="translate(363.875 0)"/>
      <use xlink:href="#DejaVuSerif-46" transform="translate(404.0625 0)"/>
      <use xlink:href="#DejaVuSerif-4b" transform="translate(460.0625 0)"/>
      <use xlink:href="#DejaVuSerif-2e" transform="translate(524.46875 0)"/>
      <use xlink:href="#DejaVuSerif-30" transform="translate(599.171875 0)"/>
      <use xlink:href="#DejaVuSerif-48" transform="translate(701.5625 0)"/>
      <use xlink:href="#DejaVuSerif-44" transform="translate(760.75 0)"/>
      <use xlink:href="#DejaVuSerif-51" transform="translate(820.375 0)"/>
      <use xlink:href="#DejaVuSerif-56" transform="translate(884.78125 0)"/>
     </g>
    </g>
    <g id="line2d_29">
     <path d="M 570.219469 134.106431 
L 579.219469 134.106431 
L 588.219469 134.106431 
" style="fill: none; stroke: #f564d4; stroke-opacity: 0.8; stroke-width: 2; stroke-linecap: round"/>
     <g>
      <use xlink:href="#mddcc2cd2fd" x="579.219469" y="134.106431" style="fill: #f564d4; fill-opacity: 0.8; stroke: #f564d4; stroke-opacity: 0.8"/>
     </g>
    </g>
    <g id="text_21">
     <!-- Spectral -->
     <g style="fill: #262626" transform="translate(595.419469 137.256431) scale(0.09 -0.09)">
      <defs>
       <path id="DejaVuSerif-53" d="M 1313 1825 
L 1313 1497 
Q 1313 897 1542 583 
Q 1772 269 2209 269 
Q 2650 269 2876 622 
Q 3103 975 3103 1663 
Q 3103 2353 2876 2703 
Q 2650 3053 2209 3053 
Q 1772 3053 1542 2737 
Q 1313 2422 1313 1825 
z
M 738 2988 
L 184 2988 
L 184 3322 
L 1313 3322 
L 1313 2803 
Q 1481 3116 1742 3264 
Q 2003 3413 2388 3413 
Q 3000 3413 3387 2928 
Q 3775 2444 3775 1663 
Q 3775 881 3387 395 
Q 3000 -91 2388 -91 
Q 2003 -91 1742 57 
Q 1481 206 1313 519 
L 1313 -997 
L 1856 -997 
L 1856 -1331 
L 184 -1331 
L 184 -997 
L 738 -997 
L 738 2988 
z
" transform="scale(0.015625)"/>
      </defs>
      <use xlink:href="#DejaVuSerif-36"/>
      <use xlink:href="#DejaVuSerif-53" transform="translate(68.5 0)"/>
      <use xlink:href="#DejaVuSerif-48" transform="translate(132.515625 0)"/>
      <use xlink:href="#DejaVuSerif-46" transform="translate(191.703125 0)"/>
      <use xlink:href="#DejaVuSerif-57" transform="translate(247.703125 0)"/>
      <use xlink:href="#DejaVuSerif-55" transform="translate(287.890625 0)"/>
      <use xlink:href="#DejaVuSerif-44" transform="translate(335.6875 0)"/>
      <use xlink:href="#DejaVuSerif-4f" transform="translate(395.3125 0)"/>
     </g>
    </g>
   </g>
  </g>
 </g>
 <defs>
  <clipPath id="p06e167c173">
   <path d="M 544.883906 300.080212 
C 544.883906 268.807954 538.723953 237.839779 526.756578 208.94798 
C 514.789203 180.056181 497.247141 153.80263 475.134315 131.689804 
C 453.021489 109.576978 426.767938 92.034916 397.876139 80.067541 
C 368.984339 68.100165 338.016165 61.940212 306.743906 61.940212 
C 275.471648 61.940212 244.503473 68.100165 215.611674 80.067541 
C 186.719874 92.034916 160.466323 109.576978 138.353497 131.689804 
C 116.240671 153.80263 98.69861 180.056181 86.731234 208.94798 
C 74.763859 237.839779 68.603906 268.807954 68.603906 300.080212 
C 68.603906 331.352471 74.763859 362.320646 86.731234 391.212445 
C 98.69861 420.104244 116.240671 446.357795 138.353497 468.470621 
C 160.466323 490.583447 186.719874 508.125509 215.611674 520.092884 
C 244.503473 532.06026 275.471648 538.220212 306.743906 538.220212 
C 338.016165 538.220212 368.984339 532.06026 397.876139 520.092884 
C 426.767938 508.125509 453.021489 490.583447 475.134315 468.470621 
C 497.247141 446.357795 514.789203 420.104244 526.756578 391.212445 
C 538.723953 362.320646 544.883906 331.352471 544.883906 300.080212 
M 306.743906 300.080212 
C 306.743906 300.080212 306.743906 300.080212 306.743906 300.080212 
C 306.743906 300.080212 306.743906 300.080212 306.743906 300.080212 
C 306.743906 300.080212 306.743906 300.080212 306.743906 300.080212 
C 306.743906 300.080212 306.743906 300.080212 306.743906 300.080212 
C 306.743906 300.080212 306.743906 300.080212 306.743906 300.080212 
C 306.743906 300.080212 306.743906 300.080212 306.743906 300.080212 
C 306.743906 300.080212 306.743906 300.080212 306.743906 300.080212 
C 306.743906 300.080212 306.743906 300.080212 306.743906 300.080212 
C 306.743906 300.080212 306.743906 300.080212 306.743906 300.080212 
C 306.743906 300.080212 306.743906 300.080212 306.743906 300.080212 
C 306.743906 300.080212 306.743906 300.080212 306.743906 300.080212 
C 306.743906 300.080212 306.743906 300.080212 306.743906 300.080212 
C 306.743906 300.080212 306.743906 300.080212 306.743906 300.080212 
C 306.743906 300.080212 306.743906 300.080212 306.743906 300.080212 
C 306.743906 300.080212 306.743906 300.080212 306.743906 300.080212 
C 306.743906 300.080212 306.743906 300.080212 306.743906 300.080212 
z
"/>
  </clipPath>
 </defs>
</svg>
