<?xml version="1.0" encoding="utf-8" standalone="no"?>
<!DOCTYPE svg PUBLIC "-//W3C//DTD SVG 1.1//EN"
  "http://www.w3.org/Graphics/SVG/1.1/DTD/svg11.dtd">
<svg xmlns:xlink="http://www.w3.org/1999/xlink" width="842.034199pt" height="421.993708pt" viewBox="0 0 842.034199 421.993708" xmlns="http://www.w3.org/2000/svg" version="1.1">
 <metadata>
  <rdf:RDF xmlns:dc="http://purl.org/dc/elements/1.1/" xmlns:cc="http://creativecommons.org/ns#" xmlns:rdf="http://www.w3.org/1999/02/22-rdf-syntax-ns#">
   <cc:Work>
    <dc:type rdf:resource="http://purl.org/dc/dcmitype/StillImage"/>
    <dc:date>2026-06-24T22:38:24.290809</dc:date>
    <dc:format>image/svg+xml</dc:format>
    <dc:creator>
     <cc:Agent>
      <dc:title>Matplotlib v3.11.0, https://matplotlib.org/</dc:title>
     </cc:Agent>
    </dc:creator>
   </cc:Work>
  </rdf:RDF>
 </metadata>
 <defs>
  <style type="text/css">*{stroke-linejoin: round; stroke-linecap: butt}</style>
 </defs>
 <g id="figure_1">
  <g id="patch_1">
   <path d="M 0 421.993708 
L 842.034199 421.993708 
L 842.034199 0 
L 0 0 
z
" style="fill: #ffffff"/>
  </g>
  <g id="axes_1">
   <g id="patch_2">
    <path d="M 47.161837 330.10112 
L 834.834199 330.10112 
L 834.834199 23.837812 
L 47.161837 23.837812 
z
" style="fill: #ffffff"/>
   </g>
   <g id="matplotlib.axis_1">
    <g id="xtick_1">
     <g id="line2d_1">
      <path d="M 125.929073 330.10112 
L 125.929073 23.837812 
" clip-path="url(#pb1cc98f33b)" style="fill: none; stroke: #cccccc; stroke-width: 0.8; stroke-linecap: round"/>
     </g>
     <g id="text_1">
      <!-- Without Adaptive Fuzzifier -->
      <g style="fill: #262626" transform="translate(10.877644 410.524655) rotate(-30) scale(0.0968 -0.0968)">
       <defs>
        <path id="DejaVuSerif-3a" d="M 4878 0 
L 4366 0 
L 3297 3794 
L 2228 0 
L 1716 0 
L 494 4331 
L 31 4331 
L 31 4666 
L 1734 4666 
L 1734 4331 
L 1153 4331 
L 2125 884 
L 3188 4666 
L 3694 4666 
L 4775 844 
L 5753 4331 
L 5216 4331 
L 5216 4666 
L 6559 4666 
L 6559 4331 
L 6100 4331 
L 4878 0 
z
" transform="scale(0.015625)"/>
        <path id="DejaVuSerif-4c" d="M 622 4353 
Q 622 4497 726 4603 
Q 831 4709 978 4709 
Q 1122 4709 1226 4603 
Q 1331 4497 1331 4353 
Q 1331 4206 1228 4103 
Q 1125 4000 978 4000 
Q 831 4000 726 4103 
Q 622 4206 622 4353 
z
M 1356 331 
L 1900 331 
L 1900 0 
L 231 0 
L 231 331 
L 781 331 
L 781 2988 
L 231 2988 
L 231 3322 
L 1356 3322 
L 1356 331 
z
" transform="scale(0.015625)"/>
        <path id="DejaVuSerif-57" d="M 691 2988 
L 184 2988 
L 184 3322 
L 691 3322 
L 691 4353 
L 1269 4353 
L 1269 3322 
L 2350 3322 
L 2350 2988 
L 1269 2988 
L 1269 878 
Q 1269 456 1350 337 
Q 1431 219 1650 219 
Q 1875 219 1978 351 
Q 2081 484 2088 781 
L 2522 781 
Q 2497 328 2275 118 
Q 2053 -91 1600 -91 
Q 1103 -91 897 129 
Q 691 350 691 878 
L 691 2988 
z
" transform="scale(0.015625)"/>
        <path id="DejaVuSerif-4b" d="M 263 0 
L 263 331 
L 781 331 
L 781 4531 
L 231 4531 
L 231 4863 
L 1356 4863 
L 1356 2731 
Q 1516 3069 1770 3241 
Q 2025 3413 2363 3413 
Q 2913 3413 3172 3097 
Q 3431 2781 3431 2113 
L 3431 331 
L 3944 331 
L 3944 0 
L 2356 0 
L 2356 331 
L 2853 331 
L 2853 1931 
Q 2853 2541 2704 2764 
Q 2556 2988 2175 2988 
Q 1775 2988 1565 2697 
Q 1356 2406 1356 1850 
L 1356 331 
L 1856 331 
L 1856 0 
L 263 0 
z
" transform="scale(0.015625)"/>
        <path id="DejaVuSerif-52" d="M 1925 219 
Q 2388 219 2623 584 
Q 2859 950 2859 1663 
Q 2859 2375 2623 2739 
Q 2388 3103 1925 3103 
Q 1463 3103 1227 2739 
Q 991 2375 991 1663 
Q 991 950 1228 584 
Q 1466 219 1925 219 
z
M 1925 -91 
Q 1200 -91 759 389 
Q 319 869 319 1663 
Q 319 2456 758 2934 
Q 1197 3413 1925 3413 
Q 2653 3413 3092 2934 
Q 3531 2456 3531 1663 
Q 3531 869 3092 389 
Q 2653 -91 1925 -91 
z
" transform="scale(0.015625)"/>
        <path id="DejaVuSerif-58" d="M 2266 3322 
L 3341 3322 
L 3341 331 
L 3884 331 
L 3884 0 
L 2766 0 
L 2766 588 
Q 2606 256 2353 82 
Q 2100 -91 1766 -91 
Q 1213 -91 952 223 
Q 691 538 691 1209 
L 691 2988 
L 172 2988 
L 172 3322 
L 1269 3322 
L 1269 1388 
Q 1269 781 1417 556 
Q 1566 331 1947 331 
Q 2347 331 2556 625 
Q 2766 919 2766 1478 
L 2766 2988 
L 2266 2988 
L 2266 3322 
z
" transform="scale(0.015625)"/>
        <path id="DejaVuSerif-3" transform="scale(0.015625)"/>
        <path id="DejaVuSerif-24" d="M 1281 1691 
L 2994 1691 
L 2138 3909 
L 1281 1691 
z
M -38 0 
L -38 331 
L 372 331 
L 2034 4666 
L 2559 4666 
L 4225 331 
L 4684 331 
L 4684 0 
L 2988 0 
L 2988 331 
L 3506 331 
L 3116 1356 
L 1153 1356 
L 763 331 
L 1275 331 
L 1275 0 
L -38 0 
z
" transform="scale(0.015625)"/>
        <path id="DejaVuSerif-47" d="M 3359 331 
L 3909 331 
L 3909 0 
L 2784 0 
L 2784 519 
Q 2616 206 2355 57 
Q 2094 -91 1709 -91 
Q 1097 -91 708 395 
Q 319 881 319 1663 
Q 319 2444 706 2928 
Q 1094 3413 1709 3413 
Q 2094 3413 2355 3264 
Q 2616 3116 2784 2803 
L 2784 4531 
L 2241 4531 
L 2241 4863 
L 3359 4863 
L 3359 331 
z
M 2784 1497 
L 2784 1825 
Q 2784 2422 2554 2737 
Q 2325 3053 1888 3053 
Q 1444 3053 1217 2703 
Q 991 2353 991 1663 
Q 991 975 1217 622 
Q 1444 269 1888 269 
Q 2325 269 2554 583 
Q 2784 897 2784 1497 
z
" transform="scale(0.015625)"/>
        <path id="DejaVuSerif-44" d="M 2547 1044 
L 2547 1747 
L 1806 1747 
Q 1378 1747 1168 1562 
Q 959 1378 959 997 
Q 959 650 1171 447 
Q 1384 244 1747 244 
Q 2106 244 2326 466 
Q 2547 688 2547 1044 
z
M 3122 2075 
L 3122 331 
L 3634 331 
L 3634 0 
L 2547 0 
L 2547 359 
Q 2356 128 2106 18 
Q 1856 -91 1522 -91 
Q 969 -91 644 203 
Q 319 497 319 997 
Q 319 1513 691 1797 
Q 1063 2081 1741 2081 
L 2547 2081 
L 2547 2309 
Q 2547 2688 2317 2895 
Q 2088 3103 1672 3103 
Q 1328 3103 1125 2947 
Q 922 2791 872 2484 
L 575 2484 
L 575 3156 
Q 875 3284 1158 3348 
Q 1441 3413 1709 3413 
Q 2400 3413 2761 3070 
Q 3122 2728 3122 2075 
z
" transform="scale(0.015625)"/>
        <path id="DejaVuSerif-53" d="M 1313 1825 
L 1313 1497 
Q 1313 897 1542 583 
Q 1772 269 2209 269 
Q 2650 269 2876 622 
Q 3103 975 3103 1663 
Q 3103 2353 2876 2703 
Q 2650 3053 2209 3053 
Q 1772 3053 1542 2737 
Q 1313 2422 1313 1825 
z
M 738 2988 
L 184 2988 
L 184 3322 
L 1313 3322 
L 1313 2803 
Q 1481 3116 1742 3264 
Q 2003 3413 2388 3413 
Q 3000 3413 3387 2928 
Q 3775 2444 3775 1663 
Q 3775 881 3387 395 
Q 3000 -91 2388 -91 
Q 2003 -91 1742 57 
Q 1481 206 1313 519 
L 1313 -997 
L 1856 -997 
L 1856 -1331 
L 184 -1331 
L 184 -997 
L 738 -997 
L 738 2988 
z
" transform="scale(0.015625)"/>
        <path id="DejaVuSerif-59" d="M 1581 0 
L 359 2988 
L -19 2988 
L -19 3322 
L 1509 3322 
L 1509 2988 
L 978 2988 
L 1913 703 
L 2847 2988 
L 2350 2988 
L 2350 3322 
L 3597 3322 
L 3597 2988 
L 3225 2988 
L 2003 0 
L 1581 0 
z
" transform="scale(0.015625)"/>
        <path id="DejaVuSerif-48" d="M 3469 1600 
L 991 1600 
L 991 1575 
Q 991 903 1244 561 
Q 1497 219 1991 219 
Q 2369 219 2611 417 
Q 2853 616 2950 1006 
L 3413 1006 
Q 3275 459 2904 184 
Q 2534 -91 1931 -91 
Q 1203 -91 761 389 
Q 319 869 319 1663 
Q 319 2450 753 2931 
Q 1188 3413 1894 3413 
Q 2647 3413 3050 2948 
Q 3453 2484 3469 1600 
z
M 2791 1931 
Q 2772 2513 2545 2808 
Q 2319 3103 1894 3103 
Q 1497 3103 1269 2806 
Q 1041 2509 991 1931 
L 2791 1931 
z
" transform="scale(0.015625)"/>
        <path id="DejaVuSerif-29" d="M 353 0 
L 353 331 
L 947 331 
L 947 4331 
L 353 4331 
L 353 4666 
L 4172 4666 
L 4172 3628 
L 3788 3628 
L 3788 4281 
L 1581 4281 
L 1581 2719 
L 3175 2719 
L 3175 3303 
L 3559 3303 
L 3559 1753 
L 3175 1753 
L 3175 2338 
L 1581 2338 
L 1581 331 
L 2328 331 
L 2328 0 
L 353 0 
z
" transform="scale(0.015625)"/>
        <path id="DejaVuSerif-5d" d="M 256 0 
L 256 269 
L 2338 2988 
L 691 2988 
L 691 2413 
L 359 2413 
L 359 3322 
L 3078 3322 
L 3078 3053 
L 997 331 
L 2803 331 
L 2803 934 
L 3138 934 
L 3138 0 
L 256 0 
z
" transform="scale(0.015625)"/>
        <path id="DejaVuSerif-cf0" d="M 3347 4019 
L 3053 4022 
Q 3044 4291 2853 4423 
Q 2663 4556 2278 4556 
Q 1800 4556 1578 4334 
Q 1356 4113 1356 3634 
L 1356 3322 
L 3578 3322 
L 3578 331 
L 4122 331 
L 4122 0 
L 2450 0 
L 2450 331 
L 3003 331 
L 3003 2988 
L 1356 2988 
L 1356 331 
L 1900 331 
L 1900 0 
L 231 0 
L 231 331 
L 781 331 
L 781 2988 
L 231 2988 
L 231 3322 
L 781 3322 
L 781 3622 
Q 781 4238 1147 4550 
Q 1513 4863 2228 4863 
Q 2500 4863 2784 4822 
Q 3069 4781 3347 4697 
L 3347 4019 
z
" transform="scale(0.015625)"/>
        <path id="DejaVuSerif-55" d="M 3059 3328 
L 3059 2497 
L 2728 2497 
Q 2713 2744 2591 2866 
Q 2469 2988 2234 2988 
Q 1809 2988 1582 2694 
Q 1356 2400 1356 1850 
L 1356 331 
L 2022 331 
L 2022 0 
L 263 0 
L 263 331 
L 781 331 
L 781 2994 
L 231 2994 
L 231 3322 
L 1356 3322 
L 1356 2731 
Q 1525 3078 1790 3245 
Q 2056 3413 2438 3413 
Q 2578 3413 2733 3391 
Q 2888 3369 3059 3328 
z
" transform="scale(0.015625)"/>
       </defs>
       <use xlink:href="#DejaVuSerif-3a"/>
       <use xlink:href="#DejaVuSerif-4c" transform="translate(101.03125 0)"/>
       <use xlink:href="#DejaVuSerif-57" transform="translate(133.015625 0)"/>
       <use xlink:href="#DejaVuSerif-4b" transform="translate(173.203125 0)"/>
       <use xlink:href="#DejaVuSerif-52" transform="translate(237.609375 0)"/>
       <use xlink:href="#DejaVuSerif-58" transform="translate(297.8125 0)"/>
       <use xlink:href="#DejaVuSerif-57" transform="translate(362.21875 0)"/>
       <use xlink:href="#DejaVuSerif-3" transform="translate(402.40625 0)"/>
       <use xlink:href="#DejaVuSerif-24" transform="translate(434.1875 0)"/>
       <use xlink:href="#DejaVuSerif-47" transform="translate(506.40625 0)"/>
       <use xlink:href="#DejaVuSerif-44" transform="translate(570.421875 0)"/>
       <use xlink:href="#DejaVuSerif-53" transform="translate(630.046875 0)"/>
       <use xlink:href="#DejaVuSerif-57" transform="translate(694.0625 0)"/>
       <use xlink:href="#DejaVuSerif-4c" transform="translate(734.25 0)"/>
       <use xlink:href="#DejaVuSerif-59" transform="translate(766.234375 0)"/>
       <use xlink:href="#DejaVuSerif-48" transform="translate(822.734375 0)"/>
       <use xlink:href="#DejaVuSerif-3" transform="translate(881.921875 0)"/>
       <use xlink:href="#DejaVuSerif-29" transform="translate(913.703125 0)"/>
       <use xlink:href="#DejaVuSerif-58" transform="translate(983.09375 0)"/>
       <use xlink:href="#DejaVuSerif-5d" transform="translate(1047.5 0)"/>
       <use xlink:href="#DejaVuSerif-5d" transform="translate(1100.1875 0)"/>
       <use xlink:href="#DejaVuSerif-4c" transform="translate(1152.875 0)"/>
       <use xlink:href="#DejaVuSerif-cf0" transform="translate(1184.859375 0)"/>
       <use xlink:href="#DejaVuSerif-48" transform="translate(1251.5625 0)"/>
       <use xlink:href="#DejaVuSerif-55" transform="translate(1310.75 0)"/>
      </g>
     </g>
    </g>
    <g id="xtick_2">
     <g id="line2d_2">
      <path d="M 283.463546 330.10112 
L 283.463546 23.837812 
" clip-path="url(#pb1cc98f33b)" style="fill: none; stroke: #cccccc; stroke-width: 0.8; stroke-linecap: round"/>
     </g>
     <g id="text_2">
      <!-- Without Auto K -->
      <g style="fill: #262626" transform="translate(217.106289 382.411061) rotate(-30) scale(0.0968 -0.0968)">
       <defs>
        <path id="DejaVuSerif-2e" d="M 353 0 
L 353 331 
L 947 331 
L 947 4331 
L 353 4331 
L 353 4666 
L 2175 4666 
L 2175 4331 
L 1581 4331 
L 1581 2566 
L 3591 4331 
L 3084 4331 
L 3084 4666 
L 4634 4666 
L 4634 4331 
L 4109 4331 
L 2106 2572 
L 4347 331 
L 4878 331 
L 4878 0 
L 3794 0 
L 1581 2216 
L 1581 331 
L 2175 331 
L 2175 0 
L 353 0 
z
" transform="scale(0.015625)"/>
       </defs>
       <use xlink:href="#DejaVuSerif-3a"/>
       <use xlink:href="#DejaVuSerif-4c" transform="translate(101.03125 0)"/>
       <use xlink:href="#DejaVuSerif-57" transform="translate(133.015625 0)"/>
       <use xlink:href="#DejaVuSerif-4b" transform="translate(173.203125 0)"/>
       <use xlink:href="#DejaVuSerif-52" transform="translate(237.609375 0)"/>
       <use xlink:href="#DejaVuSerif-58" transform="translate(297.8125 0)"/>
       <use xlink:href="#DejaVuSerif-57" transform="translate(362.21875 0)"/>
       <use xlink:href="#DejaVuSerif-3" transform="translate(402.40625 0)"/>
       <use xlink:href="#DejaVuSerif-24" transform="translate(434.1875 0)"/>
       <use xlink:href="#DejaVuSerif-58" transform="translate(506.40625 0)"/>
       <use xlink:href="#DejaVuSerif-57" transform="translate(570.8125 0)"/>
       <use xlink:href="#DejaVuSerif-52" transform="translate(611 0)"/>
       <use xlink:href="#DejaVuSerif-3" transform="translate(671.203125 0)"/>
       <use xlink:href="#DejaVuSerif-2e" transform="translate(702.984375 0)"/>
      </g>
     </g>
    </g>
    <g id="xtick_3">
     <g id="line2d_3">
      <path d="M 440.998018 330.10112 
L 440.998018 23.837812 
" clip-path="url(#pb1cc98f33b)" style="fill: none; stroke: #cccccc; stroke-width: 0.8; stroke-linecap: round"/>
     </g>
     <g id="text_3">
      <!-- Without Explainability -->
      <g style="fill: #262626" transform="translate(344.948777 399.553736) rotate(-30) scale(0.0968 -0.0968)">
       <defs>
        <path id="DejaVuSerif-28" d="M 353 0 
L 353 331 
L 947 331 
L 947 4331 
L 353 4331 
L 353 4666 
L 4109 4666 
L 4109 3628 
L 3725 3628 
L 3725 4281 
L 1581 4281 
L 1581 2719 
L 3109 2719 
L 3109 3303 
L 3494 3303 
L 3494 1753 
L 3109 1753 
L 3109 2338 
L 1581 2338 
L 1581 384 
L 3775 384 
L 3775 1038 
L 4159 1038 
L 4159 0 
L 353 0 
z
" transform="scale(0.015625)"/>
        <path id="DejaVuSerif-5b" d="M 1863 2028 
L 2559 2988 
L 2113 2988 
L 2113 3322 
L 3391 3322 
L 3391 2988 
L 2950 2988 
L 2059 1759 
L 3097 331 
L 3531 331 
L 3531 0 
L 1997 0 
L 1997 331 
L 2419 331 
L 1697 1325 
L 972 331 
L 1403 331 
L 1403 0 
L 141 0 
L 141 331 
L 581 331 
L 1497 1594 
L 488 2988 
L 78 2988 
L 78 3322 
L 1563 3322 
L 1563 2988 
L 1166 2988 
L 1863 2028 
z
" transform="scale(0.015625)"/>
        <path id="DejaVuSerif-4f" d="M 1313 331 
L 1856 331 
L 1856 0 
L 184 0 
L 184 331 
L 738 331 
L 738 4531 
L 184 4531 
L 184 4863 
L 1313 4863 
L 1313 331 
z
" transform="scale(0.015625)"/>
        <path id="DejaVuSerif-51" d="M 263 0 
L 263 331 
L 781 331 
L 781 2988 
L 231 2988 
L 231 3322 
L 1356 3322 
L 1356 2731 
Q 1516 3069 1770 3241 
Q 2025 3413 2363 3413 
Q 2913 3413 3172 3097 
Q 3431 2781 3431 2113 
L 3431 331 
L 3944 331 
L 3944 0 
L 2356 0 
L 2356 331 
L 2853 331 
L 2853 1931 
Q 2853 2541 2703 2767 
Q 2553 2994 2175 2994 
Q 1775 2994 1565 2701 
Q 1356 2409 1356 1850 
L 1356 331 
L 1856 331 
L 1856 0 
L 263 0 
z
" transform="scale(0.015625)"/>
        <path id="DejaVuSerif-45" d="M 738 331 
L 738 4531 
L 184 4531 
L 184 4863 
L 1313 4863 
L 1313 2803 
Q 1481 3116 1742 3264 
Q 2003 3413 2388 3413 
Q 3000 3413 3387 2928 
Q 3775 2444 3775 1663 
Q 3775 881 3387 395 
Q 3000 -91 2388 -91 
Q 2003 -91 1742 57 
Q 1481 206 1313 519 
L 1313 0 
L 184 0 
L 184 331 
L 738 331 
z
M 1313 1497 
Q 1313 897 1542 583 
Q 1772 269 2209 269 
Q 2650 269 2876 622 
Q 3103 975 3103 1663 
Q 3103 2353 2876 2703 
Q 2650 3053 2209 3053 
Q 1772 3053 1542 2737 
Q 1313 2422 1313 1825 
L 1313 1497 
z
" transform="scale(0.015625)"/>
        <path id="DejaVuSerif-5c" d="M 1381 -609 
L 1600 -56 
L 359 2988 
L -19 2988 
L -19 3322 
L 1509 3322 
L 1509 2988 
L 978 2988 
L 1913 703 
L 2847 2988 
L 2350 2988 
L 2350 3322 
L 3597 3322 
L 3597 2988 
L 3225 2988 
L 1703 -750 
Q 1547 -1138 1356 -1280 
Q 1166 -1422 819 -1422 
Q 672 -1422 517 -1397 
Q 363 -1372 206 -1325 
L 206 -691 
L 500 -691 
Q 519 -903 608 -995 
Q 697 -1088 884 -1088 
Q 1056 -1088 1161 -992 
Q 1266 -897 1381 -609 
z
" transform="scale(0.015625)"/>
       </defs>
       <use xlink:href="#DejaVuSerif-3a"/>
       <use xlink:href="#DejaVuSerif-4c" transform="translate(101.03125 0)"/>
       <use xlink:href="#DejaVuSerif-57" transform="translate(133.015625 0)"/>
       <use xlink:href="#DejaVuSerif-4b" transform="translate(173.203125 0)"/>
       <use xlink:href="#DejaVuSerif-52" transform="translate(237.609375 0)"/>
       <use xlink:href="#DejaVuSerif-58" transform="translate(297.8125 0)"/>
       <use xlink:href="#DejaVuSerif-57" transform="translate(362.21875 0)"/>
       <use xlink:href="#DejaVuSerif-3" transform="translate(402.40625 0)"/>
       <use xlink:href="#DejaVuSerif-28" transform="translate(434.1875 0)"/>
       <use xlink:href="#DejaVuSerif-5b" transform="translate(507.1875 0)"/>
       <use xlink:href="#DejaVuSerif-53" transform="translate(563.578125 0)"/>
       <use xlink:href="#DejaVuSerif-4f" transform="translate(627.59375 0)"/>
       <use xlink:href="#DejaVuSerif-44" transform="translate(659.578125 0)"/>
       <use xlink:href="#DejaVuSerif-4c" transform="translate(719.203125 0)"/>
       <use xlink:href="#DejaVuSerif-51" transform="translate(751.1875 0)"/>
       <use xlink:href="#DejaVuSerif-44" transform="translate(815.59375 0)"/>
       <use xlink:href="#DejaVuSerif-45" transform="translate(875.21875 0)"/>
       <use xlink:href="#DejaVuSerif-4c" transform="translate(939.234375 0)"/>
       <use xlink:href="#DejaVuSerif-4f" transform="translate(971.21875 0)"/>
       <use xlink:href="#DejaVuSerif-4c" transform="translate(1003.203125 0)"/>
       <use xlink:href="#DejaVuSerif-57" transform="translate(1035.1875 0)"/>
       <use xlink:href="#DejaVuSerif-5c" transform="translate(1075.375 0)"/>
      </g>
     </g>
    </g>
    <g id="xtick_4">
     <g id="line2d_4">
      <path d="M 598.53249 330.10112 
L 598.53249 23.837812 
" clip-path="url(#pb1cc98f33b)" style="fill: none; stroke: #cccccc; stroke-width: 0.8; stroke-linecap: round"/>
     </g>
     <g id="text_4">
      <!-- Without Outlier Robustness -->
      <g style="fill: #262626" transform="translate(479.575048 412.779793) rotate(-30) scale(0.0968 -0.0968)">
       <defs>
        <path id="DejaVuSerif-32" d="M 2625 244 
Q 3391 244 3781 770 
Q 4172 1297 4172 2328 
Q 4172 3363 3781 3889 
Q 3391 4416 2625 4416 
Q 1856 4416 1465 3889 
Q 1075 3363 1075 2328 
Q 1075 1297 1465 770 
Q 1856 244 2625 244 
z
M 2625 -91 
Q 2150 -91 1751 65 
Q 1353 222 1050 525 
Q 700 875 529 1319 
Q 359 1763 359 2328 
Q 359 2894 529 3339 
Q 700 3784 1050 4134 
Q 1356 4441 1750 4595 
Q 2144 4750 2625 4750 
Q 3641 4750 4266 4084 
Q 4891 3419 4891 2328 
Q 4891 1769 4719 1320 
Q 4547 872 4197 525 
Q 3891 219 3497 64 
Q 3103 -91 2625 -91 
z
" transform="scale(0.015625)"/>
        <path id="DejaVuSerif-35" d="M 3066 2316 
Q 3284 2256 3442 2114 
Q 3600 1972 3725 1716 
L 4403 331 
L 4972 331 
L 4972 0 
L 3872 0 
L 3144 1484 
Q 2934 1916 2759 2042 
Q 2584 2169 2278 2169 
L 1581 2169 
L 1581 331 
L 2241 331 
L 2241 0 
L 353 0 
L 353 331 
L 947 331 
L 947 4331 
L 353 4331 
L 353 4666 
L 2719 4666 
Q 3400 4666 3770 4341 
Q 4141 4016 4141 3419 
Q 4141 2938 3870 2661 
Q 3600 2384 3066 2316 
z
M 1581 2503 
L 2503 2503 
Q 2975 2503 3200 2726 
Q 3425 2950 3425 3419 
Q 3425 3888 3200 4109 
Q 2975 4331 2503 4331 
L 1581 4331 
L 1581 2503 
z
" transform="scale(0.015625)"/>
        <path id="DejaVuSerif-56" d="M 359 184 
L 359 959 
L 691 959 
Q 703 588 923 403 
Q 1144 219 1575 219 
Q 1963 219 2166 364 
Q 2369 509 2369 788 
Q 2369 1006 2220 1140 
Q 2072 1275 1594 1428 
L 1178 1569 
Q 750 1706 558 1912 
Q 366 2119 366 2438 
Q 366 2894 700 3153 
Q 1034 3413 1625 3413 
Q 1888 3413 2178 3344 
Q 2469 3275 2778 3144 
L 2778 2419 
L 2447 2419 
Q 2434 2741 2221 2922 
Q 2009 3103 1644 3103 
Q 1281 3103 1095 2975 
Q 909 2847 909 2591 
Q 909 2381 1050 2254 
Q 1191 2128 1613 1997 
L 2069 1856 
Q 2541 1709 2748 1489 
Q 2956 1269 2956 922 
Q 2956 450 2595 179 
Q 2234 -91 1600 -91 
Q 1278 -91 972 -22 
Q 666 47 359 184 
z
" transform="scale(0.015625)"/>
       </defs>
       <use xlink:href="#DejaVuSerif-3a"/>
       <use xlink:href="#DejaVuSerif-4c" transform="translate(101.03125 0)"/>
       <use xlink:href="#DejaVuSerif-57" transform="translate(133.015625 0)"/>
       <use xlink:href="#DejaVuSerif-4b" transform="translate(173.203125 0)"/>
       <use xlink:href="#DejaVuSerif-52" transform="translate(237.609375 0)"/>
       <use xlink:href="#DejaVuSerif-58" transform="translate(297.8125 0)"/>
       <use xlink:href="#DejaVuSerif-57" transform="translate(362.21875 0)"/>
       <use xlink:href="#DejaVuSerif-3" transform="translate(402.40625 0)"/>
       <use xlink:href="#DejaVuSerif-32" transform="translate(434.1875 0)"/>
       <use xlink:href="#DejaVuSerif-58" transform="translate(516.171875 0)"/>
       <use xlink:href="#DejaVuSerif-57" transform="translate(580.578125 0)"/>
       <use xlink:href="#DejaVuSerif-4f" transform="translate(620.765625 0)"/>
       <use xlink:href="#DejaVuSerif-4c" transform="translate(652.75 0)"/>
       <use xlink:href="#DejaVuSerif-48" transform="translate(684.734375 0)"/>
       <use xlink:href="#DejaVuSerif-55" transform="translate(743.921875 0)"/>
       <use xlink:href="#DejaVuSerif-3" transform="translate(791.71875 0)"/>
       <use xlink:href="#DejaVuSerif-35" transform="translate(823.5 0)"/>
       <use xlink:href="#DejaVuSerif-52" transform="translate(898.796875 0)"/>
       <use xlink:href="#DejaVuSerif-45" transform="translate(959 0)"/>
       <use xlink:href="#DejaVuSerif-58" transform="translate(1023.015625 0)"/>
       <use xlink:href="#DejaVuSerif-56" transform="translate(1087.421875 0)"/>
       <use xlink:href="#DejaVuSerif-57" transform="translate(1138.734375 0)"/>
       <use xlink:href="#DejaVuSerif-51" transform="translate(1178.921875 0)"/>
       <use xlink:href="#DejaVuSerif-48" transform="translate(1243.328125 0)"/>
       <use xlink:href="#DejaVuSerif-56" transform="translate(1302.515625 0)"/>
       <use xlink:href="#DejaVuSerif-56" transform="translate(1353.828125 0)"/>
      </g>
     </g>
    </g>
    <g id="xtick_5">
     <g id="line2d_5">
      <path d="M 756.066963 330.10112 
L 756.066963 23.837812 
" clip-path="url(#pb1cc98f33b)" style="fill: none; stroke: #cccccc; stroke-width: 0.8; stroke-linecap: round"/>
     </g>
     <g id="text_5">
      <!-- Without Early Stopping -->
      <g style="fill: #262626" transform="translate(654.960339 402.473618) rotate(-30) scale(0.0968 -0.0968)">
       <defs>
        <path id="DejaVuSerif-36" d="M 594 225 
L 594 1288 
L 953 1284 
Q 969 753 1261 498 
Q 1553 244 2150 244 
Q 2706 244 2998 464 
Q 3291 684 3291 1106 
Q 3291 1444 3114 1625 
Q 2938 1806 2369 1978 
L 1753 2163 
Q 1084 2366 811 2669 
Q 538 2972 538 3500 
Q 538 4094 959 4422 
Q 1381 4750 2144 4750 
Q 2469 4750 2856 4679 
Q 3244 4609 3681 4475 
L 3681 3481 
L 3328 3481 
Q 3275 3975 2998 4195 
Q 2722 4416 2156 4416 
Q 1663 4416 1405 4214 
Q 1147 4013 1147 3628 
Q 1147 3294 1340 3103 
Q 1534 2913 2163 2725 
L 2741 2553 
Q 3375 2363 3645 2067 
Q 3916 1772 3916 1275 
Q 3916 597 3481 253 
Q 3047 -91 2188 -91 
Q 1803 -91 1404 -12 
Q 1006 66 594 225 
z
" transform="scale(0.015625)"/>
        <path id="DejaVuSerif-4a" d="M 3359 2988 
L 3359 72 
Q 3359 -644 2965 -1033 
Q 2572 -1422 1844 -1422 
Q 1516 -1422 1216 -1362 
Q 916 -1303 641 -1184 
L 641 -488 
L 941 -488 
Q 997 -813 1206 -963 
Q 1416 -1113 1806 -1113 
Q 2313 -1113 2548 -827 
Q 2784 -541 2784 72 
L 2784 519 
Q 2616 206 2355 57 
Q 2094 -91 1709 -91 
Q 1097 -91 708 395 
Q 319 881 319 1663 
Q 319 2444 706 2928 
Q 1094 3413 1709 3413 
Q 2094 3413 2355 3264 
Q 2616 3116 2784 2803 
L 2784 3322 
L 3909 3322 
L 3909 2988 
L 3359 2988 
z
M 2784 1825 
Q 2784 2422 2554 2737 
Q 2325 3053 1888 3053 
Q 1444 3053 1217 2703 
Q 991 2353 991 1663 
Q 991 975 1217 622 
Q 1444 269 1888 269 
Q 2325 269 2554 583 
Q 2784 897 2784 1497 
L 2784 1825 
z
" transform="scale(0.015625)"/>
       </defs>
       <use xlink:href="#DejaVuSerif-3a"/>
       <use xlink:href="#DejaVuSerif-4c" transform="translate(101.03125 0)"/>
       <use xlink:href="#DejaVuSerif-57" transform="translate(133.015625 0)"/>
       <use xlink:href="#DejaVuSerif-4b" transform="translate(173.203125 0)"/>
       <use xlink:href="#DejaVuSerif-52" transform="translate(237.609375 0)"/>
       <use xlink:href="#DejaVuSerif-58" transform="translate(297.8125 0)"/>
       <use xlink:href="#DejaVuSerif-57" transform="translate(362.21875 0)"/>
       <use xlink:href="#DejaVuSerif-3" transform="translate(402.40625 0)"/>
       <use xlink:href="#DejaVuSerif-28" transform="translate(434.1875 0)"/>
       <use xlink:href="#DejaVuSerif-44" transform="translate(507.1875 0)"/>
       <use xlink:href="#DejaVuSerif-55" transform="translate(566.8125 0)"/>
       <use xlink:href="#DejaVuSerif-4f" transform="translate(614.609375 0)"/>
       <use xlink:href="#DejaVuSerif-5c" transform="translate(646.59375 0)"/>
       <use xlink:href="#DejaVuSerif-3" transform="translate(703.09375 0)"/>
       <use xlink:href="#DejaVuSerif-36" transform="translate(734.875 0)"/>
       <use xlink:href="#DejaVuSerif-57" transform="translate(803.375 0)"/>
       <use xlink:href="#DejaVuSerif-52" transform="translate(843.5625 0)"/>
       <use xlink:href="#DejaVuSerif-53" transform="translate(903.765625 0)"/>
       <use xlink:href="#DejaVuSerif-53" transform="translate(967.78125 0)"/>
       <use xlink:href="#DejaVuSerif-4c" transform="translate(1031.796875 0)"/>
       <use xlink:href="#DejaVuSerif-51" transform="translate(1063.78125 0)"/>
       <use xlink:href="#DejaVuSerif-4a" transform="translate(1128.1875 0)"/>
      </g>
     </g>
    </g>
   </g>
   <g id="matplotlib.axis_2">
    <g id="ytick_1">
     <g id="line2d_6">
      <path d="M 47.161837 330.10112 
L 834.834199 330.10112 
" clip-path="url(#pb1cc98f33b)" style="fill: none; stroke: #cccccc; stroke-width: 0.8; stroke-linecap: round"/>
     </g>
     <g id="text_6">
      <!-- 0 -->
      <g style="fill: #262626" transform="translate(32.702937 333.778386) scale(0.0968 -0.0968)">
       <defs>
        <path id="DejaVuSerif-13" d="M 2034 219 
Q 2513 219 2750 744 
Q 2988 1269 2988 2328 
Q 2988 3391 2750 3916 
Q 2513 4441 2034 4441 
Q 1556 4441 1318 3916 
Q 1081 3391 1081 2328 
Q 1081 1269 1318 744 
Q 1556 219 2034 219 
z
M 2034 -91 
Q 1275 -91 848 546 
Q 422 1184 422 2328 
Q 422 3475 848 4112 
Q 1275 4750 2034 4750 
Q 2797 4750 3222 4112 
Q 3647 3475 3647 2328 
Q 3647 1184 3222 546 
Q 2797 -91 2034 -91 
z
" transform="scale(0.015625)"/>
       </defs>
       <use xlink:href="#DejaVuSerif-13"/>
      </g>
     </g>
    </g>
    <g id="ytick_2">
     <g id="line2d_7">
      <path d="M 47.161837 267.718614 
L 834.834199 267.718614 
" clip-path="url(#pb1cc98f33b)" style="fill: none; stroke: #cccccc; stroke-width: 0.8; stroke-linecap: round"/>
     </g>
     <g id="text_7">
      <!-- 20 -->
      <g style="fill: #262626" transform="translate(26.544037 271.39588) scale(0.0968 -0.0968)">
       <defs>
        <path id="DejaVuSerif-15" d="M 819 3553 
L 469 3553 
L 469 4384 
Q 803 4563 1142 4656 
Q 1481 4750 1806 4750 
Q 2534 4750 2956 4397 
Q 3378 4044 3378 3438 
Q 3378 2753 2422 1800 
Q 2347 1728 2309 1691 
L 1131 513 
L 3078 513 
L 3078 1088 
L 3444 1088 
L 3444 0 
L 434 0 
L 434 341 
L 1850 1753 
Q 2319 2222 2519 2614 
Q 2719 3006 2719 3438 
Q 2719 3909 2473 4175 
Q 2228 4441 1797 4441 
Q 1350 4441 1106 4219 
Q 863 3997 819 3553 
z
" transform="scale(0.015625)"/>
       </defs>
       <use xlink:href="#DejaVuSerif-15"/>
       <use xlink:href="#DejaVuSerif-13" transform="translate(63.625 0)"/>
      </g>
     </g>
    </g>
    <g id="ytick_3">
     <g id="line2d_8">
      <path d="M 47.161837 205.336108 
L 834.834199 205.336108 
" clip-path="url(#pb1cc98f33b)" style="fill: none; stroke: #cccccc; stroke-width: 0.8; stroke-linecap: round"/>
     </g>
     <g id="text_8">
      <!-- 40 -->
      <g style="fill: #262626" transform="translate(26.544037 209.013374) scale(0.0968 -0.0968)">
       <defs>
        <path id="DejaVuSerif-17" d="M 2234 1581 
L 2234 4063 
L 641 1581 
L 2234 1581 
z
M 3609 0 
L 1484 0 
L 1484 331 
L 2234 331 
L 2234 1247 
L 197 1247 
L 197 1588 
L 2241 4750 
L 2859 4750 
L 2859 1581 
L 3750 1581 
L 3750 1247 
L 2859 1247 
L 2859 331 
L 3609 331 
L 3609 0 
z
" transform="scale(0.015625)"/>
       </defs>
       <use xlink:href="#DejaVuSerif-17"/>
       <use xlink:href="#DejaVuSerif-13" transform="translate(63.625 0)"/>
      </g>
     </g>
    </g>
    <g id="ytick_4">
     <g id="line2d_9">
      <path d="M 47.161837 142.953602 
L 834.834199 142.953602 
" clip-path="url(#pb1cc98f33b)" style="fill: none; stroke: #cccccc; stroke-width: 0.8; stroke-linecap: round"/>
     </g>
     <g id="text_9">
      <!-- 60 -->
      <g style="fill: #262626" transform="translate(26.544037 146.630867) scale(0.0968 -0.0968)">
       <defs>
        <path id="DejaVuSerif-19" d="M 2094 219 
Q 2534 219 2771 542 
Q 3009 866 3009 1472 
Q 3009 2078 2771 2401 
Q 2534 2725 2094 2725 
Q 1647 2725 1412 2412 
Q 1178 2100 1178 1509 
Q 1178 888 1415 553 
Q 1653 219 2094 219 
z
M 1075 2569 
Q 1288 2803 1556 2918 
Q 1825 3034 2163 3034 
Q 2859 3034 3264 2615 
Q 3669 2197 3669 1472 
Q 3669 763 3233 336 
Q 2797 -91 2069 -91 
Q 1278 -91 853 498 
Q 428 1088 428 2181 
Q 428 3406 931 4078 
Q 1434 4750 2350 4750 
Q 2597 4750 2869 4703 
Q 3141 4656 3425 4563 
L 3425 3794 
L 3072 3794 
Q 3034 4109 2831 4275 
Q 2628 4441 2284 4441 
Q 1678 4441 1381 3981 
Q 1084 3522 1075 2569 
z
" transform="scale(0.015625)"/>
       </defs>
       <use xlink:href="#DejaVuSerif-19"/>
       <use xlink:href="#DejaVuSerif-13" transform="translate(63.625 0)"/>
      </g>
     </g>
    </g>
    <g id="ytick_5">
     <g id="line2d_10">
      <path d="M 47.161837 80.571096 
L 834.834199 80.571096 
" clip-path="url(#pb1cc98f33b)" style="fill: none; stroke: #cccccc; stroke-width: 0.8; stroke-linecap: round"/>
     </g>
     <g id="text_10">
      <!-- 80 -->
      <g style="fill: #262626" transform="translate(26.544037 84.248361) scale(0.0968 -0.0968)">
       <defs>
        <path id="DejaVuSerif-1b" d="M 2981 1275 
Q 2981 1775 2732 2051 
Q 2484 2328 2034 2328 
Q 1584 2328 1336 2051 
Q 1088 1775 1088 1275 
Q 1088 772 1336 495 
Q 1584 219 2034 219 
Q 2484 219 2732 495 
Q 2981 772 2981 1275 
z
M 2853 3541 
Q 2853 3966 2637 4203 
Q 2422 4441 2034 4441 
Q 1650 4441 1433 4203 
Q 1216 3966 1216 3541 
Q 1216 3113 1433 2875 
Q 1650 2638 2034 2638 
Q 2422 2638 2637 2875 
Q 2853 3113 2853 3541 
z
M 2516 2484 
Q 3047 2413 3344 2092 
Q 3641 1772 3641 1275 
Q 3641 619 3225 264 
Q 2809 -91 2034 -91 
Q 1263 -91 845 264 
Q 428 619 428 1275 
Q 428 1772 725 2092 
Q 1022 2413 1556 2484 
Q 1084 2569 832 2842 
Q 581 3116 581 3541 
Q 581 4103 968 4426 
Q 1356 4750 2034 4750 
Q 2713 4750 3100 4426 
Q 3488 4103 3488 3541 
Q 3488 3116 3236 2842 
Q 2984 2569 2516 2484 
z
" transform="scale(0.015625)"/>
       </defs>
       <use xlink:href="#DejaVuSerif-1b"/>
       <use xlink:href="#DejaVuSerif-13" transform="translate(63.625 0)"/>
      </g>
     </g>
    </g>
    <g id="text_11">
     <!-- Degradation (%) -->
     <g style="fill: #262626" transform="translate(19.661224 227.132279) rotate(-90) scale(0.12 -0.12)">
      <defs>
       <path id="DejaVuSerif-27" d="M 1581 331 
L 2163 331 
Q 3072 331 3558 850 
Q 4044 1369 4044 2338 
Q 4044 3306 3559 3818 
Q 3075 4331 2163 4331 
L 1581 4331 
L 1581 331 
z
M 353 0 
L 353 331 
L 947 331 
L 947 4331 
L 353 4331 
L 353 4666 
L 2209 4666 
Q 3416 4666 4089 4050 
Q 4763 3434 4763 2338 
Q 4763 1238 4088 619 
Q 3413 0 2209 0 
L 353 0 
z
" transform="scale(0.015625)"/>
       <path id="DejaVuSerif-b" d="M 2041 -997 
Q 1281 -656 893 83 
Q 506 822 506 1931 
Q 506 3044 893 3783 
Q 1281 4522 2041 4863 
L 2041 4556 
Q 1559 4225 1350 3623 
Q 1141 3022 1141 1931 
Q 1141 844 1350 242 
Q 1559 -359 2041 -691 
L 2041 -997 
z
" transform="scale(0.015625)"/>
       <path id="DejaVuSerif-8" d="M 1434 4459 
Q 1159 4459 1004 4200 
Q 850 3941 850 3475 
Q 850 3016 1008 2753 
Q 1166 2491 1434 2491 
Q 1700 2491 1854 2752 
Q 2009 3013 2009 3475 
Q 2009 3938 1854 4198 
Q 1700 4459 1434 4459 
z
M 4653 2169 
Q 4381 2169 4226 1906 
Q 4072 1644 4072 1178 
Q 4072 719 4228 458 
Q 4384 197 4653 197 
Q 4922 197 5075 458 
Q 5228 719 5228 1178 
Q 5228 1641 5073 1905 
Q 4919 2169 4653 2169 
z
M 4653 2450 
Q 5147 2450 5437 2106 
Q 5728 1763 5728 1178 
Q 5728 594 5436 251 
Q 5144 -91 4653 -91 
Q 4153 -91 3862 251 
Q 3572 594 3572 1178 
Q 3572 1766 3864 2108 
Q 4156 2450 4653 2450 
z
M 4263 4750 
L 4738 4750 
L 1819 -91 
L 1344 -91 
L 4263 4750 
z
M 1428 4750 
Q 1922 4750 2215 4408 
Q 2509 4066 2509 3481 
Q 2509 2891 2217 2550 
Q 1925 2209 1428 2209 
Q 931 2209 642 2551 
Q 353 2894 353 3481 
Q 353 4063 643 4406 
Q 934 4750 1428 4750 
z
" transform="scale(0.015625)"/>
       <path id="DejaVuSerif-c" d="M 453 -997 
L 453 -691 
Q 934 -359 1145 242 
Q 1356 844 1356 1931 
Q 1356 3022 1145 3623 
Q 934 4225 453 4556 
L 453 4863 
Q 1216 4522 1603 3783 
Q 1991 3044 1991 1931 
Q 1991 822 1603 83 
Q 1216 -656 453 -997 
z
" transform="scale(0.015625)"/>
      </defs>
      <use xlink:href="#DejaVuSerif-27"/>
      <use xlink:href="#DejaVuSerif-48" transform="translate(80.171875 0)"/>
      <use xlink:href="#DejaVuSerif-4a" transform="translate(139.359375 0)"/>
      <use xlink:href="#DejaVuSerif-55" transform="translate(203.375 0)"/>
      <use xlink:href="#DejaVuSerif-44" transform="translate(251.171875 0)"/>
      <use xlink:href="#DejaVuSerif-47" transform="translate(310.796875 0)"/>
      <use xlink:href="#DejaVuSerif-44" transform="translate(374.8125 0)"/>
      <use xlink:href="#DejaVuSerif-57" transform="translate(434.4375 0)"/>
      <use xlink:href="#DejaVuSerif-4c" transform="translate(474.625 0)"/>
      <use xlink:href="#DejaVuSerif-52" transform="translate(506.609375 0)"/>
      <use xlink:href="#DejaVuSerif-51" transform="translate(566.8125 0)"/>
      <use xlink:href="#DejaVuSerif-3" transform="translate(631.21875 0)"/>
      <use xlink:href="#DejaVuSerif-b" transform="translate(663 0)"/>
      <use xlink:href="#DejaVuSerif-8" transform="translate(702.015625 0)"/>
      <use xlink:href="#DejaVuSerif-c" transform="translate(797.03125 0)"/>
     </g>
    </g>
   </g>
   <g id="patch_3">
    <path d="M 86.545455 330.10112 
L 112.8012 330.10112 
L 112.8012 330.073286 
L 86.545455 330.073286 
z
" clip-path="url(#pb1cc98f33b)" style="fill: #3498db; stroke: #000000; stroke-width: 0.5; stroke-linejoin: miter"/>
   </g>
   <g id="patch_4">
    <path d="M 244.079927 330.10112 
L 270.335673 330.10112 
L 270.335673 330.10112 
L 244.079927 330.10112 
z
" clip-path="url(#pb1cc98f33b)" style="fill: #3498db; stroke: #000000; stroke-width: 0.5; stroke-linejoin: miter"/>
   </g>
   <g id="patch_5">
    <path d="M 401.6144 330.10112 
L 427.870145 330.10112 
L 427.870145 330.10112 
L 401.6144 330.10112 
z
" clip-path="url(#pb1cc98f33b)" style="fill: #3498db; stroke: #000000; stroke-width: 0.5; stroke-linejoin: miter"/>
   </g>
   <g id="patch_6">
    <path d="M 559.148872 330.10112 
L 585.404618 330.10112 
L 585.404618 330.10112 
L 559.148872 330.10112 
z
" clip-path="url(#pb1cc98f33b)" style="fill: #3498db; stroke: #000000; stroke-width: 0.5; stroke-linejoin: miter"/>
   </g>
   <g id="patch_7">
    <path d="M 716.683345 330.10112 
L 742.93909 330.10112 
L 742.93909 330.10112 
L 716.683345 330.10112 
z
" clip-path="url(#pb1cc98f33b)" style="fill: #3498db; stroke: #000000; stroke-width: 0.5; stroke-linejoin: miter"/>
   </g>
   <g id="patch_8">
    <path d="M 112.8012 330.10112 
L 139.056946 330.10112 
L 139.056946 330.095295 
L 112.8012 330.095295 
z
" clip-path="url(#pb1cc98f33b)" style="fill: #e74c3c; stroke: #000000; stroke-width: 0.5; stroke-linejoin: miter"/>
   </g>
   <g id="patch_9">
    <path d="M 270.335673 330.10112 
L 296.591418 330.10112 
L 296.591418 330.10112 
L 270.335673 330.10112 
z
" clip-path="url(#pb1cc98f33b)" style="fill: #e74c3c; stroke: #000000; stroke-width: 0.5; stroke-linejoin: miter"/>
   </g>
   <g id="patch_10">
    <path d="M 427.870145 330.10112 
L 454.125891 330.10112 
L 454.125891 330.10112 
L 427.870145 330.10112 
z
" clip-path="url(#pb1cc98f33b)" style="fill: #e74c3c; stroke: #000000; stroke-width: 0.5; stroke-linejoin: miter"/>
   </g>
   <g id="patch_11">
    <path d="M 585.404618 330.10112 
L 611.660363 330.10112 
L 611.660363 330.10112 
L 585.404618 330.10112 
z
" clip-path="url(#pb1cc98f33b)" style="fill: #e74c3c; stroke: #000000; stroke-width: 0.5; stroke-linejoin: miter"/>
   </g>
   <g id="patch_12">
    <path d="M 742.93909 330.10112 
L 769.194835 330.10112 
L 769.194835 330.10112 
L 742.93909 330.10112 
z
" clip-path="url(#pb1cc98f33b)" style="fill: #e74c3c; stroke: #000000; stroke-width: 0.5; stroke-linejoin: miter"/>
   </g>
   <g id="patch_13">
    <path d="M 139.056946 330.10112 
L 165.312691 330.10112 
L 165.312691 38.42178 
L 139.056946 38.42178 
z
" clip-path="url(#pb1cc98f33b)" style="fill: #2ecc71; stroke: #000000; stroke-width: 0.5; stroke-linejoin: miter"/>
   </g>
   <g id="patch_14">
    <path d="M 296.591418 330.10112 
L 322.847164 330.10112 
L 322.847164 300.10586 
L 296.591418 300.10586 
z
" clip-path="url(#pb1cc98f33b)" style="fill: #2ecc71; stroke: #000000; stroke-width: 0.5; stroke-linejoin: miter"/>
   </g>
   <g id="patch_15">
    <path d="M 454.125891 330.10112 
L 480.381636 330.10112 
L 480.381636 300.307028 
L 454.125891 300.307028 
z
" clip-path="url(#pb1cc98f33b)" style="fill: #2ecc71; stroke: #000000; stroke-width: 0.5; stroke-linejoin: miter"/>
   </g>
   <g id="patch_16">
    <path d="M 611.660363 330.10112 
L 637.916108 330.10112 
L 637.916108 298.143754 
L 611.660363 298.143754 
z
" clip-path="url(#pb1cc98f33b)" style="fill: #2ecc71; stroke: #000000; stroke-width: 0.5; stroke-linejoin: miter"/>
   </g>
   <g id="patch_17">
    <path d="M 769.194835 330.10112 
L 795.450581 330.10112 
L 795.450581 298.103741 
L 769.194835 298.103741 
z
" clip-path="url(#pb1cc98f33b)" style="fill: #2ecc71; stroke: #000000; stroke-width: 0.5; stroke-linejoin: miter"/>
   </g>
   <g id="line2d_11">
    <path d="M 47.161837 330.10112 
L 834.834199 330.10112 
" clip-path="url(#pb1cc98f33b)" style="fill: none; stroke: #000000; stroke-width: 0.8; stroke-linecap: round"/>
   </g>
   <g id="patch_18">
    <path d="M 47.161837 330.10112 
L 47.161837 23.837812 
" style="fill: none; stroke: #cccccc; stroke-linejoin: miter; stroke-linecap: square"/>
   </g>
   <g id="patch_19">
    <path d="M 834.834199 330.10112 
L 834.834199 23.837812 
" style="fill: none; stroke: #cccccc; stroke-linejoin: miter; stroke-linecap: square"/>
   </g>
   <g id="patch_20">
    <path d="M 47.161837 330.10112 
L 834.834199 330.10112 
" style="fill: none; stroke: #cccccc; stroke-linejoin: miter; stroke-linecap: square"/>
   </g>
   <g id="patch_21">
    <path d="M 47.161837 23.837812 
L 834.834199 23.837812 
" style="fill: none; stroke: #cccccc; stroke-linejoin: miter; stroke-linecap: square"/>
   </g>
   <g id="text_12">
    <!-- Performance Degradation When Removing Each Component -->
    <g style="fill: #262626" transform="translate(225.87708 17.837812) scale(0.14 -0.14)">
     <defs>
      <path id="DejaVuSerif-33" d="M 1581 2375 
L 2406 2375 
Q 2872 2375 3115 2626 
Q 3359 2878 3359 3353 
Q 3359 3831 3115 4081 
Q 2872 4331 2406 4331 
L 1581 4331 
L 1581 2375 
z
M 353 0 
L 353 331 
L 947 331 
L 947 4331 
L 353 4331 
L 353 4666 
L 2559 4666 
Q 3259 4666 3668 4311 
Q 4078 3956 4078 3353 
Q 4078 2753 3668 2397 
Q 3259 2041 2559 2041 
L 1581 2041 
L 1581 331 
L 2303 331 
L 2303 0 
L 353 0 
z
" transform="scale(0.015625)"/>
      <path id="DejaVuSerif-49" d="M 2753 4078 
L 2450 4078 
Q 2447 4313 2317 4434 
Q 2188 4556 1941 4556 
Q 1619 4556 1487 4379 
Q 1356 4203 1356 3750 
L 1356 3322 
L 2284 3322 
L 2284 2988 
L 1356 2988 
L 1356 331 
L 2094 331 
L 2094 0 
L 231 0 
L 231 331 
L 781 331 
L 781 2988 
L 231 2988 
L 231 3322 
L 781 3322 
L 781 3738 
Q 781 4294 1070 4578 
Q 1359 4863 1919 4863 
Q 2128 4863 2337 4825 
Q 2547 4788 2753 4709 
L 2753 4078 
z
" transform="scale(0.015625)"/>
      <path id="DejaVuSerif-50" d="M 3316 2675 
Q 3481 3041 3739 3227 
Q 3997 3413 4341 3413 
Q 4863 3413 5119 3089 
Q 5375 2766 5375 2113 
L 5375 331 
L 5894 331 
L 5894 0 
L 4300 0 
L 4300 331 
L 4800 331 
L 4800 2047 
Q 4800 2556 4650 2772 
Q 4500 2988 4153 2988 
Q 3769 2988 3567 2697 
Q 3366 2406 3366 1850 
L 3366 331 
L 3866 331 
L 3866 0 
L 2291 0 
L 2291 331 
L 2791 331 
L 2791 2069 
Q 2791 2566 2641 2777 
Q 2491 2988 2144 2988 
Q 1759 2988 1557 2697 
Q 1356 2406 1356 1850 
L 1356 331 
L 1856 331 
L 1856 0 
L 263 0 
L 263 331 
L 781 331 
L 781 2994 
L 231 2994 
L 231 3322 
L 1356 3322 
L 1356 2731 
Q 1516 3063 1762 3238 
Q 2009 3413 2322 3413 
Q 2709 3413 2968 3220 
Q 3228 3028 3316 2675 
z
" transform="scale(0.015625)"/>
      <path id="DejaVuSerif-46" d="M 3291 997 
Q 3169 466 2822 187 
Q 2475 -91 1925 -91 
Q 1200 -91 759 389 
Q 319 869 319 1663 
Q 319 2459 759 2936 
Q 1200 3413 1925 3413 
Q 2241 3413 2553 3339 
Q 2866 3266 3181 3116 
L 3181 2266 
L 2847 2266 
Q 2781 2703 2561 2903 
Q 2341 3103 1931 3103 
Q 1466 3103 1228 2742 
Q 991 2381 991 1663 
Q 991 944 1227 581 
Q 1463 219 1931 219 
Q 2303 219 2525 412 
Q 2747 606 2828 997 
L 3291 997 
z
" transform="scale(0.015625)"/>
      <path id="DejaVuSerif-26" d="M 4513 1234 
Q 4306 581 3820 245 
Q 3334 -91 2591 -91 
Q 2134 -91 1743 65 
Q 1353 222 1050 525 
Q 700 875 529 1320 
Q 359 1766 359 2328 
Q 359 3416 987 4083 
Q 1616 4750 2644 4750 
Q 3025 4750 3456 4650 
Q 3888 4550 4384 4347 
L 4384 3272 
L 4031 3272 
Q 3916 3859 3567 4137 
Q 3219 4416 2591 4416 
Q 1844 4416 1459 3886 
Q 1075 3356 1075 2328 
Q 1075 1303 1459 773 
Q 1844 244 2591 244 
Q 3113 244 3450 492 
Q 3788 741 3938 1234 
L 4513 1234 
z
" transform="scale(0.015625)"/>
     </defs>
     <use xlink:href="#DejaVuSerif-33"/>
     <use xlink:href="#DejaVuSerif-48" transform="translate(62.796875 0)"/>
     <use xlink:href="#DejaVuSerif-55" transform="translate(121.984375 0)"/>
     <use xlink:href="#DejaVuSerif-49" transform="translate(169.78125 0)"/>
     <use xlink:href="#DejaVuSerif-52" transform="translate(206.796875 0)"/>
     <use xlink:href="#DejaVuSerif-55" transform="translate(267 0)"/>
     <use xlink:href="#DejaVuSerif-50" transform="translate(314.796875 0)"/>
     <use xlink:href="#DejaVuSerif-44" transform="translate(409.625 0)"/>
     <use xlink:href="#DejaVuSerif-51" transform="translate(469.25 0)"/>
     <use xlink:href="#DejaVuSerif-46" transform="translate(533.65625 0)"/>
     <use xlink:href="#DejaVuSerif-48" transform="translate(589.65625 0)"/>
     <use xlink:href="#DejaVuSerif-3" transform="translate(648.84375 0)"/>
     <use xlink:href="#DejaVuSerif-27" transform="translate(680.625 0)"/>
     <use xlink:href="#DejaVuSerif-48" transform="translate(760.796875 0)"/>
     <use xlink:href="#DejaVuSerif-4a" transform="translate(819.984375 0)"/>
     <use xlink:href="#DejaVuSerif-55" transform="translate(884 0)"/>
     <use xlink:href="#DejaVuSerif-44" transform="translate(931.796875 0)"/>
     <use xlink:href="#DejaVuSerif-47" transform="translate(991.421875 0)"/>
     <use xlink:href="#DejaVuSerif-44" transform="translate(1055.4375 0)"/>
     <use xlink:href="#DejaVuSerif-57" transform="translate(1115.0625 0)"/>
     <use xlink:href="#DejaVuSerif-4c" transform="translate(1155.25 0)"/>
     <use xlink:href="#DejaVuSerif-52" transform="translate(1187.234375 0)"/>
     <use xlink:href="#DejaVuSerif-51" transform="translate(1247.4375 0)"/>
     <use xlink:href="#DejaVuSerif-3" transform="translate(1311.84375 0)"/>
     <use xlink:href="#DejaVuSerif-3a" transform="translate(1343.625 0)"/>
     <use xlink:href="#DejaVuSerif-4b" transform="translate(1446.40625 0)"/>
     <use xlink:href="#DejaVuSerif-48" transform="translate(1510.8125 0)"/>
     <use xlink:href="#DejaVuSerif-51" transform="translate(1570 0)"/>
     <use xlink:href="#DejaVuSerif-3" transform="translate(1634.40625 0)"/>
     <use xlink:href="#DejaVuSerif-35" transform="translate(1666.1875 0)"/>
     <use xlink:href="#DejaVuSerif-48" transform="translate(1741.484375 0)"/>
     <use xlink:href="#DejaVuSerif-50" transform="translate(1800.671875 0)"/>
     <use xlink:href="#DejaVuSerif-52" transform="translate(1895.5 0)"/>
     <use xlink:href="#DejaVuSerif-59" transform="translate(1955.703125 0)"/>
     <use xlink:href="#DejaVuSerif-4c" transform="translate(2012.203125 0)"/>
     <use xlink:href="#DejaVuSerif-51" transform="translate(2044.1875 0)"/>
     <use xlink:href="#DejaVuSerif-4a" transform="translate(2108.59375 0)"/>
     <use xlink:href="#DejaVuSerif-3" transform="translate(2172.609375 0)"/>
     <use xlink:href="#DejaVuSerif-28" transform="translate(2204.390625 0)"/>
     <use xlink:href="#DejaVuSerif-44" transform="translate(2277.390625 0)"/>
     <use xlink:href="#DejaVuSerif-46" transform="translate(2337.015625 0)"/>
     <use xlink:href="#DejaVuSerif-4b" transform="translate(2393.015625 0)"/>
     <use xlink:href="#DejaVuSerif-3" transform="translate(2457.421875 0)"/>
     <use xlink:href="#DejaVuSerif-26" transform="translate(2489.203125 0)"/>
     <use xlink:href="#DejaVuSerif-52" transform="translate(2565.71875 0)"/>
     <use xlink:href="#DejaVuSerif-50" transform="translate(2625.921875 0)"/>
     <use xlink:href="#DejaVuSerif-53" transform="translate(2720.75 0)"/>
     <use xlink:href="#DejaVuSerif-52" transform="translate(2784.765625 0)"/>
     <use xlink:href="#DejaVuSerif-51" transform="translate(2844.96875 0)"/>
     <use xlink:href="#DejaVuSerif-48" transform="translate(2909.375 0)"/>
     <use xlink:href="#DejaVuSerif-51" transform="translate(2968.5625 0)"/>
     <use xlink:href="#DejaVuSerif-57" transform="translate(3032.96875 0)"/>
    </g>
   </g>
   <g id="legend_1">
    <g id="patch_22">
     <path d="M 731.906543 71.539922 
L 828.534199 71.539922 
Q 830.334199 71.539922 830.334199 69.739922 
L 830.334199 30.137812 
Q 830.334199 28.337812 828.534199 28.337812 
L 731.906543 28.337812 
Q 730.106543 28.337812 730.106543 30.137812 
L 730.106543 69.739922 
Q 730.106543 71.539922 731.906543 71.539922 
z
" style="fill: #ffffff; opacity: 0.8; stroke: #cccccc; stroke-width: 0.8; stroke-linejoin: miter"/>
    </g>
    <g id="patch_23">
     <path d="M 733.706543 38.776406 
L 751.706543 38.776406 
L 751.706543 32.476406 
L 733.706543 32.476406 
z
" style="fill: #3498db; stroke: #000000; stroke-width: 0.5; stroke-linejoin: miter"/>
    </g>
    <g id="text_13">
     <!-- silhouette -->
     <g style="fill: #262626" transform="translate(758.906543 38.776406) scale(0.09 -0.09)">
      <use xlink:href="#DejaVuSerif-56"/>
      <use xlink:href="#DejaVuSerif-4c" transform="translate(51.3125 0)"/>
      <use xlink:href="#DejaVuSerif-4f" transform="translate(83.296875 0)"/>
      <use xlink:href="#DejaVuSerif-4b" transform="translate(115.28125 0)"/>
      <use xlink:href="#DejaVuSerif-52" transform="translate(179.6875 0)"/>
      <use xlink:href="#DejaVuSerif-58" transform="translate(239.890625 0)"/>
      <use xlink:href="#DejaVuSerif-48" transform="translate(304.296875 0)"/>
      <use xlink:href="#DejaVuSerif-57" transform="translate(363.484375 0)"/>
      <use xlink:href="#DejaVuSerif-57" transform="translate(403.671875 0)"/>
      <use xlink:href="#DejaVuSerif-48" transform="translate(443.859375 0)"/>
     </g>
    </g>
    <g id="patch_24">
     <path d="M 733.706543 52.277109 
L 751.706543 52.277109 
L 751.706543 45.977109 
L 733.706543 45.977109 
z
" style="fill: #e74c3c; stroke: #000000; stroke-width: 0.5; stroke-linejoin: miter"/>
    </g>
    <g id="text_14">
     <!-- davies_bouldin -->
     <g style="fill: #262626" transform="translate(758.906543 52.277109) scale(0.09 -0.09)">
      <defs>
       <path id="DejaVuSerif-42" d="M 3200 -1259 
L 3200 -1509 
L 0 -1509 
L 0 -1259 
L 3200 -1259 
z
" transform="scale(0.015625)"/>
      </defs>
      <use xlink:href="#DejaVuSerif-47"/>
      <use xlink:href="#DejaVuSerif-44" transform="translate(64.015625 0)"/>
      <use xlink:href="#DejaVuSerif-59" transform="translate(123.640625 0)"/>
      <use xlink:href="#DejaVuSerif-4c" transform="translate(180.140625 0)"/>
      <use xlink:href="#DejaVuSerif-48" transform="translate(212.125 0)"/>
      <use xlink:href="#DejaVuSerif-56" transform="translate(271.3125 0)"/>
      <use xlink:href="#DejaVuSerif-42" transform="translate(322.625 0)"/>
      <use xlink:href="#DejaVuSerif-45" transform="translate(372.625 0)"/>
      <use xlink:href="#DejaVuSerif-52" transform="translate(436.640625 0)"/>
      <use xlink:href="#DejaVuSerif-58" transform="translate(496.84375 0)"/>
      <use xlink:href="#DejaVuSerif-4f" transform="translate(561.25 0)"/>
      <use xlink:href="#DejaVuSerif-47" transform="translate(593.234375 0)"/>
      <use xlink:href="#DejaVuSerif-4c" transform="translate(657.25 0)"/>
      <use xlink:href="#DejaVuSerif-51" transform="translate(689.234375 0)"/>
     </g>
    </g>
    <g id="patch_25">
     <path d="M 733.706543 65.777812 
L 751.706543 65.777812 
L 751.706543 59.477812 
L 733.706543 59.477812 
z
" style="fill: #2ecc71; stroke: #000000; stroke-width: 0.5; stroke-linejoin: miter"/>
    </g>
    <g id="text_15">
     <!-- time -->
     <g style="fill: #262626" transform="translate(758.906543 65.777812) scale(0.09 -0.09)">
      <use xlink:href="#DejaVuSerif-57"/>
      <use xlink:href="#DejaVuSerif-4c" transform="translate(40.1875 0)"/>
      <use xlink:href="#DejaVuSerif-50" transform="translate(72.171875 0)"/>
      <use xlink:href="#DejaVuSerif-48" transform="translate(167 0)"/>
     </g>
    </g>
   </g>
  </g>
 </g>
 <defs>
  <clipPath id="pb1cc98f33b">
   <rect x="47.161837" y="23.837812" width="787.672362" height="306.263308"/>
  </clipPath>
 </defs>
</svg>
